<?xml version="1.0" encoding="utf-8" standalone="no"?>
<!DOCTYPE svg PUBLIC "-//W3C//DTD SVG 1.1//EN"
  "http://www.w3.org/Graphics/SVG/1.1/DTD/svg11.dtd">
<!-- Created with matplotlib (https://matplotlib.org/) -->
<svg height="502.86375pt" version="1.1" viewBox="0 0 976.6275 502.86375" width="976.6275pt" xmlns="http://www.w3.org/2000/svg" xmlns:xlink="http://www.w3.org/1999/xlink">
 <defs>
  <style type="text/css">
*{stroke-linecap:butt;stroke-linejoin:round;}
  </style>
 </defs>
 <g id="figure_1">
  <g id="patch_1">
   <path d="M 0 502.86375 
L 976.6275 502.86375 
L 976.6275 0 
L 0 0 
z
" style="fill:none;"/>
  </g>
  <g id="axes_1">
   <g id="patch_2">
    <path d="M 76.6275 442.08 
L 464.801413 442.08 
L 464.801413 7.2 
L 76.6275 7.2 
z
" style="fill:#ffffff;"/>
   </g>
   <g id="patch_3">
    <path clip-path="url(#p340a566579)" d="M 94.271769 179841.683288 
L 97.836268 179841.683288 
L 97.836268 179841.683288 
L 94.271769 179841.683288 
z
" style="fill:#1f77b4;"/>
   </g>
   <g id="patch_4">
    <path clip-path="url(#p340a566579)" d="M 97.836268 179841.683288 
L 101.400766 179841.683288 
L 101.400766 179841.683288 
L 97.836268 179841.683288 
z
" style="fill:#1f77b4;"/>
   </g>
   <g id="patch_5">
    <path clip-path="url(#p340a566579)" d="M 101.400766 179841.683288 
L 104.965265 179841.683288 
L 104.965265 179841.683288 
L 101.400766 179841.683288 
z
" style="fill:#1f77b4;"/>
   </g>
   <g id="patch_6">
    <path clip-path="url(#p340a566579)" d="M 104.965265 179841.683288 
L 108.529764 179841.683288 
L 108.529764 179841.683288 
L 104.965265 179841.683288 
z
" style="fill:#1f77b4;"/>
   </g>
   <g id="patch_7">
    <path clip-path="url(#p340a566579)" d="M 108.529764 179841.683288 
L 112.094262 179841.683288 
L 112.094262 179841.683288 
L 108.529764 179841.683288 
z
" style="fill:#1f77b4;"/>
   </g>
   <g id="patch_8">
    <path clip-path="url(#p340a566579)" d="M 112.094262 179841.683288 
L 115.658761 179841.683288 
L 115.658761 179841.683288 
L 112.094262 179841.683288 
z
" style="fill:#1f77b4;"/>
   </g>
   <g id="patch_9">
    <path clip-path="url(#p340a566579)" d="M 115.658761 179841.683288 
L 119.22326 179841.683288 
L 119.22326 179841.683288 
L 115.658761 179841.683288 
z
" style="fill:#1f77b4;"/>
   </g>
   <g id="patch_10">
    <path clip-path="url(#p340a566579)" d="M 119.22326 179841.683288 
L 122.787759 179841.683288 
L 122.787759 179841.683288 
L 119.22326 179841.683288 
z
" style="fill:#1f77b4;"/>
   </g>
   <g id="patch_11">
    <path clip-path="url(#p340a566579)" d="M 122.787759 179841.683288 
L 126.352257 179841.683288 
L 126.352257 305.184268 
L 122.787759 305.184268 
z
" style="fill:#1f77b4;"/>
   </g>
   <g id="patch_12">
    <path clip-path="url(#p340a566579)" d="M 126.352257 179841.683288 
L 129.916756 179841.683288 
L 129.916756 56.622497 
L 126.352257 56.622497 
z
" style="fill:#1f77b4;"/>
   </g>
   <g id="patch_13">
    <path clip-path="url(#p340a566579)" d="M 129.916756 179841.683288 
L 133.481255 179841.683288 
L 133.481255 34.754774 
L 129.916756 34.754774 
z
" style="fill:#1f77b4;"/>
   </g>
   <g id="patch_14">
    <path clip-path="url(#p340a566579)" d="M 133.481255 179841.683288 
L 137.045754 179841.683288 
L 137.045754 26.967273 
L 133.481255 26.967273 
z
" style="fill:#1f77b4;"/>
   </g>
   <g id="patch_15">
    <path clip-path="url(#p340a566579)" d="M 137.045754 179841.683288 
L 140.610252 179841.683288 
L 140.610252 38.749186 
L 137.045754 38.749186 
z
" style="fill:#1f77b4;"/>
   </g>
   <g id="patch_16">
    <path clip-path="url(#p340a566579)" d="M 140.610252 179841.683288 
L 144.174751 179841.683288 
L 144.174751 43.258555 
L 140.610252 43.258555 
z
" style="fill:#1f77b4;"/>
   </g>
   <g id="patch_17">
    <path clip-path="url(#p340a566579)" d="M 144.174751 179841.683288 
L 147.73925 179841.683288 
L 147.73925 37.071405 
L 144.174751 37.071405 
z
" style="fill:#1f77b4;"/>
   </g>
   <g id="patch_18">
    <path clip-path="url(#p340a566579)" d="M 147.73925 179841.683288 
L 151.303749 179841.683288 
L 151.303749 48.364337 
L 147.73925 48.364337 
z
" style="fill:#1f77b4;"/>
   </g>
   <g id="patch_19">
    <path clip-path="url(#p340a566579)" d="M 151.303749 179841.683288 
L 154.868247 179841.683288 
L 154.868247 51.297175 
L 151.303749 51.297175 
z
" style="fill:#1f77b4;"/>
   </g>
   <g id="patch_20">
    <path clip-path="url(#p340a566579)" d="M 154.868247 179841.683288 
L 158.432746 179841.683288 
L 158.432746 48.045181 
L 154.868247 48.045181 
z
" style="fill:#1f77b4;"/>
   </g>
   <g id="patch_21">
    <path clip-path="url(#p340a566579)" d="M 158.432746 179841.683288 
L 161.997245 179841.683288 
L 161.997245 53.828513 
L 158.432746 53.828513 
z
" style="fill:#1f77b4;"/>
   </g>
   <g id="patch_22">
    <path clip-path="url(#p340a566579)" d="M 161.997245 179841.683288 
L 165.561744 179841.683288 
L 165.561744 51.629971 
L 161.997245 51.629971 
z
" style="fill:#1f77b4;"/>
   </g>
   <g id="patch_23">
    <path clip-path="url(#p340a566579)" d="M 165.561744 179841.683288 
L 169.126242 179841.683288 
L 169.126242 56.444905 
L 165.561744 56.444905 
z
" style="fill:#1f77b4;"/>
   </g>
   <g id="patch_24">
    <path clip-path="url(#p340a566579)" d="M 169.126242 179841.683288 
L 172.690741 179841.683288 
L 172.690741 52.299858 
L 169.126242 52.299858 
z
" style="fill:#1f77b4;"/>
   </g>
   <g id="patch_25">
    <path clip-path="url(#p340a566579)" d="M 172.690741 179841.683288 
L 176.25524 179841.683288 
L 176.25524 66.868869 
L 172.690741 66.868869 
z
" style="fill:#1f77b4;"/>
   </g>
   <g id="patch_26">
    <path clip-path="url(#p340a566579)" d="M 176.25524 179841.683288 
L 179.819739 179841.683288 
L 179.819739 62.722508 
L 176.25524 62.722508 
z
" style="fill:#1f77b4;"/>
   </g>
   <g id="patch_27">
    <path clip-path="url(#p340a566579)" d="M 179.819739 179841.683288 
L 183.384237 179841.683288 
L 183.384237 66.061878 
L 179.819739 66.061878 
z
" style="fill:#1f77b4;"/>
   </g>
   <g id="patch_28">
    <path clip-path="url(#p340a566579)" d="M 183.384237 179841.683288 
L 186.948736 179841.683288 
L 186.948736 74.311332 
L 183.384237 74.311332 
z
" style="fill:#1f77b4;"/>
   </g>
   <g id="patch_29">
    <path clip-path="url(#p340a566579)" d="M 186.948736 179841.683288 
L 190.513235 179841.683288 
L 190.513235 73.42387 
L 186.948736 73.42387 
z
" style="fill:#1f77b4;"/>
   </g>
   <g id="patch_30">
    <path clip-path="url(#p340a566579)" d="M 190.513235 179841.683288 
L 194.077734 179841.683288 
L 194.077734 77.965913 
L 190.513235 77.965913 
z
" style="fill:#1f77b4;"/>
   </g>
   <g id="patch_31">
    <path clip-path="url(#p340a566579)" d="M 194.077734 179841.683288 
L 197.642232 179841.683288 
L 197.642232 80.099579 
L 194.077734 80.099579 
z
" style="fill:#1f77b4;"/>
   </g>
   <g id="patch_32">
    <path clip-path="url(#p340a566579)" d="M 197.642232 179841.683288 
L 201.206731 179841.683288 
L 201.206731 85.061382 
L 197.642232 85.061382 
z
" style="fill:#1f77b4;"/>
   </g>
   <g id="patch_33">
    <path clip-path="url(#p340a566579)" d="M 201.206731 179841.683288 
L 204.77123 179841.683288 
L 204.77123 83.539367 
L 201.206731 83.539367 
z
" style="fill:#1f77b4;"/>
   </g>
   <g id="patch_34">
    <path clip-path="url(#p340a566579)" d="M 204.77123 179841.683288 
L 208.335729 179841.683288 
L 208.335729 86.8755 
L 204.77123 86.8755 
z
" style="fill:#1f77b4;"/>
   </g>
   <g id="patch_35">
    <path clip-path="url(#p340a566579)" d="M 208.335729 179841.683288 
L 211.900227 179841.683288 
L 211.900227 89.814488 
L 208.335729 89.814488 
z
" style="fill:#1f77b4;"/>
   </g>
   <g id="patch_36">
    <path clip-path="url(#p340a566579)" d="M 211.900227 179841.683288 
L 215.464726 179841.683288 
L 215.464726 92.586096 
L 211.900227 92.586096 
z
" style="fill:#1f77b4;"/>
   </g>
   <g id="patch_37">
    <path clip-path="url(#p340a566579)" d="M 215.464726 179841.683288 
L 219.029225 179841.683288 
L 219.029225 94.297681 
L 215.464726 94.297681 
z
" style="fill:#1f77b4;"/>
   </g>
   <g id="patch_38">
    <path clip-path="url(#p340a566579)" d="M 219.029225 179841.683288 
L 222.593723 179841.683288 
L 222.593723 94.876672 
L 219.029225 94.876672 
z
" style="fill:#1f77b4;"/>
   </g>
   <g id="patch_39">
    <path clip-path="url(#p340a566579)" d="M 222.593723 179841.683288 
L 226.158222 179841.683288 
L 226.158222 99.980067 
L 222.593723 99.980067 
z
" style="fill:#1f77b4;"/>
   </g>
   <g id="patch_40">
    <path clip-path="url(#p340a566579)" d="M 226.158222 179841.683288 
L 229.722721 179841.683288 
L 229.722721 103.795064 
L 226.158222 103.795064 
z
" style="fill:#1f77b4;"/>
   </g>
   <g id="patch_41">
    <path clip-path="url(#p340a566579)" d="M 229.722721 179841.683288 
L 233.28722 179841.683288 
L 233.28722 99.054821 
L 229.722721 99.054821 
z
" style="fill:#1f77b4;"/>
   </g>
   <g id="patch_42">
    <path clip-path="url(#p340a566579)" d="M 233.28722 179841.683288 
L 236.851718 179841.683288 
L 236.851718 114.240244 
L 233.28722 114.240244 
z
" style="fill:#1f77b4;"/>
   </g>
   <g id="patch_43">
    <path clip-path="url(#p340a566579)" d="M 236.851718 179841.683288 
L 240.416217 179841.683288 
L 240.416217 110.245832 
L 236.851718 110.245832 
z
" style="fill:#1f77b4;"/>
   </g>
   <g id="patch_44">
    <path clip-path="url(#p340a566579)" d="M 240.416217 179841.683288 
L 243.980716 179841.683288 
L 243.980716 118.450672 
L 240.416217 118.450672 
z
" style="fill:#1f77b4;"/>
   </g>
   <g id="patch_45">
    <path clip-path="url(#p340a566579)" d="M 243.980716 179841.683288 
L 247.545215 179841.683288 
L 247.545215 122.901824 
L 243.980716 122.901824 
z
" style="fill:#1f77b4;"/>
   </g>
   <g id="patch_46">
    <path clip-path="url(#p340a566579)" d="M 247.545215 179841.683288 
L 251.109713 179841.683288 
L 251.109713 105.109424 
L 247.545215 105.109424 
z
" style="fill:#1f77b4;"/>
   </g>
   <g id="patch_47">
    <path clip-path="url(#p340a566579)" d="M 251.109713 179841.683288 
L 254.674212 179841.683288 
L 254.674212 118.844972 
L 251.109713 118.844972 
z
" style="fill:#1f77b4;"/>
   </g>
   <g id="patch_48">
    <path clip-path="url(#p340a566579)" d="M 254.674212 179841.683288 
L 258.238711 179841.683288 
L 258.238711 125.012359 
L 254.674212 125.012359 
z
" style="fill:#1f77b4;"/>
   </g>
   <g id="patch_49">
    <path clip-path="url(#p340a566579)" d="M 258.238711 179841.683288 
L 261.80321 179841.683288 
L 261.80321 140.591852 
L 258.238711 140.591852 
z
" style="fill:#1f77b4;"/>
   </g>
   <g id="patch_50">
    <path clip-path="url(#p340a566579)" d="M 261.80321 179841.683288 
L 265.367708 179841.683288 
L 265.367708 136.519083 
L 261.80321 136.519083 
z
" style="fill:#1f77b4;"/>
   </g>
   <g id="patch_51">
    <path clip-path="url(#p340a566579)" d="M 265.367708 179841.683288 
L 268.932207 179841.683288 
L 268.932207 142.711002 
L 265.367708 142.711002 
z
" style="fill:#1f77b4;"/>
   </g>
   <g id="patch_52">
    <path clip-path="url(#p340a566579)" d="M 268.932207 179841.683288 
L 272.496706 179841.683288 
L 272.496706 133.122173 
L 268.932207 133.122173 
z
" style="fill:#1f77b4;"/>
   </g>
   <g id="patch_53">
    <path clip-path="url(#p340a566579)" d="M 272.496706 179841.683288 
L 276.061205 179841.683288 
L 276.061205 145.443702 
L 272.496706 145.443702 
z
" style="fill:#1f77b4;"/>
   </g>
   <g id="patch_54">
    <path clip-path="url(#p340a566579)" d="M 276.061205 179841.683288 
L 279.625703 179841.683288 
L 279.625703 143.792603 
L 276.061205 143.792603 
z
" style="fill:#1f77b4;"/>
   </g>
   <g id="patch_55">
    <path clip-path="url(#p340a566579)" d="M 279.625703 179841.683288 
L 283.190202 179841.683288 
L 283.190202 147.130569 
L 279.625703 147.130569 
z
" style="fill:#1f77b4;"/>
   </g>
   <g id="patch_56">
    <path clip-path="url(#p340a566579)" d="M 283.190202 179841.683288 
L 286.754701 179841.683288 
L 286.754701 150.618045 
L 283.190202 150.618045 
z
" style="fill:#1f77b4;"/>
   </g>
   <g id="patch_57">
    <path clip-path="url(#p340a566579)" d="M 286.754701 179841.683288 
L 290.3192 179841.683288 
L 290.3192 160.762312 
L 286.754701 160.762312 
z
" style="fill:#1f77b4;"/>
   </g>
   <g id="patch_58">
    <path clip-path="url(#p340a566579)" d="M 290.3192 179841.683288 
L 293.883698 179841.683288 
L 293.883698 161.442438 
L 290.3192 161.442438 
z
" style="fill:#1f77b4;"/>
   </g>
   <g id="patch_59">
    <path clip-path="url(#p340a566579)" d="M 293.883698 179841.683288 
L 297.448197 179841.683288 
L 297.448197 152.422156 
L 293.883698 152.422156 
z
" style="fill:#1f77b4;"/>
   </g>
   <g id="patch_60">
    <path clip-path="url(#p340a566579)" d="M 297.448197 179841.683288 
L 301.012696 179841.683288 
L 301.012696 163.5192 
L 297.448197 163.5192 
z
" style="fill:#1f77b4;"/>
   </g>
   <g id="patch_61">
    <path clip-path="url(#p340a566579)" d="M 301.012696 179841.683288 
L 304.577195 179841.683288 
L 304.577195 175.640539 
L 301.012696 175.640539 
z
" style="fill:#1f77b4;"/>
   </g>
   <g id="patch_62">
    <path clip-path="url(#p340a566579)" d="M 304.577195 179841.683288 
L 308.141693 179841.683288 
L 308.141693 156.160824 
L 304.577195 156.160824 
z
" style="fill:#1f77b4;"/>
   </g>
   <g id="patch_63">
    <path clip-path="url(#p340a566579)" d="M 308.141693 179841.683288 
L 311.706192 179841.683288 
L 311.706192 159.419624 
L 308.141693 159.419624 
z
" style="fill:#1f77b4;"/>
   </g>
   <g id="patch_64">
    <path clip-path="url(#p340a566579)" d="M 311.706192 179841.683288 
L 315.270691 179841.683288 
L 315.270691 168.591855 
L 311.706192 168.591855 
z
" style="fill:#1f77b4;"/>
   </g>
   <g id="patch_65">
    <path clip-path="url(#p340a566579)" d="M 315.270691 179841.683288 
L 318.83519 179841.683288 
L 318.83519 160.088074 
L 315.270691 160.088074 
z
" style="fill:#1f77b4;"/>
   </g>
   <g id="patch_66">
    <path clip-path="url(#p340a566579)" d="M 318.83519 179841.683288 
L 322.399688 179841.683288 
L 322.399688 183.391303 
L 318.83519 183.391303 
z
" style="fill:#1f77b4;"/>
   </g>
   <g id="patch_67">
    <path clip-path="url(#p340a566579)" d="M 322.399688 179841.683288 
L 325.964187 179841.683288 
L 325.964187 178.990473 
L 322.399688 178.990473 
z
" style="fill:#1f77b4;"/>
   </g>
   <g id="patch_68">
    <path clip-path="url(#p340a566579)" d="M 325.964187 179841.683288 
L 329.528686 179841.683288 
L 329.528686 182.491016 
L 325.964187 182.491016 
z
" style="fill:#1f77b4;"/>
   </g>
   <g id="patch_69">
    <path clip-path="url(#p340a566579)" d="M 329.528686 179841.683288 
L 333.093185 179841.683288 
L 333.093185 168.591855 
L 329.528686 168.591855 
z
" style="fill:#1f77b4;"/>
   </g>
   <g id="patch_70">
    <path clip-path="url(#p340a566579)" d="M 333.093185 179841.683288 
L 336.657683 179841.683288 
L 336.657683 182.491016 
L 333.093185 182.491016 
z
" style="fill:#1f77b4;"/>
   </g>
   <g id="patch_71">
    <path clip-path="url(#p340a566579)" d="M 336.657683 179841.683288 
L 340.222182 179841.683288 
L 340.222182 191.999636 
L 336.657683 191.999636 
z
" style="fill:#1f77b4;"/>
   </g>
   <g id="patch_72">
    <path clip-path="url(#p340a566579)" d="M 340.222182 179841.683288 
L 343.786681 179841.683288 
L 343.786681 191.999636 
L 340.222182 191.999636 
z
" style="fill:#1f77b4;"/>
   </g>
   <g id="patch_73">
    <path clip-path="url(#p340a566579)" d="M 343.786681 179841.683288 
L 347.351179 179841.683288 
L 347.351179 189.023199 
L 343.786681 189.023199 
z
" style="fill:#1f77b4;"/>
   </g>
   <g id="patch_74">
    <path clip-path="url(#p340a566579)" d="M 347.351179 179841.683288 
L 350.915678 179841.683288 
L 350.915678 195.094372 
L 347.351179 195.094372 
z
" style="fill:#1f77b4;"/>
   </g>
   <g id="patch_75">
    <path clip-path="url(#p340a566579)" d="M 350.915678 179841.683288 
L 354.480177 179841.683288 
L 354.480177 190.002758 
L 350.915678 190.002758 
z
" style="fill:#1f77b4;"/>
   </g>
   <g id="patch_76">
    <path clip-path="url(#p340a566579)" d="M 354.480177 179841.683288 
L 358.044676 179841.683288 
L 358.044676 204.003959 
L 354.480177 204.003959 
z
" style="fill:#1f77b4;"/>
   </g>
   <g id="patch_77">
    <path clip-path="url(#p340a566579)" d="M 358.044676 179841.683288 
L 361.609174 179841.683288 
L 361.609174 194.049069 
L 358.044676 194.049069 
z
" style="fill:#1f77b4;"/>
   </g>
   <g id="patch_78">
    <path clip-path="url(#p340a566579)" d="M 361.609174 179841.683288 
L 365.173673 179841.683288 
L 365.173673 219.630981 
L 361.609174 219.630981 
z
" style="fill:#1f77b4;"/>
   </g>
   <g id="patch_79">
    <path clip-path="url(#p340a566579)" d="M 365.173673 179841.683288 
L 368.738172 179841.683288 
L 368.738172 201.679191 
L 365.173673 201.679191 
z
" style="fill:#1f77b4;"/>
   </g>
   <g id="patch_80">
    <path clip-path="url(#p340a566579)" d="M 368.738172 179841.683288 
L 372.302671 179841.683288 
L 372.302671 190.994797 
L 368.738172 190.994797 
z
" style="fill:#1f77b4;"/>
   </g>
   <g id="patch_81">
    <path clip-path="url(#p340a566579)" d="M 372.302671 179841.683288 
L 375.867169 179841.683288 
L 375.867169 221.086611 
L 372.302671 221.086611 
z
" style="fill:#1f77b4;"/>
   </g>
   <g id="patch_82">
    <path clip-path="url(#p340a566579)" d="M 375.867169 179841.683288 
L 379.431668 179841.683288 
L 379.431668 218.202061 
L 375.867169 218.202061 
z
" style="fill:#1f77b4;"/>
   </g>
   <g id="patch_83">
    <path clip-path="url(#p340a566579)" d="M 379.431668 179841.683288 
L 382.996167 179841.683288 
L 382.996167 239.20183 
L 379.431668 239.20183 
z
" style="fill:#1f77b4;"/>
   </g>
   <g id="patch_84">
    <path clip-path="url(#p340a566579)" d="M 382.996167 179841.683288 
L 386.560666 179841.683288 
L 386.560666 222.569969 
L 382.996167 222.569969 
z
" style="fill:#1f77b4;"/>
   </g>
   <g id="patch_85">
    <path clip-path="url(#p340a566579)" d="M 386.560666 179841.683288 
L 390.125164 179841.683288 
L 390.125164 233.829082 
L 386.560666 233.829082 
z
" style="fill:#1f77b4;"/>
   </g>
   <g id="patch_86">
    <path clip-path="url(#p340a566579)" d="M 390.125164 179841.683288 
L 393.689663 179841.683288 
L 393.689663 212.734977 
L 390.125164 212.734977 
z
" style="fill:#1f77b4;"/>
   </g>
   <g id="patch_87">
    <path clip-path="url(#p340a566579)" d="M 393.689663 179841.683288 
L 397.254162 179841.683288 
L 397.254162 300.973839 
L 393.689663 300.973839 
z
" style="fill:#1f77b4;"/>
   </g>
   <g id="patch_88">
    <path clip-path="url(#p340a566579)" d="M 397.254162 179841.683288 
L 400.818661 179841.683288 
L 400.818661 422.312727 
L 397.254162 422.312727 
z
" style="fill:#1f77b4;"/>
   </g>
   <g id="patch_89">
    <path clip-path="url(#p340a566579)" d="M 400.818661 179841.683288 
L 404.383159 179841.683288 
L 404.383159 179841.683288 
L 400.818661 179841.683288 
z
" style="fill:#1f77b4;"/>
   </g>
   <g id="patch_90">
    <path clip-path="url(#p340a566579)" d="M 404.383159 179841.683288 
L 407.947658 179841.683288 
L 407.947658 179841.683288 
L 404.383159 179841.683288 
z
" style="fill:#1f77b4;"/>
   </g>
   <g id="patch_91">
    <path clip-path="url(#p340a566579)" d="M 407.947658 179841.683288 
L 411.512157 179841.683288 
L 411.512157 179841.683288 
L 407.947658 179841.683288 
z
" style="fill:#1f77b4;"/>
   </g>
   <g id="patch_92">
    <path clip-path="url(#p340a566579)" d="M 411.512157 179841.683288 
L 415.076656 179841.683288 
L 415.076656 179841.683288 
L 411.512157 179841.683288 
z
" style="fill:#1f77b4;"/>
   </g>
   <g id="patch_93">
    <path clip-path="url(#p340a566579)" d="M 415.076656 179841.683288 
L 418.641154 179841.683288 
L 418.641154 179841.683288 
L 415.076656 179841.683288 
z
" style="fill:#1f77b4;"/>
   </g>
   <g id="patch_94">
    <path clip-path="url(#p340a566579)" d="M 418.641154 179841.683288 
L 422.205653 179841.683288 
L 422.205653 179841.683288 
L 418.641154 179841.683288 
z
" style="fill:#1f77b4;"/>
   </g>
   <g id="patch_95">
    <path clip-path="url(#p340a566579)" d="M 422.205653 179841.683288 
L 425.770152 179841.683288 
L 425.770152 179841.683288 
L 422.205653 179841.683288 
z
" style="fill:#1f77b4;"/>
   </g>
   <g id="patch_96">
    <path clip-path="url(#p340a566579)" d="M 425.770152 179841.683288 
L 429.334651 179841.683288 
L 429.334651 179841.683288 
L 425.770152 179841.683288 
z
" style="fill:#1f77b4;"/>
   </g>
   <g id="patch_97">
    <path clip-path="url(#p340a566579)" d="M 429.334651 179841.683288 
L 432.899149 179841.683288 
L 432.899149 179841.683288 
L 429.334651 179841.683288 
z
" style="fill:#1f77b4;"/>
   </g>
   <g id="patch_98">
    <path clip-path="url(#p340a566579)" d="M 432.899149 179841.683288 
L 436.463648 179841.683288 
L 436.463648 179841.683288 
L 432.899149 179841.683288 
z
" style="fill:#1f77b4;"/>
   </g>
   <g id="patch_99">
    <path clip-path="url(#p340a566579)" d="M 436.463648 179841.683288 
L 440.028147 179841.683288 
L 440.028147 179841.683288 
L 436.463648 179841.683288 
z
" style="fill:#1f77b4;"/>
   </g>
   <g id="patch_100">
    <path clip-path="url(#p340a566579)" d="M 440.028147 179841.683288 
L 443.592646 179841.683288 
L 443.592646 179841.683288 
L 440.028147 179841.683288 
z
" style="fill:#1f77b4;"/>
   </g>
   <g id="patch_101">
    <path clip-path="url(#p340a566579)" d="M 443.592646 179841.683288 
L 447.157144 179841.683288 
L 447.157144 179841.683288 
L 443.592646 179841.683288 
z
" style="fill:#1f77b4;"/>
   </g>
   <g id="matplotlib.axis_1">
    <g id="xtick_1">
     <g id="line2d_1">
      <defs>
       <path d="M 0 0 
L 0 3.5 
" id="m22ba6c4acf" style="stroke:#000000;stroke-width:0.8;"/>
      </defs>
      <g>
       <use style="stroke:#000000;stroke-width:0.8;" x="94.271769" xlink:href="#m22ba6c4acf" y="442.08"/>
      </g>
     </g>
     <g id="text_1">
      <!-- $\mathdefault{10^{0}}$ -->
      <defs>
       <path d="M 12.40625 8.296875 
L 28.515625 8.296875 
L 28.515625 63.921875 
L 10.984375 60.40625 
L 10.984375 69.390625 
L 28.421875 72.90625 
L 38.28125 72.90625 
L 38.28125 8.296875 
L 54.390625 8.296875 
L 54.390625 0 
L 12.40625 0 
z
" id="DejaVuSans-49"/>
       <path d="M 31.78125 66.40625 
Q 24.171875 66.40625 20.328125 58.90625 
Q 16.5 51.421875 16.5 36.375 
Q 16.5 21.390625 20.328125 13.890625 
Q 24.171875 6.390625 31.78125 6.390625 
Q 39.453125 6.390625 43.28125 13.890625 
Q 47.125 21.390625 47.125 36.375 
Q 47.125 51.421875 43.28125 58.90625 
Q 39.453125 66.40625 31.78125 66.40625 
z
M 31.78125 74.21875 
Q 44.046875 74.21875 50.515625 64.515625 
Q 56.984375 54.828125 56.984375 36.375 
Q 56.984375 17.96875 50.515625 8.265625 
Q 44.046875 -1.421875 31.78125 -1.421875 
Q 19.53125 -1.421875 13.0625 8.265625 
Q 6.59375 17.96875 6.59375 36.375 
Q 6.59375 54.828125 13.0625 64.515625 
Q 19.53125 74.21875 31.78125 74.21875 
z
" id="DejaVuSans-48"/>
      </defs>
      <g transform="translate(76.671769 464.276875)scale(0.2 -0.2)">
       <use transform="translate(0 0.765625)" xlink:href="#DejaVuSans-49"/>
       <use transform="translate(63.623047 0.765625)" xlink:href="#DejaVuSans-48"/>
       <use transform="translate(128.203125 39.046875)scale(0.7)" xlink:href="#DejaVuSans-48"/>
      </g>
     </g>
    </g>
    <g id="xtick_2">
     <g id="line2d_2">
      <g>
       <use style="stroke:#000000;stroke-width:0.8;" x="182.493113" xlink:href="#m22ba6c4acf" y="442.08"/>
      </g>
     </g>
     <g id="text_2">
      <!-- $\mathdefault{10^{1}}$ -->
      <g transform="translate(164.893113 464.276875)scale(0.2 -0.2)">
       <use transform="translate(0 0.684375)" xlink:href="#DejaVuSans-49"/>
       <use transform="translate(63.623047 0.684375)" xlink:href="#DejaVuSans-48"/>
       <use transform="translate(128.203125 38.965625)scale(0.7)" xlink:href="#DejaVuSans-49"/>
      </g>
     </g>
    </g>
    <g id="xtick_3">
     <g id="line2d_3">
      <g>
       <use style="stroke:#000000;stroke-width:0.8;" x="270.714457" xlink:href="#m22ba6c4acf" y="442.08"/>
      </g>
     </g>
     <g id="text_3">
      <!-- $\mathdefault{10^{2}}$ -->
      <defs>
       <path d="M 19.1875 8.296875 
L 53.609375 8.296875 
L 53.609375 0 
L 7.328125 0 
L 7.328125 8.296875 
Q 12.9375 14.109375 22.625 23.890625 
Q 32.328125 33.6875 34.8125 36.53125 
Q 39.546875 41.84375 41.421875 45.53125 
Q 43.3125 49.21875 43.3125 52.78125 
Q 43.3125 58.59375 39.234375 62.25 
Q 35.15625 65.921875 28.609375 65.921875 
Q 23.96875 65.921875 18.8125 64.3125 
Q 13.671875 62.703125 7.8125 59.421875 
L 7.8125 69.390625 
Q 13.765625 71.78125 18.9375 73 
Q 24.125 74.21875 28.421875 74.21875 
Q 39.75 74.21875 46.484375 68.546875 
Q 53.21875 62.890625 53.21875 53.421875 
Q 53.21875 48.921875 51.53125 44.890625 
Q 49.859375 40.875 45.40625 35.40625 
Q 44.1875 33.984375 37.640625 27.21875 
Q 31.109375 20.453125 19.1875 8.296875 
z
" id="DejaVuSans-50"/>
      </defs>
      <g transform="translate(253.114457 464.276875)scale(0.2 -0.2)">
       <use transform="translate(0 0.765625)" xlink:href="#DejaVuSans-49"/>
       <use transform="translate(63.623047 0.765625)" xlink:href="#DejaVuSans-48"/>
       <use transform="translate(128.203125 39.046875)scale(0.7)" xlink:href="#DejaVuSans-50"/>
      </g>
     </g>
    </g>
    <g id="xtick_4">
     <g id="line2d_4">
      <g>
       <use style="stroke:#000000;stroke-width:0.8;" x="358.9358" xlink:href="#m22ba6c4acf" y="442.08"/>
      </g>
     </g>
     <g id="text_4">
      <!-- $\mathdefault{10^{3}}$ -->
      <defs>
       <path d="M 40.578125 39.3125 
Q 47.65625 37.796875 51.625 33 
Q 55.609375 28.21875 55.609375 21.1875 
Q 55.609375 10.40625 48.1875 4.484375 
Q 40.765625 -1.421875 27.09375 -1.421875 
Q 22.515625 -1.421875 17.65625 -0.515625 
Q 12.796875 0.390625 7.625 2.203125 
L 7.625 11.71875 
Q 11.71875 9.328125 16.59375 8.109375 
Q 21.484375 6.890625 26.8125 6.890625 
Q 36.078125 6.890625 40.9375 10.546875 
Q 45.796875 14.203125 45.796875 21.1875 
Q 45.796875 27.640625 41.28125 31.265625 
Q 36.765625 34.90625 28.71875 34.90625 
L 20.21875 34.90625 
L 20.21875 43.015625 
L 29.109375 43.015625 
Q 36.375 43.015625 40.234375 45.921875 
Q 44.09375 48.828125 44.09375 54.296875 
Q 44.09375 59.90625 40.109375 62.90625 
Q 36.140625 65.921875 28.71875 65.921875 
Q 24.65625 65.921875 20.015625 65.03125 
Q 15.375 64.15625 9.8125 62.3125 
L 9.8125 71.09375 
Q 15.4375 72.65625 20.34375 73.4375 
Q 25.25 74.21875 29.59375 74.21875 
Q 40.828125 74.21875 47.359375 69.109375 
Q 53.90625 64.015625 53.90625 55.328125 
Q 53.90625 49.265625 50.4375 45.09375 
Q 46.96875 40.921875 40.578125 39.3125 
z
" id="DejaVuSans-51"/>
      </defs>
      <g transform="translate(341.3358 464.276875)scale(0.2 -0.2)">
       <use transform="translate(0 0.765625)" xlink:href="#DejaVuSans-49"/>
       <use transform="translate(63.623047 0.765625)" xlink:href="#DejaVuSans-48"/>
       <use transform="translate(128.203125 39.046875)scale(0.7)" xlink:href="#DejaVuSans-51"/>
      </g>
     </g>
    </g>
    <g id="xtick_5">
     <g id="line2d_5">
      <g>
       <use style="stroke:#000000;stroke-width:0.8;" x="447.157144" xlink:href="#m22ba6c4acf" y="442.08"/>
      </g>
     </g>
     <g id="text_5">
      <!-- $\mathdefault{10^{4}}$ -->
      <defs>
       <path d="M 37.796875 64.3125 
L 12.890625 25.390625 
L 37.796875 25.390625 
z
M 35.203125 72.90625 
L 47.609375 72.90625 
L 47.609375 25.390625 
L 58.015625 25.390625 
L 58.015625 17.1875 
L 47.609375 17.1875 
L 47.609375 0 
L 37.796875 0 
L 37.796875 17.1875 
L 4.890625 17.1875 
L 4.890625 26.703125 
z
" id="DejaVuSans-52"/>
      </defs>
      <g transform="translate(429.557144 464.276875)scale(0.2 -0.2)">
       <use transform="translate(0 0.684375)" xlink:href="#DejaVuSans-49"/>
       <use transform="translate(63.623047 0.684375)" xlink:href="#DejaVuSans-48"/>
       <use transform="translate(128.203125 38.965625)scale(0.7)" xlink:href="#DejaVuSans-52"/>
      </g>
     </g>
    </g>
    <g id="xtick_6">
     <g id="line2d_6">
      <defs>
       <path d="M 0 0 
L 0 2 
" id="m621b823a0b" style="stroke:#000000;stroke-width:0.6;"/>
      </defs>
      <g>
       <use style="stroke:#000000;stroke-width:0.6;" x="80.60611" xlink:href="#m621b823a0b" y="442.08"/>
      </g>
     </g>
    </g>
    <g id="xtick_7">
     <g id="line2d_7">
      <g>
       <use style="stroke:#000000;stroke-width:0.6;" x="85.722237" xlink:href="#m621b823a0b" y="442.08"/>
      </g>
     </g>
    </g>
    <g id="xtick_8">
     <g id="line2d_8">
      <g>
       <use style="stroke:#000000;stroke-width:0.6;" x="90.234981" xlink:href="#m621b823a0b" y="442.08"/>
      </g>
     </g>
    </g>
    <g id="xtick_9">
     <g id="line2d_9">
      <g>
       <use style="stroke:#000000;stroke-width:0.6;" x="120.82904" xlink:href="#m621b823a0b" y="442.08"/>
      </g>
     </g>
    </g>
    <g id="xtick_10">
     <g id="line2d_10">
      <g>
       <use style="stroke:#000000;stroke-width:0.6;" x="136.364047" xlink:href="#m621b823a0b" y="442.08"/>
      </g>
     </g>
    </g>
    <g id="xtick_11">
     <g id="line2d_11">
      <g>
       <use style="stroke:#000000;stroke-width:0.6;" x="147.38631" xlink:href="#m621b823a0b" y="442.08"/>
      </g>
     </g>
    </g>
    <g id="xtick_12">
     <g id="line2d_12">
      <g>
       <use style="stroke:#000000;stroke-width:0.6;" x="155.935842" xlink:href="#m621b823a0b" y="442.08"/>
      </g>
     </g>
    </g>
    <g id="xtick_13">
     <g id="line2d_13">
      <g>
       <use style="stroke:#000000;stroke-width:0.6;" x="162.921318" xlink:href="#m621b823a0b" y="442.08"/>
      </g>
     </g>
    </g>
    <g id="xtick_14">
     <g id="line2d_14">
      <g>
       <use style="stroke:#000000;stroke-width:0.6;" x="168.827454" xlink:href="#m621b823a0b" y="442.08"/>
      </g>
     </g>
    </g>
    <g id="xtick_15">
     <g id="line2d_15">
      <g>
       <use style="stroke:#000000;stroke-width:0.6;" x="173.943581" xlink:href="#m621b823a0b" y="442.08"/>
      </g>
     </g>
    </g>
    <g id="xtick_16">
     <g id="line2d_16">
      <g>
       <use style="stroke:#000000;stroke-width:0.6;" x="178.456325" xlink:href="#m621b823a0b" y="442.08"/>
      </g>
     </g>
    </g>
    <g id="xtick_17">
     <g id="line2d_17">
      <g>
       <use style="stroke:#000000;stroke-width:0.6;" x="209.050383" xlink:href="#m621b823a0b" y="442.08"/>
      </g>
     </g>
    </g>
    <g id="xtick_18">
     <g id="line2d_18">
      <g>
       <use style="stroke:#000000;stroke-width:0.6;" x="224.585391" xlink:href="#m621b823a0b" y="442.08"/>
      </g>
     </g>
    </g>
    <g id="xtick_19">
     <g id="line2d_19">
      <g>
       <use style="stroke:#000000;stroke-width:0.6;" x="235.607654" xlink:href="#m621b823a0b" y="442.08"/>
      </g>
     </g>
    </g>
    <g id="xtick_20">
     <g id="line2d_20">
      <g>
       <use style="stroke:#000000;stroke-width:0.6;" x="244.157186" xlink:href="#m621b823a0b" y="442.08"/>
      </g>
     </g>
    </g>
    <g id="xtick_21">
     <g id="line2d_21">
      <g>
       <use style="stroke:#000000;stroke-width:0.6;" x="251.142662" xlink:href="#m621b823a0b" y="442.08"/>
      </g>
     </g>
    </g>
    <g id="xtick_22">
     <g id="line2d_22">
      <g>
       <use style="stroke:#000000;stroke-width:0.6;" x="257.048797" xlink:href="#m621b823a0b" y="442.08"/>
      </g>
     </g>
    </g>
    <g id="xtick_23">
     <g id="line2d_23">
      <g>
       <use style="stroke:#000000;stroke-width:0.6;" x="262.164925" xlink:href="#m621b823a0b" y="442.08"/>
      </g>
     </g>
    </g>
    <g id="xtick_24">
     <g id="line2d_24">
      <g>
       <use style="stroke:#000000;stroke-width:0.6;" x="266.677669" xlink:href="#m621b823a0b" y="442.08"/>
      </g>
     </g>
    </g>
    <g id="xtick_25">
     <g id="line2d_25">
      <g>
       <use style="stroke:#000000;stroke-width:0.6;" x="297.271727" xlink:href="#m621b823a0b" y="442.08"/>
      </g>
     </g>
    </g>
    <g id="xtick_26">
     <g id="line2d_26">
      <g>
       <use style="stroke:#000000;stroke-width:0.6;" x="312.806735" xlink:href="#m621b823a0b" y="442.08"/>
      </g>
     </g>
    </g>
    <g id="xtick_27">
     <g id="line2d_27">
      <g>
       <use style="stroke:#000000;stroke-width:0.6;" x="323.828998" xlink:href="#m621b823a0b" y="442.08"/>
      </g>
     </g>
    </g>
    <g id="xtick_28">
     <g id="line2d_28">
      <g>
       <use style="stroke:#000000;stroke-width:0.6;" x="332.37853" xlink:href="#m621b823a0b" y="442.08"/>
      </g>
     </g>
    </g>
    <g id="xtick_29">
     <g id="line2d_29">
      <g>
       <use style="stroke:#000000;stroke-width:0.6;" x="339.364006" xlink:href="#m621b823a0b" y="442.08"/>
      </g>
     </g>
    </g>
    <g id="xtick_30">
     <g id="line2d_30">
      <g>
       <use style="stroke:#000000;stroke-width:0.6;" x="345.270141" xlink:href="#m621b823a0b" y="442.08"/>
      </g>
     </g>
    </g>
    <g id="xtick_31">
     <g id="line2d_31">
      <g>
       <use style="stroke:#000000;stroke-width:0.6;" x="350.386269" xlink:href="#m621b823a0b" y="442.08"/>
      </g>
     </g>
    </g>
    <g id="xtick_32">
     <g id="line2d_32">
      <g>
       <use style="stroke:#000000;stroke-width:0.6;" x="354.899013" xlink:href="#m621b823a0b" y="442.08"/>
      </g>
     </g>
    </g>
    <g id="xtick_33">
     <g id="line2d_33">
      <g>
       <use style="stroke:#000000;stroke-width:0.6;" x="385.493071" xlink:href="#m621b823a0b" y="442.08"/>
      </g>
     </g>
    </g>
    <g id="xtick_34">
     <g id="line2d_34">
      <g>
       <use style="stroke:#000000;stroke-width:0.6;" x="401.028079" xlink:href="#m621b823a0b" y="442.08"/>
      </g>
     </g>
    </g>
    <g id="xtick_35">
     <g id="line2d_35">
      <g>
       <use style="stroke:#000000;stroke-width:0.6;" x="412.050342" xlink:href="#m621b823a0b" y="442.08"/>
      </g>
     </g>
    </g>
    <g id="xtick_36">
     <g id="line2d_36">
      <g>
       <use style="stroke:#000000;stroke-width:0.6;" x="420.599874" xlink:href="#m621b823a0b" y="442.08"/>
      </g>
     </g>
    </g>
    <g id="xtick_37">
     <g id="line2d_37">
      <g>
       <use style="stroke:#000000;stroke-width:0.6;" x="427.585349" xlink:href="#m621b823a0b" y="442.08"/>
      </g>
     </g>
    </g>
    <g id="xtick_38">
     <g id="line2d_38">
      <g>
       <use style="stroke:#000000;stroke-width:0.6;" x="433.491485" xlink:href="#m621b823a0b" y="442.08"/>
      </g>
     </g>
    </g>
    <g id="xtick_39">
     <g id="line2d_39">
      <g>
       <use style="stroke:#000000;stroke-width:0.6;" x="438.607613" xlink:href="#m621b823a0b" y="442.08"/>
      </g>
     </g>
    </g>
    <g id="xtick_40">
     <g id="line2d_40">
      <g>
       <use style="stroke:#000000;stroke-width:0.6;" x="443.120357" xlink:href="#m621b823a0b" y="442.08"/>
      </g>
     </g>
    </g>
    <g id="text_6">
     <!-- Period (d) -->
     <defs>
      <path d="M 19.671875 64.796875 
L 19.671875 37.40625 
L 32.078125 37.40625 
Q 38.96875 37.40625 42.71875 40.96875 
Q 46.484375 44.53125 46.484375 51.125 
Q 46.484375 57.671875 42.71875 61.234375 
Q 38.96875 64.796875 32.078125 64.796875 
z
M 9.8125 72.90625 
L 32.078125 72.90625 
Q 44.34375 72.90625 50.609375 67.359375 
Q 56.890625 61.8125 56.890625 51.125 
Q 56.890625 40.328125 50.609375 34.8125 
Q 44.34375 29.296875 32.078125 29.296875 
L 19.671875 29.296875 
L 19.671875 0 
L 9.8125 0 
z
" id="DejaVuSans-80"/>
      <path d="M 56.203125 29.59375 
L 56.203125 25.203125 
L 14.890625 25.203125 
Q 15.484375 15.921875 20.484375 11.0625 
Q 25.484375 6.203125 34.421875 6.203125 
Q 39.59375 6.203125 44.453125 7.46875 
Q 49.3125 8.734375 54.109375 11.28125 
L 54.109375 2.78125 
Q 49.265625 0.734375 44.1875 -0.34375 
Q 39.109375 -1.421875 33.890625 -1.421875 
Q 20.796875 -1.421875 13.15625 6.1875 
Q 5.515625 13.8125 5.515625 26.8125 
Q 5.515625 40.234375 12.765625 48.109375 
Q 20.015625 56 32.328125 56 
Q 43.359375 56 49.78125 48.890625 
Q 56.203125 41.796875 56.203125 29.59375 
z
M 47.21875 32.234375 
Q 47.125 39.59375 43.09375 43.984375 
Q 39.0625 48.390625 32.421875 48.390625 
Q 24.90625 48.390625 20.390625 44.140625 
Q 15.875 39.890625 15.1875 32.171875 
z
" id="DejaVuSans-101"/>
      <path d="M 41.109375 46.296875 
Q 39.59375 47.171875 37.8125 47.578125 
Q 36.03125 48 33.890625 48 
Q 26.265625 48 22.1875 43.046875 
Q 18.109375 38.09375 18.109375 28.8125 
L 18.109375 0 
L 9.078125 0 
L 9.078125 54.6875 
L 18.109375 54.6875 
L 18.109375 46.1875 
Q 20.953125 51.171875 25.484375 53.578125 
Q 30.03125 56 36.53125 56 
Q 37.453125 56 38.578125 55.875 
Q 39.703125 55.765625 41.0625 55.515625 
z
" id="DejaVuSans-114"/>
      <path d="M 9.421875 54.6875 
L 18.40625 54.6875 
L 18.40625 0 
L 9.421875 0 
z
M 9.421875 75.984375 
L 18.40625 75.984375 
L 18.40625 64.59375 
L 9.421875 64.59375 
z
" id="DejaVuSans-105"/>
      <path d="M 30.609375 48.390625 
Q 23.390625 48.390625 19.1875 42.75 
Q 14.984375 37.109375 14.984375 27.296875 
Q 14.984375 17.484375 19.15625 11.84375 
Q 23.34375 6.203125 30.609375 6.203125 
Q 37.796875 6.203125 41.984375 11.859375 
Q 46.1875 17.53125 46.1875 27.296875 
Q 46.1875 37.015625 41.984375 42.703125 
Q 37.796875 48.390625 30.609375 48.390625 
z
M 30.609375 56 
Q 42.328125 56 49.015625 48.375 
Q 55.71875 40.765625 55.71875 27.296875 
Q 55.71875 13.875 49.015625 6.21875 
Q 42.328125 -1.421875 30.609375 -1.421875 
Q 18.84375 -1.421875 12.171875 6.21875 
Q 5.515625 13.875 5.515625 27.296875 
Q 5.515625 40.765625 12.171875 48.375 
Q 18.84375 56 30.609375 56 
z
" id="DejaVuSans-111"/>
      <path d="M 45.40625 46.390625 
L 45.40625 75.984375 
L 54.390625 75.984375 
L 54.390625 0 
L 45.40625 0 
L 45.40625 8.203125 
Q 42.578125 3.328125 38.25 0.953125 
Q 33.9375 -1.421875 27.875 -1.421875 
Q 17.96875 -1.421875 11.734375 6.484375 
Q 5.515625 14.40625 5.515625 27.296875 
Q 5.515625 40.1875 11.734375 48.09375 
Q 17.96875 56 27.875 56 
Q 33.9375 56 38.25 53.625 
Q 42.578125 51.265625 45.40625 46.390625 
z
M 14.796875 27.296875 
Q 14.796875 17.390625 18.875 11.75 
Q 22.953125 6.109375 30.078125 6.109375 
Q 37.203125 6.109375 41.296875 11.75 
Q 45.40625 17.390625 45.40625 27.296875 
Q 45.40625 37.203125 41.296875 42.84375 
Q 37.203125 48.484375 30.078125 48.484375 
Q 22.953125 48.484375 18.875 42.84375 
Q 14.796875 37.203125 14.796875 27.296875 
z
" id="DejaVuSans-100"/>
      <path id="DejaVuSans-32"/>
      <path d="M 31 75.875 
Q 24.46875 64.65625 21.28125 53.65625 
Q 18.109375 42.671875 18.109375 31.390625 
Q 18.109375 20.125 21.3125 9.0625 
Q 24.515625 -2 31 -13.1875 
L 23.1875 -13.1875 
Q 15.875 -1.703125 12.234375 9.375 
Q 8.59375 20.453125 8.59375 31.390625 
Q 8.59375 42.28125 12.203125 53.3125 
Q 15.828125 64.359375 23.1875 75.875 
z
" id="DejaVuSans-40"/>
      <path d="M 8.015625 75.875 
L 15.828125 75.875 
Q 23.140625 64.359375 26.78125 53.3125 
Q 30.421875 42.28125 30.421875 31.390625 
Q 30.421875 20.453125 26.78125 9.375 
Q 23.140625 -1.703125 15.828125 -13.1875 
L 8.015625 -13.1875 
Q 14.5 -2 17.703125 9.0625 
Q 20.90625 20.125 20.90625 31.390625 
Q 20.90625 42.671875 17.703125 53.65625 
Q 14.5 64.65625 8.015625 75.875 
z
" id="DejaVuSans-41"/>
     </defs>
     <g transform="translate(212.506957 490.6725)scale(0.24 -0.24)">
      <use xlink:href="#DejaVuSans-80"/>
      <use x="56.677734" xlink:href="#DejaVuSans-101"/>
      <use x="118.201172" xlink:href="#DejaVuSans-114"/>
      <use x="159.314453" xlink:href="#DejaVuSans-105"/>
      <use x="187.097656" xlink:href="#DejaVuSans-111"/>
      <use x="248.279297" xlink:href="#DejaVuSans-100"/>
      <use x="311.755859" xlink:href="#DejaVuSans-32"/>
      <use x="343.542969" xlink:href="#DejaVuSans-40"/>
      <use x="382.556641" xlink:href="#DejaVuSans-100"/>
      <use x="446.033203" xlink:href="#DejaVuSans-41"/>
     </g>
    </g>
   </g>
   <g id="matplotlib.axis_2">
    <g id="ytick_1">
     <g id="line2d_41">
      <defs>
       <path d="M 0 0 
L -3.5 0 
" id="m770e21b810" style="stroke:#000000;stroke-width:0.8;"/>
      </defs>
      <g>
       <use style="stroke:#000000;stroke-width:0.8;" x="76.6275" xlink:href="#m770e21b810" y="350.957541"/>
      </g>
     </g>
     <g id="text_7">
      <!-- $\mathdefault{10^{1}}$ -->
      <g transform="translate(34.4275 358.555979)scale(0.2 -0.2)">
       <use transform="translate(0 0.684375)" xlink:href="#DejaVuSans-49"/>
       <use transform="translate(63.623047 0.684375)" xlink:href="#DejaVuSans-48"/>
       <use transform="translate(128.203125 38.965625)scale(0.7)" xlink:href="#DejaVuSans-49"/>
      </g>
     </g>
    </g>
    <g id="ytick_2">
     <g id="line2d_42">
      <g>
       <use style="stroke:#000000;stroke-width:0.8;" x="76.6275" xlink:href="#m770e21b810" y="171.646127"/>
      </g>
     </g>
     <g id="text_8">
      <!-- $\mathdefault{10^{2}}$ -->
      <g transform="translate(34.4275 179.244565)scale(0.2 -0.2)">
       <use transform="translate(0 0.765625)" xlink:href="#DejaVuSans-49"/>
       <use transform="translate(63.623047 0.765625)" xlink:href="#DejaVuSans-48"/>
       <use transform="translate(128.203125 39.046875)scale(0.7)" xlink:href="#DejaVuSans-50"/>
      </g>
     </g>
    </g>
    <g id="ytick_3">
     <g id="line2d_43">
      <defs>
       <path d="M 0 0 
L -2 0 
" id="m9e4d2eed12" style="stroke:#000000;stroke-width:0.6;"/>
      </defs>
      <g>
       <use style="stroke:#000000;stroke-width:0.6;" x="76.6275" xlink:href="#m9e4d2eed12" y="422.312727"/>
      </g>
     </g>
    </g>
    <g id="ytick_4">
     <g id="line2d_44">
      <g>
       <use style="stroke:#000000;stroke-width:0.6;" x="76.6275" xlink:href="#m9e4d2eed12" y="404.935656"/>
      </g>
     </g>
    </g>
    <g id="ytick_5">
     <g id="line2d_45">
      <g>
       <use style="stroke:#000000;stroke-width:0.6;" x="76.6275" xlink:href="#m9e4d2eed12" y="390.737555"/>
      </g>
     </g>
    </g>
    <g id="ytick_6">
     <g id="line2d_46">
      <g>
       <use style="stroke:#000000;stroke-width:0.6;" x="76.6275" xlink:href="#m9e4d2eed12" y="378.733231"/>
      </g>
     </g>
    </g>
    <g id="ytick_7">
     <g id="line2d_47">
      <g>
       <use style="stroke:#000000;stroke-width:0.6;" x="76.6275" xlink:href="#m9e4d2eed12" y="368.334613"/>
      </g>
     </g>
    </g>
    <g id="ytick_8">
     <g id="line2d_48">
      <g>
       <use style="stroke:#000000;stroke-width:0.6;" x="76.6275" xlink:href="#m9e4d2eed12" y="359.162382"/>
      </g>
     </g>
    </g>
    <g id="ytick_9">
     <g id="line2d_49">
      <g>
       <use style="stroke:#000000;stroke-width:0.6;" x="76.6275" xlink:href="#m9e4d2eed12" y="296.979427"/>
      </g>
     </g>
    </g>
    <g id="ytick_10">
     <g id="line2d_50">
      <g>
       <use style="stroke:#000000;stroke-width:0.6;" x="76.6275" xlink:href="#m9e4d2eed12" y="265.404255"/>
      </g>
     </g>
    </g>
    <g id="ytick_11">
     <g id="line2d_51">
      <g>
       <use style="stroke:#000000;stroke-width:0.6;" x="76.6275" xlink:href="#m9e4d2eed12" y="243.001313"/>
      </g>
     </g>
    </g>
    <g id="ytick_12">
     <g id="line2d_52">
      <g>
       <use style="stroke:#000000;stroke-width:0.6;" x="76.6275" xlink:href="#m9e4d2eed12" y="225.624241"/>
      </g>
     </g>
    </g>
    <g id="ytick_13">
     <g id="line2d_53">
      <g>
       <use style="stroke:#000000;stroke-width:0.6;" x="76.6275" xlink:href="#m9e4d2eed12" y="211.42614"/>
      </g>
     </g>
    </g>
    <g id="ytick_14">
     <g id="line2d_54">
      <g>
       <use style="stroke:#000000;stroke-width:0.6;" x="76.6275" xlink:href="#m9e4d2eed12" y="199.421817"/>
      </g>
     </g>
    </g>
    <g id="ytick_15">
     <g id="line2d_55">
      <g>
       <use style="stroke:#000000;stroke-width:0.6;" x="76.6275" xlink:href="#m9e4d2eed12" y="189.023199"/>
      </g>
     </g>
    </g>
    <g id="ytick_16">
     <g id="line2d_56">
      <g>
       <use style="stroke:#000000;stroke-width:0.6;" x="76.6275" xlink:href="#m9e4d2eed12" y="179.850968"/>
      </g>
     </g>
    </g>
    <g id="ytick_17">
     <g id="line2d_57">
      <g>
       <use style="stroke:#000000;stroke-width:0.6;" x="76.6275" xlink:href="#m9e4d2eed12" y="117.668013"/>
      </g>
     </g>
    </g>
    <g id="ytick_18">
     <g id="line2d_58">
      <g>
       <use style="stroke:#000000;stroke-width:0.6;" x="76.6275" xlink:href="#m9e4d2eed12" y="86.09284"/>
      </g>
     </g>
    </g>
    <g id="ytick_19">
     <g id="line2d_59">
      <g>
       <use style="stroke:#000000;stroke-width:0.6;" x="76.6275" xlink:href="#m9e4d2eed12" y="63.689899"/>
      </g>
     </g>
    </g>
    <g id="ytick_20">
     <g id="line2d_60">
      <g>
       <use style="stroke:#000000;stroke-width:0.6;" x="76.6275" xlink:href="#m9e4d2eed12" y="46.312827"/>
      </g>
     </g>
    </g>
    <g id="ytick_21">
     <g id="line2d_61">
      <g>
       <use style="stroke:#000000;stroke-width:0.6;" x="76.6275" xlink:href="#m9e4d2eed12" y="32.114726"/>
      </g>
     </g>
    </g>
    <g id="ytick_22">
     <g id="line2d_62">
      <g>
       <use style="stroke:#000000;stroke-width:0.6;" x="76.6275" xlink:href="#m9e4d2eed12" y="20.110402"/>
      </g>
     </g>
    </g>
    <g id="ytick_23">
     <g id="line2d_63">
      <g>
       <use style="stroke:#000000;stroke-width:0.6;" x="76.6275" xlink:href="#m9e4d2eed12" y="9.711784"/>
      </g>
     </g>
    </g>
    <g id="text_9">
     <!-- Number of planets -->
     <defs>
      <path d="M 9.8125 72.90625 
L 23.09375 72.90625 
L 55.421875 11.921875 
L 55.421875 72.90625 
L 64.984375 72.90625 
L 64.984375 0 
L 51.703125 0 
L 19.390625 60.984375 
L 19.390625 0 
L 9.8125 0 
z
" id="DejaVuSans-78"/>
      <path d="M 8.5 21.578125 
L 8.5 54.6875 
L 17.484375 54.6875 
L 17.484375 21.921875 
Q 17.484375 14.15625 20.5 10.265625 
Q 23.53125 6.390625 29.59375 6.390625 
Q 36.859375 6.390625 41.078125 11.03125 
Q 45.3125 15.671875 45.3125 23.6875 
L 45.3125 54.6875 
L 54.296875 54.6875 
L 54.296875 0 
L 45.3125 0 
L 45.3125 8.40625 
Q 42.046875 3.421875 37.71875 1 
Q 33.40625 -1.421875 27.6875 -1.421875 
Q 18.265625 -1.421875 13.375 4.4375 
Q 8.5 10.296875 8.5 21.578125 
z
M 31.109375 56 
z
" id="DejaVuSans-117"/>
      <path d="M 52 44.1875 
Q 55.375 50.25 60.0625 53.125 
Q 64.75 56 71.09375 56 
Q 79.640625 56 84.28125 50.015625 
Q 88.921875 44.046875 88.921875 33.015625 
L 88.921875 0 
L 79.890625 0 
L 79.890625 32.71875 
Q 79.890625 40.578125 77.09375 44.375 
Q 74.3125 48.1875 68.609375 48.1875 
Q 61.625 48.1875 57.5625 43.546875 
Q 53.515625 38.921875 53.515625 30.90625 
L 53.515625 0 
L 44.484375 0 
L 44.484375 32.71875 
Q 44.484375 40.625 41.703125 44.40625 
Q 38.921875 48.1875 33.109375 48.1875 
Q 26.21875 48.1875 22.15625 43.53125 
Q 18.109375 38.875 18.109375 30.90625 
L 18.109375 0 
L 9.078125 0 
L 9.078125 54.6875 
L 18.109375 54.6875 
L 18.109375 46.1875 
Q 21.1875 51.21875 25.484375 53.609375 
Q 29.78125 56 35.6875 56 
Q 41.65625 56 45.828125 52.96875 
Q 50 49.953125 52 44.1875 
z
" id="DejaVuSans-109"/>
      <path d="M 48.6875 27.296875 
Q 48.6875 37.203125 44.609375 42.84375 
Q 40.53125 48.484375 33.40625 48.484375 
Q 26.265625 48.484375 22.1875 42.84375 
Q 18.109375 37.203125 18.109375 27.296875 
Q 18.109375 17.390625 22.1875 11.75 
Q 26.265625 6.109375 33.40625 6.109375 
Q 40.53125 6.109375 44.609375 11.75 
Q 48.6875 17.390625 48.6875 27.296875 
z
M 18.109375 46.390625 
Q 20.953125 51.265625 25.265625 53.625 
Q 29.59375 56 35.59375 56 
Q 45.5625 56 51.78125 48.09375 
Q 58.015625 40.1875 58.015625 27.296875 
Q 58.015625 14.40625 51.78125 6.484375 
Q 45.5625 -1.421875 35.59375 -1.421875 
Q 29.59375 -1.421875 25.265625 0.953125 
Q 20.953125 3.328125 18.109375 8.203125 
L 18.109375 0 
L 9.078125 0 
L 9.078125 75.984375 
L 18.109375 75.984375 
z
" id="DejaVuSans-98"/>
      <path d="M 37.109375 75.984375 
L 37.109375 68.5 
L 28.515625 68.5 
Q 23.6875 68.5 21.796875 66.546875 
Q 19.921875 64.59375 19.921875 59.515625 
L 19.921875 54.6875 
L 34.71875 54.6875 
L 34.71875 47.703125 
L 19.921875 47.703125 
L 19.921875 0 
L 10.890625 0 
L 10.890625 47.703125 
L 2.296875 47.703125 
L 2.296875 54.6875 
L 10.890625 54.6875 
L 10.890625 58.5 
Q 10.890625 67.625 15.140625 71.796875 
Q 19.390625 75.984375 28.609375 75.984375 
z
" id="DejaVuSans-102"/>
      <path d="M 18.109375 8.203125 
L 18.109375 -20.796875 
L 9.078125 -20.796875 
L 9.078125 54.6875 
L 18.109375 54.6875 
L 18.109375 46.390625 
Q 20.953125 51.265625 25.265625 53.625 
Q 29.59375 56 35.59375 56 
Q 45.5625 56 51.78125 48.09375 
Q 58.015625 40.1875 58.015625 27.296875 
Q 58.015625 14.40625 51.78125 6.484375 
Q 45.5625 -1.421875 35.59375 -1.421875 
Q 29.59375 -1.421875 25.265625 0.953125 
Q 20.953125 3.328125 18.109375 8.203125 
z
M 48.6875 27.296875 
Q 48.6875 37.203125 44.609375 42.84375 
Q 40.53125 48.484375 33.40625 48.484375 
Q 26.265625 48.484375 22.1875 42.84375 
Q 18.109375 37.203125 18.109375 27.296875 
Q 18.109375 17.390625 22.1875 11.75 
Q 26.265625 6.109375 33.40625 6.109375 
Q 40.53125 6.109375 44.609375 11.75 
Q 48.6875 17.390625 48.6875 27.296875 
z
" id="DejaVuSans-112"/>
      <path d="M 9.421875 75.984375 
L 18.40625 75.984375 
L 18.40625 0 
L 9.421875 0 
z
" id="DejaVuSans-108"/>
      <path d="M 34.28125 27.484375 
Q 23.390625 27.484375 19.1875 25 
Q 14.984375 22.515625 14.984375 16.5 
Q 14.984375 11.71875 18.140625 8.90625 
Q 21.296875 6.109375 26.703125 6.109375 
Q 34.1875 6.109375 38.703125 11.40625 
Q 43.21875 16.703125 43.21875 25.484375 
L 43.21875 27.484375 
z
M 52.203125 31.203125 
L 52.203125 0 
L 43.21875 0 
L 43.21875 8.296875 
Q 40.140625 3.328125 35.546875 0.953125 
Q 30.953125 -1.421875 24.3125 -1.421875 
Q 15.921875 -1.421875 10.953125 3.296875 
Q 6 8.015625 6 15.921875 
Q 6 25.140625 12.171875 29.828125 
Q 18.359375 34.515625 30.609375 34.515625 
L 43.21875 34.515625 
L 43.21875 35.40625 
Q 43.21875 41.609375 39.140625 45 
Q 35.0625 48.390625 27.6875 48.390625 
Q 23 48.390625 18.546875 47.265625 
Q 14.109375 46.140625 10.015625 43.890625 
L 10.015625 52.203125 
Q 14.9375 54.109375 19.578125 55.046875 
Q 24.21875 56 28.609375 56 
Q 40.484375 56 46.34375 49.84375 
Q 52.203125 43.703125 52.203125 31.203125 
z
" id="DejaVuSans-97"/>
      <path d="M 54.890625 33.015625 
L 54.890625 0 
L 45.90625 0 
L 45.90625 32.71875 
Q 45.90625 40.484375 42.875 44.328125 
Q 39.84375 48.1875 33.796875 48.1875 
Q 26.515625 48.1875 22.3125 43.546875 
Q 18.109375 38.921875 18.109375 30.90625 
L 18.109375 0 
L 9.078125 0 
L 9.078125 54.6875 
L 18.109375 54.6875 
L 18.109375 46.1875 
Q 21.34375 51.125 25.703125 53.5625 
Q 30.078125 56 35.796875 56 
Q 45.21875 56 50.046875 50.171875 
Q 54.890625 44.34375 54.890625 33.015625 
z
" id="DejaVuSans-110"/>
      <path d="M 18.3125 70.21875 
L 18.3125 54.6875 
L 36.8125 54.6875 
L 36.8125 47.703125 
L 18.3125 47.703125 
L 18.3125 18.015625 
Q 18.3125 11.328125 20.140625 9.421875 
Q 21.96875 7.515625 27.59375 7.515625 
L 36.8125 7.515625 
L 36.8125 0 
L 27.59375 0 
Q 17.1875 0 13.234375 3.875 
Q 9.28125 7.765625 9.28125 18.015625 
L 9.28125 47.703125 
L 2.6875 47.703125 
L 2.6875 54.6875 
L 9.28125 54.6875 
L 9.28125 70.21875 
z
" id="DejaVuSans-116"/>
      <path d="M 44.28125 53.078125 
L 44.28125 44.578125 
Q 40.484375 46.53125 36.375 47.5 
Q 32.28125 48.484375 27.875 48.484375 
Q 21.1875 48.484375 17.84375 46.4375 
Q 14.5 44.390625 14.5 40.28125 
Q 14.5 37.15625 16.890625 35.375 
Q 19.28125 33.59375 26.515625 31.984375 
L 29.59375 31.296875 
Q 39.15625 29.25 43.1875 25.515625 
Q 47.21875 21.78125 47.21875 15.09375 
Q 47.21875 7.46875 41.1875 3.015625 
Q 35.15625 -1.421875 24.609375 -1.421875 
Q 20.21875 -1.421875 15.453125 -0.5625 
Q 10.6875 0.296875 5.421875 2 
L 5.421875 11.28125 
Q 10.40625 8.6875 15.234375 7.390625 
Q 20.0625 6.109375 24.8125 6.109375 
Q 31.15625 6.109375 34.5625 8.28125 
Q 37.984375 10.453125 37.984375 14.40625 
Q 37.984375 18.0625 35.515625 20.015625 
Q 33.0625 21.96875 24.703125 23.78125 
L 21.578125 24.515625 
Q 13.234375 26.265625 9.515625 29.90625 
Q 5.8125 33.546875 5.8125 39.890625 
Q 5.8125 47.609375 11.28125 51.796875 
Q 16.75 56 26.8125 56 
Q 31.78125 56 36.171875 55.265625 
Q 40.578125 54.546875 44.28125 53.078125 
z
" id="DejaVuSans-115"/>
     </defs>
     <g transform="translate(25.43625 336.290625)rotate(-90)scale(0.24 -0.24)">
      <use xlink:href="#DejaVuSans-78"/>
      <use x="74.804688" xlink:href="#DejaVuSans-117"/>
      <use x="138.183594" xlink:href="#DejaVuSans-109"/>
      <use x="235.595703" xlink:href="#DejaVuSans-98"/>
      <use x="299.072266" xlink:href="#DejaVuSans-101"/>
      <use x="360.595703" xlink:href="#DejaVuSans-114"/>
      <use x="401.708984" xlink:href="#DejaVuSans-32"/>
      <use x="433.496094" xlink:href="#DejaVuSans-111"/>
      <use x="494.677734" xlink:href="#DejaVuSans-102"/>
      <use x="529.882812" xlink:href="#DejaVuSans-32"/>
      <use x="561.669922" xlink:href="#DejaVuSans-112"/>
      <use x="625.146484" xlink:href="#DejaVuSans-108"/>
      <use x="652.929688" xlink:href="#DejaVuSans-97"/>
      <use x="714.208984" xlink:href="#DejaVuSans-110"/>
      <use x="777.587891" xlink:href="#DejaVuSans-101"/>
      <use x="839.111328" xlink:href="#DejaVuSans-116"/>
      <use x="878.320312" xlink:href="#DejaVuSans-115"/>
     </g>
    </g>
   </g>
   <g id="patch_102">
    <path d="M 76.6275 442.08 
L 76.6275 7.2 
" style="fill:none;stroke:#000000;stroke-linecap:square;stroke-linejoin:miter;stroke-width:0.8;"/>
   </g>
   <g id="patch_103">
    <path d="M 464.801413 442.08 
L 464.801413 7.2 
" style="fill:none;stroke:#000000;stroke-linecap:square;stroke-linejoin:miter;stroke-width:0.8;"/>
   </g>
   <g id="patch_104">
    <path d="M 76.6275 442.08 
L 464.801413 442.08 
" style="fill:none;stroke:#000000;stroke-linecap:square;stroke-linejoin:miter;stroke-width:0.8;"/>
   </g>
   <g id="patch_105">
    <path d="M 76.6275 7.2 
L 464.801413 7.2 
" style="fill:none;stroke:#000000;stroke-linecap:square;stroke-linejoin:miter;stroke-width:0.8;"/>
   </g>
  </g>
  <g id="axes_2">
   <g id="patch_106">
    <path d="M 581.253587 442.08 
L 969.4275 442.08 
L 969.4275 7.2 
L 581.253587 7.2 
z
" style="fill:#ffffff;"/>
   </g>
   <g id="patch_107">
    <path clip-path="url(#p60cbce1fb0)" d="M 598.897856 301467.633365 
L 602.462354 301467.633365 
L 602.462354 301467.633365 
L 598.897856 301467.633365 
z
" style="fill:#1f77b4;"/>
   </g>
   <g id="patch_108">
    <path clip-path="url(#p60cbce1fb0)" d="M 602.462354 301467.633365 
L 606.026853 301467.633365 
L 606.026853 301467.633365 
L 602.462354 301467.633365 
z
" style="fill:#1f77b4;"/>
   </g>
   <g id="patch_109">
    <path clip-path="url(#p60cbce1fb0)" d="M 606.026853 301467.633365 
L 609.591352 301467.633365 
L 609.591352 301467.633365 
L 606.026853 301467.633365 
z
" style="fill:#1f77b4;"/>
   </g>
   <g id="patch_110">
    <path clip-path="url(#p60cbce1fb0)" d="M 609.591352 301467.633365 
L 613.155851 301467.633365 
L 613.155851 301467.633365 
L 609.591352 301467.633365 
z
" style="fill:#1f77b4;"/>
   </g>
   <g id="patch_111">
    <path clip-path="url(#p60cbce1fb0)" d="M 613.155851 301467.633365 
L 616.720349 301467.633365 
L 616.720349 301467.633365 
L 613.155851 301467.633365 
z
" style="fill:#1f77b4;"/>
   </g>
   <g id="patch_112">
    <path clip-path="url(#p60cbce1fb0)" d="M 616.720349 301467.633365 
L 620.284848 301467.633365 
L 620.284848 301467.633365 
L 616.720349 301467.633365 
z
" style="fill:#1f77b4;"/>
   </g>
   <g id="patch_113">
    <path clip-path="url(#p60cbce1fb0)" d="M 620.284848 301467.633365 
L 623.849347 301467.633365 
L 623.849347 301467.633365 
L 620.284848 301467.633365 
z
" style="fill:#1f77b4;"/>
   </g>
   <g id="patch_114">
    <path clip-path="url(#p60cbce1fb0)" d="M 623.849347 301467.633365 
L 627.413846 301467.633365 
L 627.413846 301467.633365 
L 623.849347 301467.633365 
z
" style="fill:#1f77b4;"/>
   </g>
   <g id="patch_115">
    <path clip-path="url(#p60cbce1fb0)" d="M 627.413846 301467.633365 
L 630.978344 301467.633365 
L 630.978344 301467.633365 
L 627.413846 301467.633365 
z
" style="fill:#1f77b4;"/>
   </g>
   <g id="patch_116">
    <path clip-path="url(#p60cbce1fb0)" d="M 630.978344 301467.633365 
L 634.542843 301467.633365 
L 634.542843 301467.633365 
L 630.978344 301467.633365 
z
" style="fill:#1f77b4;"/>
   </g>
   <g id="patch_117">
    <path clip-path="url(#p60cbce1fb0)" d="M 634.542843 301467.633365 
L 638.107342 301467.633365 
L 638.107342 301467.633365 
L 634.542843 301467.633365 
z
" style="fill:#1f77b4;"/>
   </g>
   <g id="patch_118">
    <path clip-path="url(#p60cbce1fb0)" d="M 638.107342 301467.633365 
L 641.671841 301467.633365 
L 641.671841 301467.633365 
L 638.107342 301467.633365 
z
" style="fill:#1f77b4;"/>
   </g>
   <g id="patch_119">
    <path clip-path="url(#p60cbce1fb0)" d="M 641.671841 301467.633365 
L 645.236339 301467.633365 
L 645.236339 158.692288 
L 641.671841 158.692288 
z
" style="fill:#1f77b4;"/>
   </g>
   <g id="patch_120">
    <path clip-path="url(#p60cbce1fb0)" d="M 645.236339 301467.633365 
L 648.800838 301467.633365 
L 648.800838 33.450029 
L 645.236339 33.450029 
z
" style="fill:#1f77b4;"/>
   </g>
   <g id="patch_121">
    <path clip-path="url(#p60cbce1fb0)" d="M 648.800838 301467.633365 
L 652.365337 301467.633365 
L 652.365337 34.628217 
L 648.800838 34.628217 
z
" style="fill:#1f77b4;"/>
   </g>
   <g id="patch_122">
    <path clip-path="url(#p60cbce1fb0)" d="M 652.365337 301467.633365 
L 655.929836 301467.633365 
L 655.929836 26.967273 
L 652.365337 26.967273 
z
" style="fill:#1f77b4;"/>
   </g>
   <g id="patch_123">
    <path clip-path="url(#p60cbce1fb0)" d="M 655.929836 301467.633365 
L 659.494334 301467.633365 
L 659.494334 49.221881 
L 655.929836 49.221881 
z
" style="fill:#1f77b4;"/>
   </g>
   <g id="patch_124">
    <path clip-path="url(#p60cbce1fb0)" d="M 659.494334 301467.633365 
L 663.058833 301467.633365 
L 663.058833 36.615799 
L 659.494334 36.615799 
z
" style="fill:#1f77b4;"/>
   </g>
   <g id="patch_125">
    <path clip-path="url(#p60cbce1fb0)" d="M 663.058833 301467.633365 
L 666.623332 301467.633365 
L 666.623332 37.016972 
L 663.058833 37.016972 
z
" style="fill:#1f77b4;"/>
   </g>
   <g id="patch_126">
    <path clip-path="url(#p60cbce1fb0)" d="M 666.623332 301467.633365 
L 670.187831 301467.633365 
L 670.187831 32.282376 
L 666.623332 32.282376 
z
" style="fill:#1f77b4;"/>
   </g>
   <g id="patch_127">
    <path clip-path="url(#p60cbce1fb0)" d="M 670.187831 301467.633365 
L 673.752329 301467.633365 
L 673.752329 35.023321 
L 670.187831 35.023321 
z
" style="fill:#1f77b4;"/>
   </g>
   <g id="patch_128">
    <path clip-path="url(#p60cbce1fb0)" d="M 673.752329 301467.633365 
L 677.316828 301467.633365 
L 677.316828 44.032523 
L 673.752329 44.032523 
z
" style="fill:#1f77b4;"/>
   </g>
   <g id="patch_129">
    <path clip-path="url(#p60cbce1fb0)" d="M 677.316828 301467.633365 
L 680.881327 301467.633365 
L 680.881327 44.883221 
L 677.316828 44.883221 
z
" style="fill:#1f77b4;"/>
   </g>
   <g id="patch_130">
    <path clip-path="url(#p60cbce1fb0)" d="M 680.881327 301467.633365 
L 684.445826 301467.633365 
L 684.445826 37.823034 
L 680.881327 37.823034 
z
" style="fill:#1f77b4;"/>
   </g>
   <g id="patch_131">
    <path clip-path="url(#p60cbce1fb0)" d="M 684.445826 301467.633365 
L 688.010324 301467.633365 
L 688.010324 42.766779 
L 684.445826 42.766779 
z
" style="fill:#1f77b4;"/>
   </g>
   <g id="patch_132">
    <path clip-path="url(#p60cbce1fb0)" d="M 688.010324 301467.633365 
L 691.574823 301467.633365 
L 691.574823 47.90508 
L 688.010324 47.90508 
z
" style="fill:#1f77b4;"/>
   </g>
   <g id="patch_133">
    <path clip-path="url(#p60cbce1fb0)" d="M 691.574823 301467.633365 
L 695.139322 301467.633365 
L 695.139322 47.034533 
L 691.574823 47.034533 
z
" style="fill:#1f77b4;"/>
   </g>
   <g id="patch_134">
    <path clip-path="url(#p60cbce1fb0)" d="M 695.139322 301467.633365 
L 698.703821 301467.633365 
L 698.703821 62.686259 
L 695.139322 62.686259 
z
" style="fill:#1f77b4;"/>
   </g>
   <g id="patch_135">
    <path clip-path="url(#p60cbce1fb0)" d="M 698.703821 301467.633365 
L 702.268319 301467.633365 
L 702.268319 45.739497 
L 698.703821 45.739497 
z
" style="fill:#1f77b4;"/>
   </g>
   <g id="patch_136">
    <path clip-path="url(#p60cbce1fb0)" d="M 702.268319 301467.633365 
L 705.832818 301467.633365 
L 705.832818 55.086637 
L 702.268319 55.086637 
z
" style="fill:#1f77b4;"/>
   </g>
   <g id="patch_137">
    <path clip-path="url(#p60cbce1fb0)" d="M 705.832818 301467.633365 
L 709.397317 301467.633365 
L 709.397317 44.032523 
L 705.832818 44.032523 
z
" style="fill:#1f77b4;"/>
   </g>
   <g id="patch_138">
    <path clip-path="url(#p60cbce1fb0)" d="M 709.397317 301467.633365 
L 712.961815 301467.633365 
L 712.961815 44.45718 
L 709.397317 44.45718 
z
" style="fill:#1f77b4;"/>
   </g>
   <g id="patch_139">
    <path clip-path="url(#p60cbce1fb0)" d="M 712.961815 301467.633365 
L 716.526314 301467.633365 
L 716.526314 45.310657 
L 712.961815 45.310657 
z
" style="fill:#1f77b4;"/>
   </g>
   <g id="patch_140">
    <path clip-path="url(#p60cbce1fb0)" d="M 716.526314 301467.633365 
L 720.090813 301467.633365 
L 720.090813 44.883221 
L 716.526314 44.883221 
z
" style="fill:#1f77b4;"/>
   </g>
   <g id="patch_141">
    <path clip-path="url(#p60cbce1fb0)" d="M 720.090813 301467.633365 
L 723.655312 301467.633365 
L 723.655312 56.012752 
L 720.090813 56.012752 
z
" style="fill:#1f77b4;"/>
   </g>
   <g id="patch_142">
    <path clip-path="url(#p60cbce1fb0)" d="M 723.655312 301467.633365 
L 727.21981 301467.633365 
L 727.21981 55.548873 
L 723.655312 55.548873 
z
" style="fill:#1f77b4;"/>
   </g>
   <g id="patch_143">
    <path clip-path="url(#p60cbce1fb0)" d="M 727.21981 301467.633365 
L 730.784309 301467.633365 
L 730.784309 71.27693 
L 727.21981 71.27693 
z
" style="fill:#1f77b4;"/>
   </g>
   <g id="patch_144">
    <path clip-path="url(#p60cbce1fb0)" d="M 730.784309 301467.633365 
L 734.348808 301467.633365 
L 734.348808 41.097981 
L 730.784309 41.097981 
z
" style="fill:#1f77b4;"/>
   </g>
   <g id="patch_145">
    <path clip-path="url(#p60cbce1fb0)" d="M 734.348808 301467.633365 
L 737.913307 301467.633365 
L 737.913307 60.263524 
L 734.348808 60.263524 
z
" style="fill:#1f77b4;"/>
   </g>
   <g id="patch_146">
    <path clip-path="url(#p60cbce1fb0)" d="M 737.913307 301467.633365 
L 741.477805 301467.633365 
L 741.477805 54.167044 
L 737.913307 54.167044 
z
" style="fill:#1f77b4;"/>
   </g>
   <g id="patch_147">
    <path clip-path="url(#p60cbce1fb0)" d="M 741.477805 301467.633365 
L 745.042304 301467.633365 
L 745.042304 64.65734 
L 741.477805 64.65734 
z
" style="fill:#1f77b4;"/>
   </g>
   <g id="patch_148">
    <path clip-path="url(#p60cbce1fb0)" d="M 745.042304 301467.633365 
L 748.606803 301467.633365 
L 748.606803 60.744488 
L 745.042304 60.744488 
z
" style="fill:#1f77b4;"/>
   </g>
   <g id="patch_149">
    <path clip-path="url(#p60cbce1fb0)" d="M 748.606803 301467.633365 
L 752.171302 301467.633365 
L 752.171302 55.548873 
L 748.606803 55.548873 
z
" style="fill:#1f77b4;"/>
   </g>
   <g id="patch_150">
    <path clip-path="url(#p60cbce1fb0)" d="M 752.171302 301467.633365 
L 755.7358 301467.633365 
L 755.7358 46.16975 
L 752.171302 46.16975 
z
" style="fill:#1f77b4;"/>
   </g>
   <g id="patch_151">
    <path clip-path="url(#p60cbce1fb0)" d="M 755.7358 301467.633365 
L 759.300299 301467.633365 
L 759.300299 58.83117 
L 755.7358 58.83117 
z
" style="fill:#1f77b4;"/>
   </g>
   <g id="patch_152">
    <path clip-path="url(#p60cbce1fb0)" d="M 759.300299 301467.633365 
L 762.864798 301467.633365 
L 762.864798 63.66808 
L 759.300299 63.66808 
z
" style="fill:#1f77b4;"/>
   </g>
   <g id="patch_153">
    <path clip-path="url(#p60cbce1fb0)" d="M 762.864798 301467.633365 
L 766.429297 301467.633365 
L 766.429297 55.548873 
L 762.864798 55.548873 
z
" style="fill:#1f77b4;"/>
   </g>
   <g id="patch_154">
    <path clip-path="url(#p60cbce1fb0)" d="M 766.429297 301467.633365 
L 769.993795 301467.633365 
L 769.993795 57.414357 
L 766.429297 57.414357 
z
" style="fill:#1f77b4;"/>
   </g>
   <g id="patch_155">
    <path clip-path="url(#p60cbce1fb0)" d="M 769.993795 301467.633365 
L 773.558294 301467.633365 
L 773.558294 51.896001 
L 769.993795 51.896001 
z
" style="fill:#1f77b4;"/>
   </g>
   <g id="patch_156">
    <path clip-path="url(#p60cbce1fb0)" d="M 773.558294 301467.633365 
L 777.122793 301467.633365 
L 777.122793 61.227231 
L 773.558294 61.227231 
z
" style="fill:#1f77b4;"/>
   </g>
   <g id="patch_157">
    <path clip-path="url(#p60cbce1fb0)" d="M 777.122793 301467.633365 
L 780.687292 301467.633365 
L 780.687292 68.69107 
L 777.122793 68.69107 
z
" style="fill:#1f77b4;"/>
   </g>
   <g id="patch_158">
    <path clip-path="url(#p60cbce1fb0)" d="M 780.687292 301467.633365 
L 784.25179 301467.633365 
L 784.25179 60.263524 
L 780.687292 60.263524 
z
" style="fill:#1f77b4;"/>
   </g>
   <g id="patch_159">
    <path clip-path="url(#p60cbce1fb0)" d="M 784.25179 301467.633365 
L 787.816289 301467.633365 
L 787.816289 74.98538 
L 784.25179 74.98538 
z
" style="fill:#1f77b4;"/>
   </g>
   <g id="patch_160">
    <path clip-path="url(#p60cbce1fb0)" d="M 787.816289 301467.633365 
L 791.380788 301467.633365 
L 791.380788 53.709665 
L 787.816289 53.709665 
z
" style="fill:#1f77b4;"/>
   </g>
   <g id="patch_161">
    <path clip-path="url(#p60cbce1fb0)" d="M 791.380788 301467.633365 
L 794.945287 301467.633365 
L 794.945287 50.107184 
L 791.380788 50.107184 
z
" style="fill:#1f77b4;"/>
   </g>
   <g id="patch_162">
    <path clip-path="url(#p60cbce1fb0)" d="M 794.945287 301467.633365 
L 798.509785 301467.633365 
L 798.509785 70.236433 
L 794.945287 70.236433 
z
" style="fill:#1f77b4;"/>
   </g>
   <g id="patch_163">
    <path clip-path="url(#p60cbce1fb0)" d="M 798.509785 301467.633365 
L 802.074284 301467.633365 
L 802.074284 72.853388 
L 798.509785 72.853388 
z
" style="fill:#1f77b4;"/>
   </g>
   <g id="patch_164">
    <path clip-path="url(#p60cbce1fb0)" d="M 802.074284 301467.633365 
L 805.638783 301467.633365 
L 805.638783 77.15276 
L 802.074284 77.15276 
z
" style="fill:#1f77b4;"/>
   </g>
   <g id="patch_165">
    <path clip-path="url(#p60cbce1fb0)" d="M 805.638783 301467.633365 
L 809.203282 301467.633365 
L 809.203282 64.65734 
L 805.638783 64.65734 
z
" style="fill:#1f77b4;"/>
   </g>
   <g id="patch_166">
    <path clip-path="url(#p60cbce1fb0)" d="M 809.203282 301467.633365 
L 812.76778 301467.633365 
L 812.76778 71.800304 
L 809.203282 71.800304 
z
" style="fill:#1f77b4;"/>
   </g>
   <g id="patch_167">
    <path clip-path="url(#p60cbce1fb0)" d="M 812.76778 301467.633365 
L 816.332279 301467.633365 
L 816.332279 64.65734 
L 812.76778 64.65734 
z
" style="fill:#1f77b4;"/>
   </g>
   <g id="patch_168">
    <path clip-path="url(#p60cbce1fb0)" d="M 816.332279 301467.633365 
L 819.896778 301467.633365 
L 819.896778 85.03508 
L 816.332279 85.03508 
z
" style="fill:#1f77b4;"/>
   </g>
   <g id="patch_169">
    <path clip-path="url(#p60cbce1fb0)" d="M 819.896778 301467.633365 
L 823.461277 301467.633365 
L 823.461277 83.879483 
L 819.896778 83.879483 
z
" style="fill:#1f77b4;"/>
   </g>
   <g id="patch_170">
    <path clip-path="url(#p60cbce1fb0)" d="M 823.461277 301467.633365 
L 827.025775 301467.633365 
L 827.025775 74.98538 
L 823.461277 74.98538 
z
" style="fill:#1f77b4;"/>
   </g>
   <g id="patch_171">
    <path clip-path="url(#p60cbce1fb0)" d="M 827.025775 301467.633365 
L 830.590274 301467.633365 
L 830.590274 78.802235 
L 827.025775 78.802235 
z
" style="fill:#1f77b4;"/>
   </g>
   <g id="patch_172">
    <path clip-path="url(#p60cbce1fb0)" d="M 830.590274 301467.633365 
L 834.154773 301467.633365 
L 834.154773 73.383131 
L 830.590274 73.383131 
z
" style="fill:#1f77b4;"/>
   </g>
   <g id="patch_173">
    <path clip-path="url(#p60cbce1fb0)" d="M 834.154773 301467.633365 
L 837.719271 301467.633365 
L 837.719271 78.250092 
L 834.154773 78.250092 
z
" style="fill:#1f77b4;"/>
   </g>
   <g id="patch_174">
    <path clip-path="url(#p60cbce1fb0)" d="M 837.719271 301467.633365 
L 841.28377 301467.633365 
L 841.28377 65.654151 
L 837.719271 65.654151 
z
" style="fill:#1f77b4;"/>
   </g>
   <g id="patch_175">
    <path clip-path="url(#p60cbce1fb0)" d="M 841.28377 301467.633365 
L 844.848269 301467.633365 
L 844.848269 268.994224 
L 841.28377 268.994224 
z
" style="fill:#1f77b4;"/>
   </g>
   <g id="patch_176">
    <path clip-path="url(#p60cbce1fb0)" d="M 844.848269 301467.633365 
L 848.412768 301467.633365 
L 848.412768 245.186375 
L 844.848269 245.186375 
z
" style="fill:#1f77b4;"/>
   </g>
   <g id="patch_177">
    <path clip-path="url(#p60cbce1fb0)" d="M 848.412768 301467.633365 
L 851.977266 301467.633365 
L 851.977266 262.059056 
L 848.412768 262.059056 
z
" style="fill:#1f77b4;"/>
   </g>
   <g id="patch_178">
    <path clip-path="url(#p60cbce1fb0)" d="M 851.977266 301467.633365 
L 855.541765 301467.633365 
L 855.541765 271.390285 
L 851.977266 271.390285 
z
" style="fill:#1f77b4;"/>
   </g>
   <g id="patch_179">
    <path clip-path="url(#p60cbce1fb0)" d="M 855.541765 301467.633365 
L 859.106264 301467.633365 
L 859.106264 264.330098 
L 855.541765 264.330098 
z
" style="fill:#1f77b4;"/>
   </g>
   <g id="patch_180">
    <path clip-path="url(#p60cbce1fb0)" d="M 859.106264 301467.633365 
L 862.670763 301467.633365 
L 862.670763 251.261035 
L 859.106264 251.261035 
z
" style="fill:#1f77b4;"/>
   </g>
   <g id="patch_181">
    <path clip-path="url(#p60cbce1fb0)" d="M 862.670763 301467.633365 
L 866.235261 301467.633365 
L 866.235261 262.059056 
L 862.670763 262.059056 
z
" style="fill:#1f77b4;"/>
   </g>
   <g id="patch_182">
    <path clip-path="url(#p60cbce1fb0)" d="M 866.235261 301467.633365 
L 869.79976 301467.633365 
L 869.79976 289.519777 
L 866.235261 289.519777 
z
" style="fill:#1f77b4;"/>
   </g>
   <g id="patch_183">
    <path clip-path="url(#p60cbce1fb0)" d="M 869.79976 301467.633365 
L 873.364259 301467.633365 
L 873.364259 313.884478 
L 869.79976 313.884478 
z
" style="fill:#1f77b4;"/>
   </g>
   <g id="patch_184">
    <path clip-path="url(#p60cbce1fb0)" d="M 873.364259 301467.633365 
L 876.928758 301467.633365 
L 876.928758 320.758783 
L 873.364259 320.758783 
z
" style="fill:#1f77b4;"/>
   </g>
   <g id="patch_185">
    <path clip-path="url(#p60cbce1fb0)" d="M 876.928758 301467.633365 
L 880.493256 301467.633365 
L 880.493256 295.198134 
L 876.928758 295.198134 
z
" style="fill:#1f77b4;"/>
   </g>
   <g id="patch_186">
    <path clip-path="url(#p60cbce1fb0)" d="M 880.493256 301467.633365 
L 884.057755 301467.633365 
L 884.057755 301.134686 
L 880.493256 301.134686 
z
" style="fill:#1f77b4;"/>
   </g>
   <g id="patch_187">
    <path clip-path="url(#p60cbce1fb0)" d="M 884.057755 301467.633365 
L 887.622254 301467.633365 
L 887.622254 331.800426 
L 884.057755 331.800426 
z
" style="fill:#1f77b4;"/>
   </g>
   <g id="patch_188">
    <path clip-path="url(#p60cbce1fb0)" d="M 887.622254 301467.633365 
L 891.186753 301467.633365 
L 891.186753 284.078087 
L 887.622254 284.078087 
z
" style="fill:#1f77b4;"/>
   </g>
   <g id="patch_189">
    <path clip-path="url(#p60cbce1fb0)" d="M 891.186753 301467.633365 
L 894.751251 301467.633365 
L 894.751251 320.758783 
L 891.186753 320.758783 
z
" style="fill:#1f77b4;"/>
   </g>
   <g id="patch_190">
    <path clip-path="url(#p60cbce1fb0)" d="M 894.751251 301467.633365 
L 898.31575 301467.633365 
L 898.31575 339.716889 
L 894.751251 339.716889 
z
" style="fill:#1f77b4;"/>
   </g>
   <g id="patch_191">
    <path clip-path="url(#p60cbce1fb0)" d="M 898.31575 301467.633365 
L 901.880249 301467.633365 
L 901.880249 348.144436 
L 898.31575 348.144436 
z
" style="fill:#1f77b4;"/>
   </g>
   <g id="patch_192">
    <path clip-path="url(#p60cbce1fb0)" d="M 901.880249 301467.633365 
L 905.444748 301467.633365 
L 905.444748 352.571356 
L 901.880249 352.571356 
z
" style="fill:#1f77b4;"/>
   </g>
   <g id="patch_193">
    <path clip-path="url(#p60cbce1fb0)" d="M 905.444748 301467.633365 
L 909.009246 301467.633365 
L 909.009246 352.571356 
L 905.444748 352.571356 
z
" style="fill:#1f77b4;"/>
   </g>
   <g id="patch_194">
    <path clip-path="url(#p60cbce1fb0)" d="M 909.009246 301467.633365 
L 912.573745 301467.633365 
L 912.573745 366.83078 
L 909.009246 366.83078 
z
" style="fill:#1f77b4;"/>
   </g>
   <g id="patch_195">
    <path clip-path="url(#p60cbce1fb0)" d="M 912.573745 301467.633365 
L 916.138244 301467.633365 
L 916.138244 343.862687 
L 912.573745 343.862687 
z
" style="fill:#1f77b4;"/>
   </g>
   <g id="patch_196">
    <path clip-path="url(#p60cbce1fb0)" d="M 916.138244 301467.633365 
L 919.702743 301467.633365 
L 919.702743 357.153639 
L 916.138244 357.153639 
z
" style="fill:#1f77b4;"/>
   </g>
   <g id="patch_197">
    <path clip-path="url(#p60cbce1fb0)" d="M 919.702743 301467.633365 
L 923.267241 301467.633365 
L 923.267241 371.952285 
L 919.702743 371.952285 
z
" style="fill:#1f77b4;"/>
   </g>
   <g id="patch_198">
    <path clip-path="url(#p60cbce1fb0)" d="M 923.267241 301467.633365 
L 926.83174 301467.633365 
L 926.83174 348.144436 
L 923.267241 348.144436 
z
" style="fill:#1f77b4;"/>
   </g>
   <g id="patch_199">
    <path clip-path="url(#p60cbce1fb0)" d="M 926.83174 301467.633365 
L 930.396239 301467.633365 
L 930.396239 331.800426 
L 926.83174 331.800426 
z
" style="fill:#1f77b4;"/>
   </g>
   <g id="patch_200">
    <path clip-path="url(#p60cbce1fb0)" d="M 930.396239 301467.633365 
L 933.960738 301467.633365 
L 933.960738 407.788701 
L 930.396239 407.788701 
z
" style="fill:#1f77b4;"/>
   </g>
   <g id="patch_201">
    <path clip-path="url(#p60cbce1fb0)" d="M 933.960738 301467.633365 
L 937.525236 301467.633365 
L 937.525236 371.952285 
L 933.960738 371.952285 
z
" style="fill:#1f77b4;"/>
   </g>
   <g id="patch_202">
    <path clip-path="url(#p60cbce1fb0)" d="M 937.525236 301467.633365 
L 941.089735 301467.633365 
L 941.089735 394.719638 
L 937.525236 394.719638 
z
" style="fill:#1f77b4;"/>
   </g>
   <g id="patch_203">
    <path clip-path="url(#p60cbce1fb0)" d="M 941.089735 301467.633365 
L 944.654234 301467.633365 
L 944.654234 407.788701 
L 941.089735 407.788701 
z
" style="fill:#1f77b4;"/>
   </g>
   <g id="patch_204">
    <path clip-path="url(#p60cbce1fb0)" d="M 944.654234 301467.633365 
L 948.218732 301467.633365 
L 948.218732 422.312727 
L 944.654234 422.312727 
z
" style="fill:#1f77b4;"/>
   </g>
   <g id="patch_205">
    <path clip-path="url(#p60cbce1fb0)" d="M 948.218732 301467.633365 
L 951.783231 301467.633365 
L 951.783231 382.840393 
L 948.218732 382.840393 
z
" style="fill:#1f77b4;"/>
   </g>
   <g id="matplotlib.axis_3">
    <g id="xtick_41">
     <g id="line2d_64">
      <g>
       <use style="stroke:#000000;stroke-width:0.8;" x="716.526314" xlink:href="#m22ba6c4acf" y="442.08"/>
      </g>
     </g>
     <g id="text_10">
      <!-- $\mathdefault{10^{0}}$ -->
      <g transform="translate(698.926314 464.276875)scale(0.2 -0.2)">
       <use transform="translate(0 0.765625)" xlink:href="#DejaVuSans-49"/>
       <use transform="translate(63.623047 0.765625)" xlink:href="#DejaVuSans-48"/>
       <use transform="translate(128.203125 39.046875)scale(0.7)" xlink:href="#DejaVuSans-48"/>
      </g>
     </g>
    </g>
    <g id="xtick_42">
     <g id="line2d_65">
      <g>
       <use style="stroke:#000000;stroke-width:0.8;" x="951.783231" xlink:href="#m22ba6c4acf" y="442.08"/>
      </g>
     </g>
     <g id="text_11">
      <!-- $\mathdefault{10^{1}}$ -->
      <g transform="translate(934.183231 464.276875)scale(0.2 -0.2)">
       <use transform="translate(0 0.684375)" xlink:href="#DejaVuSans-49"/>
       <use transform="translate(63.623047 0.684375)" xlink:href="#DejaVuSans-48"/>
       <use transform="translate(128.203125 38.965625)scale(0.7)" xlink:href="#DejaVuSans-49"/>
      </g>
     </g>
    </g>
    <g id="xtick_43">
     <g id="line2d_66">
      <g>
       <use style="stroke:#000000;stroke-width:0.6;" x="593.515473" xlink:href="#m621b823a0b" y="442.08"/>
      </g>
     </g>
    </g>
    <g id="xtick_44">
     <g id="line2d_67">
      <g>
       <use style="stroke:#000000;stroke-width:0.6;" x="622.908175" xlink:href="#m621b823a0b" y="442.08"/>
      </g>
     </g>
    </g>
    <g id="xtick_45">
     <g id="line2d_68">
      <g>
       <use style="stroke:#000000;stroke-width:0.6;" x="645.706926" xlink:href="#m621b823a0b" y="442.08"/>
      </g>
     </g>
    </g>
    <g id="xtick_46">
     <g id="line2d_69">
      <g>
       <use style="stroke:#000000;stroke-width:0.6;" x="664.334861" xlink:href="#m621b823a0b" y="442.08"/>
      </g>
     </g>
    </g>
    <g id="xtick_47">
     <g id="line2d_70">
      <g>
       <use style="stroke:#000000;stroke-width:0.6;" x="680.084557" xlink:href="#m621b823a0b" y="442.08"/>
      </g>
     </g>
    </g>
    <g id="xtick_48">
     <g id="line2d_71">
      <g>
       <use style="stroke:#000000;stroke-width:0.6;" x="693.727563" xlink:href="#m621b823a0b" y="442.08"/>
      </g>
     </g>
    </g>
    <g id="xtick_49">
     <g id="line2d_72">
      <g>
       <use style="stroke:#000000;stroke-width:0.6;" x="705.761548" xlink:href="#m621b823a0b" y="442.08"/>
      </g>
     </g>
    </g>
    <g id="xtick_50">
     <g id="line2d_73">
      <g>
       <use style="stroke:#000000;stroke-width:0.6;" x="787.345703" xlink:href="#m621b823a0b" y="442.08"/>
      </g>
     </g>
    </g>
    <g id="xtick_51">
     <g id="line2d_74">
      <g>
       <use style="stroke:#000000;stroke-width:0.6;" x="828.77239" xlink:href="#m621b823a0b" y="442.08"/>
      </g>
     </g>
    </g>
    <g id="xtick_52">
     <g id="line2d_75">
      <g>
       <use style="stroke:#000000;stroke-width:0.6;" x="858.165092" xlink:href="#m621b823a0b" y="442.08"/>
      </g>
     </g>
    </g>
    <g id="xtick_53">
     <g id="line2d_76">
      <g>
       <use style="stroke:#000000;stroke-width:0.6;" x="880.963843" xlink:href="#m621b823a0b" y="442.08"/>
      </g>
     </g>
    </g>
    <g id="xtick_54">
     <g id="line2d_77">
      <g>
       <use style="stroke:#000000;stroke-width:0.6;" x="899.591778" xlink:href="#m621b823a0b" y="442.08"/>
      </g>
     </g>
    </g>
    <g id="xtick_55">
     <g id="line2d_78">
      <g>
       <use style="stroke:#000000;stroke-width:0.6;" x="915.341474" xlink:href="#m621b823a0b" y="442.08"/>
      </g>
     </g>
    </g>
    <g id="xtick_56">
     <g id="line2d_79">
      <g>
       <use style="stroke:#000000;stroke-width:0.6;" x="928.98448" xlink:href="#m621b823a0b" y="442.08"/>
      </g>
     </g>
    </g>
    <g id="xtick_57">
     <g id="line2d_80">
      <g>
       <use style="stroke:#000000;stroke-width:0.6;" x="941.018465" xlink:href="#m621b823a0b" y="442.08"/>
      </g>
     </g>
    </g>
    <g id="text_12">
     <!-- Radius ($R_\oplus$) -->
     <defs>
      <path d="M 44.390625 34.1875 
Q 47.5625 33.109375 50.5625 29.59375 
Q 53.5625 26.078125 56.59375 19.921875 
L 66.609375 0 
L 56 0 
L 46.6875 18.703125 
Q 43.0625 26.03125 39.671875 28.421875 
Q 36.28125 30.8125 30.421875 30.8125 
L 19.671875 30.8125 
L 19.671875 0 
L 9.8125 0 
L 9.8125 72.90625 
L 32.078125 72.90625 
Q 44.578125 72.90625 50.734375 67.671875 
Q 56.890625 62.453125 56.890625 51.90625 
Q 56.890625 45.015625 53.6875 40.46875 
Q 50.484375 35.9375 44.390625 34.1875 
z
M 19.671875 64.796875 
L 19.671875 38.921875 
L 32.078125 38.921875 
Q 39.203125 38.921875 42.84375 42.21875 
Q 46.484375 45.515625 46.484375 51.90625 
Q 46.484375 58.296875 42.84375 61.546875 
Q 39.203125 64.796875 32.078125 64.796875 
z
" id="DejaVuSans-82"/>
      <path d="M 25.203125 64.796875 
L 20.21875 38.921875 
L 32.90625 38.921875 
Q 40.375 38.921875 44.984375 43.046875 
Q 49.609375 47.171875 49.609375 53.8125 
Q 49.609375 59.125 46.5 61.953125 
Q 43.40625 64.796875 37.59375 64.796875 
z
M 43.3125 35.015625 
Q 46.4375 34.28125 48.515625 31.390625 
Q 50.59375 28.515625 53.328125 19.921875 
L 59.515625 0 
L 49.125 0 
L 43.40625 18.703125 
Q 41.21875 25.921875 38.328125 28.359375 
Q 35.453125 30.8125 29.5 30.8125 
L 18.609375 30.8125 
L 12.59375 0 
L 2.6875 0 
L 16.890625 72.90625 
L 39.109375 72.90625 
Q 49.21875 72.90625 54.609375 68.328125 
Q 60.015625 63.765625 60.015625 55.171875 
Q 60.015625 47.5625 55.421875 41.984375 
Q 50.828125 36.421875 43.3125 35.015625 
z
" id="DejaVuSans-Oblique-82"/>
      <path d="M 51.65625 55.03125 
Q 47.125 56.9375 41.890625 56.9375 
Q 36.671875 56.9375 32.125 55.03125 
Q 27.640625 53.125 23.921875 49.421875 
Q 20.171875 45.65625 18.3125 41.15625 
Q 16.453125 36.671875 16.453125 31.34375 
Q 16.453125 26.171875 18.3125 21.671875 
Q 20.171875 17.1875 23.921875 13.421875 
Q 27.640625 9.71875 32.125 7.8125 
Q 36.671875 5.90625 41.890625 5.90625 
Q 47.125 5.90625 51.65625 7.8125 
Q 56.15625 9.71875 59.859375 13.421875 
Q 63.625 17.1875 65.46875 21.671875 
Q 67.328125 26.171875 67.328125 31.34375 
Q 67.328125 36.671875 65.46875 41.15625 
Q 63.625 45.65625 59.859375 49.421875 
Q 56.15625 53.125 51.65625 55.03125 
z
M 23.53125 59.375 
Q 35.15625 64.265625 41.890625 64.265625 
Q 48.640625 64.265625 54.4375 61.8125 
Q 60.25 59.375 65.046875 54.59375 
Q 69.875 49.75 72.265625 43.953125 
Q 74.65625 38.1875 74.65625 31.34375 
Q 74.65625 24.65625 72.265625 18.84375 
Q 69.875 13.09375 65.046875 8.25 
Q 60.25 3.46875 54.4375 1.015625 
Q 48.640625 -1.421875 41.890625 -1.421875 
Q 35.15625 -1.421875 29.34375 1.015625 
Q 23.53125 3.46875 18.75 8.25 
Q 13.921875 13.09375 11.53125 18.84375 
Q 9.125 24.65625 9.125 31.34375 
Q 9.125 38.1875 11.53125 43.953125 
Q 13.921875 49.75 18.75 54.59375 
Q 23.53125 59.375 35.15625 64.265625 
z
M 46.046875 52.9375 
L 46.046875 35.5 
L 63.421875 35.5 
L 63.421875 27.203125 
L 46.046875 27.203125 
L 46.046875 9.765625 
L 37.75 9.765625 
L 37.75 27.203125 
L 20.359375 27.203125 
L 20.359375 35.5 
L 37.75 35.5 
L 37.75 52.9375 
z
" id="DejaVuSans-8853"/>
     </defs>
     <g transform="translate(702.620543 490.6725)scale(0.24 -0.24)">
      <use transform="translate(0 0.015625)" xlink:href="#DejaVuSans-82"/>
      <use transform="translate(69.482422 0.015625)" xlink:href="#DejaVuSans-97"/>
      <use transform="translate(130.761719 0.015625)" xlink:href="#DejaVuSans-100"/>
      <use transform="translate(194.238281 0.015625)" xlink:href="#DejaVuSans-105"/>
      <use transform="translate(222.021484 0.015625)" xlink:href="#DejaVuSans-117"/>
      <use transform="translate(285.400391 0.015625)" xlink:href="#DejaVuSans-115"/>
      <use transform="translate(337.5 0.015625)" xlink:href="#DejaVuSans-32"/>
      <use transform="translate(369.287109 0.015625)" xlink:href="#DejaVuSans-40"/>
      <use transform="translate(408.300781 0.015625)" xlink:href="#DejaVuSans-Oblique-82"/>
      <use transform="translate(491.420898 -16.390625)scale(0.7)" xlink:href="#DejaVuSans-8853"/>
      <use transform="translate(566.445312 0.015625)" xlink:href="#DejaVuSans-41"/>
     </g>
    </g>
   </g>
   <g id="matplotlib.axis_4">
    <g id="ytick_24">
     <g id="line2d_81">
      <g>
       <use style="stroke:#000000;stroke-width:0.8;" x="581.253587" xlink:href="#m770e21b810" y="190.927684"/>
      </g>
     </g>
     <g id="text_13">
      <!-- $\mathdefault{10^{2}}$ -->
      <g transform="translate(539.053587 198.526121)scale(0.2 -0.2)">
       <use transform="translate(0 0.765625)" xlink:href="#DejaVuSans-49"/>
       <use transform="translate(63.623047 0.765625)" xlink:href="#DejaVuSans-48"/>
       <use transform="translate(128.203125 39.046875)scale(0.7)" xlink:href="#DejaVuSans-50"/>
      </g>
     </g>
    </g>
    <g id="ytick_25">
     <g id="line2d_82">
      <g>
       <use style="stroke:#000000;stroke-width:0.6;" x="581.253587" xlink:href="#m9e4d2eed12" y="401.090738"/>
      </g>
     </g>
    </g>
    <g id="ytick_26">
     <g id="line2d_83">
      <g>
       <use style="stroke:#000000;stroke-width:0.6;" x="581.253587" xlink:href="#m9e4d2eed12" y="348.144436"/>
      </g>
     </g>
    </g>
    <g id="ytick_27">
     <g id="line2d_84">
      <g>
       <use style="stroke:#000000;stroke-width:0.6;" x="581.253587" xlink:href="#m9e4d2eed12" y="310.578437"/>
      </g>
     </g>
    </g>
    <g id="ytick_28">
     <g id="line2d_85">
      <g>
       <use style="stroke:#000000;stroke-width:0.6;" x="581.253587" xlink:href="#m9e4d2eed12" y="281.439984"/>
      </g>
     </g>
    </g>
    <g id="ytick_29">
     <g id="line2d_86">
      <g>
       <use style="stroke:#000000;stroke-width:0.6;" x="581.253587" xlink:href="#m9e4d2eed12" y="257.632135"/>
      </g>
     </g>
    </g>
    <g id="ytick_30">
     <g id="line2d_87">
      <g>
       <use style="stroke:#000000;stroke-width:0.6;" x="581.253587" xlink:href="#m9e4d2eed12" y="237.502885"/>
      </g>
     </g>
    </g>
    <g id="ytick_31">
     <g id="line2d_88">
      <g>
       <use style="stroke:#000000;stroke-width:0.6;" x="581.253587" xlink:href="#m9e4d2eed12" y="220.066136"/>
      </g>
     </g>
    </g>
    <g id="ytick_32">
     <g id="line2d_89">
      <g>
       <use style="stroke:#000000;stroke-width:0.6;" x="581.253587" xlink:href="#m9e4d2eed12" y="204.685833"/>
      </g>
     </g>
    </g>
    <g id="ytick_33">
     <g id="line2d_90">
      <g>
       <use style="stroke:#000000;stroke-width:0.6;" x="581.253587" xlink:href="#m9e4d2eed12" y="100.415383"/>
      </g>
     </g>
    </g>
    <g id="ytick_34">
     <g id="line2d_91">
      <g>
       <use style="stroke:#000000;stroke-width:0.6;" x="581.253587" xlink:href="#m9e4d2eed12" y="47.469081"/>
      </g>
     </g>
    </g>
    <g id="ytick_35">
     <g id="line2d_92">
      <g>
       <use style="stroke:#000000;stroke-width:0.6;" x="581.253587" xlink:href="#m9e4d2eed12" y="9.903082"/>
      </g>
     </g>
    </g>
    <g id="text_14">
     <!-- Number of planets -->
     <g transform="translate(530.062337 336.290625)rotate(-90)scale(0.24 -0.24)">
      <use xlink:href="#DejaVuSans-78"/>
      <use x="74.804688" xlink:href="#DejaVuSans-117"/>
      <use x="138.183594" xlink:href="#DejaVuSans-109"/>
      <use x="235.595703" xlink:href="#DejaVuSans-98"/>
      <use x="299.072266" xlink:href="#DejaVuSans-101"/>
      <use x="360.595703" xlink:href="#DejaVuSans-114"/>
      <use x="401.708984" xlink:href="#DejaVuSans-32"/>
      <use x="433.496094" xlink:href="#DejaVuSans-111"/>
      <use x="494.677734" xlink:href="#DejaVuSans-102"/>
      <use x="529.882812" xlink:href="#DejaVuSans-32"/>
      <use x="561.669922" xlink:href="#DejaVuSans-112"/>
      <use x="625.146484" xlink:href="#DejaVuSans-108"/>
      <use x="652.929688" xlink:href="#DejaVuSans-97"/>
      <use x="714.208984" xlink:href="#DejaVuSans-110"/>
      <use x="777.587891" xlink:href="#DejaVuSans-101"/>
      <use x="839.111328" xlink:href="#DejaVuSans-116"/>
      <use x="878.320312" xlink:href="#DejaVuSans-115"/>
     </g>
    </g>
   </g>
   <g id="patch_206">
    <path d="M 581.253587 442.08 
L 581.253587 7.2 
" style="fill:none;stroke:#000000;stroke-linecap:square;stroke-linejoin:miter;stroke-width:0.8;"/>
   </g>
   <g id="patch_207">
    <path d="M 969.4275 442.08 
L 969.4275 7.2 
" style="fill:none;stroke:#000000;stroke-linecap:square;stroke-linejoin:miter;stroke-width:0.8;"/>
   </g>
   <g id="patch_208">
    <path d="M 581.253587 442.08 
L 969.4275 442.08 
" style="fill:none;stroke:#000000;stroke-linecap:square;stroke-linejoin:miter;stroke-width:0.8;"/>
   </g>
   <g id="patch_209">
    <path d="M 581.253587 7.2 
L 969.4275 7.2 
" style="fill:none;stroke:#000000;stroke-linecap:square;stroke-linejoin:miter;stroke-width:0.8;"/>
   </g>
  </g>
 </g>
 <defs>
  <clipPath id="p340a566579">
   <rect height="434.88" width="388.173913" x="76.6275" y="7.2"/>
  </clipPath>
  <clipPath id="p60cbce1fb0">
   <rect height="434.88" width="388.173913" x="581.253587" y="7.2"/>
  </clipPath>
 </defs>
</svg>
