<?xml version="1.0" encoding="utf-8" standalone="no"?>
<!DOCTYPE svg PUBLIC "-//W3C//DTD SVG 1.1//EN"
  "http://www.w3.org/Graphics/SVG/1.1/DTD/svg11.dtd">
<!-- Created with matplotlib (https://matplotlib.org/) -->
<svg height="499.8725pt" version="1.1" viewBox="0 0 963.00625 499.8725" width="963.00625pt" xmlns="http://www.w3.org/2000/svg" xmlns:xlink="http://www.w3.org/1999/xlink">
 <defs>
  <style type="text/css">
*{stroke-linecap:butt;stroke-linejoin:round;}
  </style>
 </defs>
 <g id="figure_1">
  <g id="patch_1">
   <path d="M 0 499.8725 
L 963.00625 499.8725 
L 963.00625 0 
L 0 0 
z
" style="fill:none;"/>
  </g>
  <g id="axes_1">
   <g id="patch_2">
    <path d="M 63.00625 466.31625 
L 451.180163 466.31625 
L 451.180163 31.43625 
L 63.00625 31.43625 
z
" style="fill:#ffffff;"/>
   </g>
   <g id="patch_3">
    <path clip-path="url(#p3c29fb5fcf)" d="M 80.650519 466.31625 
L 84.215018 466.31625 
L 84.215018 466.31625 
L 80.650519 466.31625 
z
" style="fill:#1f77b4;"/>
   </g>
   <g id="patch_4">
    <path clip-path="url(#p3c29fb5fcf)" d="M 84.215018 466.31625 
L 87.779516 466.31625 
L 87.779516 466.31625 
L 84.215018 466.31625 
z
" style="fill:#1f77b4;"/>
   </g>
   <g id="patch_5">
    <path clip-path="url(#p3c29fb5fcf)" d="M 87.779516 466.31625 
L 91.344015 466.31625 
L 91.344015 466.31625 
L 87.779516 466.31625 
z
" style="fill:#1f77b4;"/>
   </g>
   <g id="patch_6">
    <path clip-path="url(#p3c29fb5fcf)" d="M 91.344015 466.31625 
L 94.908514 466.31625 
L 94.908514 466.31625 
L 91.344015 466.31625 
z
" style="fill:#1f77b4;"/>
   </g>
   <g id="patch_7">
    <path clip-path="url(#p3c29fb5fcf)" d="M 94.908514 466.31625 
L 98.473012 466.31625 
L 98.473012 466.31625 
L 94.908514 466.31625 
z
" style="fill:#1f77b4;"/>
   </g>
   <g id="patch_8">
    <path clip-path="url(#p3c29fb5fcf)" d="M 98.473012 466.31625 
L 102.037511 466.31625 
L 102.037511 466.31625 
L 98.473012 466.31625 
z
" style="fill:#1f77b4;"/>
   </g>
   <g id="patch_9">
    <path clip-path="url(#p3c29fb5fcf)" d="M 102.037511 466.31625 
L 105.60201 466.31625 
L 105.60201 466.31625 
L 102.037511 466.31625 
z
" style="fill:#1f77b4;"/>
   </g>
   <g id="patch_10">
    <path clip-path="url(#p3c29fb5fcf)" d="M 105.60201 466.31625 
L 109.166509 466.31625 
L 109.166509 466.31625 
L 105.60201 466.31625 
z
" style="fill:#1f77b4;"/>
   </g>
   <g id="patch_11">
    <path clip-path="url(#p3c29fb5fcf)" d="M 109.166509 466.31625 
L 112.731007 466.31625 
L 112.731007 466.31625 
L 109.166509 466.31625 
z
" style="fill:#1f77b4;"/>
   </g>
   <g id="patch_12">
    <path clip-path="url(#p3c29fb5fcf)" d="M 112.731007 466.31625 
L 116.295506 466.31625 
L 116.295506 466.31625 
L 112.731007 466.31625 
z
" style="fill:#1f77b4;"/>
   </g>
   <g id="patch_13">
    <path clip-path="url(#p3c29fb5fcf)" d="M 116.295506 466.31625 
L 119.860005 466.31625 
L 119.860005 466.31625 
L 116.295506 466.31625 
z
" style="fill:#1f77b4;"/>
   </g>
   <g id="patch_14">
    <path clip-path="url(#p3c29fb5fcf)" d="M 119.860005 466.31625 
L 123.424504 466.31625 
L 123.424504 466.31625 
L 119.860005 466.31625 
z
" style="fill:#1f77b4;"/>
   </g>
   <g id="patch_15">
    <path clip-path="url(#p3c29fb5fcf)" d="M 123.424504 466.31625 
L 126.989002 466.31625 
L 126.989002 466.31625 
L 123.424504 466.31625 
z
" style="fill:#1f77b4;"/>
   </g>
   <g id="patch_16">
    <path clip-path="url(#p3c29fb5fcf)" d="M 126.989002 466.31625 
L 130.553501 466.31625 
L 130.553501 466.31625 
L 126.989002 466.31625 
z
" style="fill:#1f77b4;"/>
   </g>
   <g id="patch_17">
    <path clip-path="url(#p3c29fb5fcf)" d="M 130.553501 466.31625 
L 134.118 466.31625 
L 134.118 466.31625 
L 130.553501 466.31625 
z
" style="fill:#1f77b4;"/>
   </g>
   <g id="patch_18">
    <path clip-path="url(#p3c29fb5fcf)" d="M 134.118 466.31625 
L 137.682499 466.31625 
L 137.682499 466.31625 
L 134.118 466.31625 
z
" style="fill:#1f77b4;"/>
   </g>
   <g id="patch_19">
    <path clip-path="url(#p3c29fb5fcf)" d="M 137.682499 466.31625 
L 141.246997 466.31625 
L 141.246997 466.31625 
L 137.682499 466.31625 
z
" style="fill:#1f77b4;"/>
   </g>
   <g id="patch_20">
    <path clip-path="url(#p3c29fb5fcf)" d="M 141.246997 466.31625 
L 144.811496 466.31625 
L 144.811496 466.31625 
L 141.246997 466.31625 
z
" style="fill:#1f77b4;"/>
   </g>
   <g id="patch_21">
    <path clip-path="url(#p3c29fb5fcf)" d="M 144.811496 466.31625 
L 148.375995 466.31625 
L 148.375995 466.31625 
L 144.811496 466.31625 
z
" style="fill:#1f77b4;"/>
   </g>
   <g id="patch_22">
    <path clip-path="url(#p3c29fb5fcf)" d="M 148.375995 466.31625 
L 151.940494 466.31625 
L 151.940494 466.31625 
L 148.375995 466.31625 
z
" style="fill:#1f77b4;"/>
   </g>
   <g id="patch_23">
    <path clip-path="url(#p3c29fb5fcf)" d="M 151.940494 466.31625 
L 155.504992 466.31625 
L 155.504992 466.31625 
L 151.940494 466.31625 
z
" style="fill:#1f77b4;"/>
   </g>
   <g id="patch_24">
    <path clip-path="url(#p3c29fb5fcf)" d="M 155.504992 466.31625 
L 159.069491 466.31625 
L 159.069491 466.31625 
L 155.504992 466.31625 
z
" style="fill:#1f77b4;"/>
   </g>
   <g id="patch_25">
    <path clip-path="url(#p3c29fb5fcf)" d="M 159.069491 466.31625 
L 162.63399 466.31625 
L 162.63399 466.31625 
L 159.069491 466.31625 
z
" style="fill:#1f77b4;"/>
   </g>
   <g id="patch_26">
    <path clip-path="url(#p3c29fb5fcf)" d="M 162.63399 466.31625 
L 166.198489 466.31625 
L 166.198489 466.31625 
L 162.63399 466.31625 
z
" style="fill:#1f77b4;"/>
   </g>
   <g id="patch_27">
    <path clip-path="url(#p3c29fb5fcf)" d="M 166.198489 466.31625 
L 169.762987 466.31625 
L 169.762987 466.31625 
L 166.198489 466.31625 
z
" style="fill:#1f77b4;"/>
   </g>
   <g id="patch_28">
    <path clip-path="url(#p3c29fb5fcf)" d="M 169.762987 466.31625 
L 173.327486 466.31625 
L 173.327486 466.31625 
L 169.762987 466.31625 
z
" style="fill:#1f77b4;"/>
   </g>
   <g id="patch_29">
    <path clip-path="url(#p3c29fb5fcf)" d="M 173.327486 466.31625 
L 176.891985 466.31625 
L 176.891985 466.31625 
L 173.327486 466.31625 
z
" style="fill:#1f77b4;"/>
   </g>
   <g id="patch_30">
    <path clip-path="url(#p3c29fb5fcf)" d="M 176.891985 466.31625 
L 180.456484 466.31625 
L 180.456484 466.31625 
L 176.891985 466.31625 
z
" style="fill:#1f77b4;"/>
   </g>
   <g id="patch_31">
    <path clip-path="url(#p3c29fb5fcf)" d="M 180.456484 466.31625 
L 184.020982 466.31625 
L 184.020982 466.31625 
L 180.456484 466.31625 
z
" style="fill:#1f77b4;"/>
   </g>
   <g id="patch_32">
    <path clip-path="url(#p3c29fb5fcf)" d="M 184.020982 466.31625 
L 187.585481 466.31625 
L 187.585481 393.83625 
L 184.020982 393.83625 
z
" style="fill:#1f77b4;"/>
   </g>
   <g id="patch_33">
    <path clip-path="url(#p3c29fb5fcf)" d="M 187.585481 466.31625 
L 191.14998 466.31625 
L 191.14998 259.230536 
L 187.585481 259.230536 
z
" style="fill:#1f77b4;"/>
   </g>
   <g id="patch_34">
    <path clip-path="url(#p3c29fb5fcf)" d="M 191.14998 466.31625 
L 194.714479 466.31625 
L 194.714479 207.459107 
L 191.14998 207.459107 
z
" style="fill:#1f77b4;"/>
   </g>
   <g id="patch_35">
    <path clip-path="url(#p3c29fb5fcf)" d="M 194.714479 466.31625 
L 198.278977 466.31625 
L 198.278977 145.333393 
L 194.714479 145.333393 
z
" style="fill:#1f77b4;"/>
   </g>
   <g id="patch_36">
    <path clip-path="url(#p3c29fb5fcf)" d="M 198.278977 466.31625 
L 201.843476 466.31625 
L 201.843476 145.333393 
L 198.278977 145.333393 
z
" style="fill:#1f77b4;"/>
   </g>
   <g id="patch_37">
    <path clip-path="url(#p3c29fb5fcf)" d="M 201.843476 466.31625 
L 205.407975 466.31625 
L 205.407975 145.333393 
L 201.843476 145.333393 
z
" style="fill:#1f77b4;"/>
   </g>
   <g id="patch_38">
    <path clip-path="url(#p3c29fb5fcf)" d="M 205.407975 466.31625 
L 208.972473 466.31625 
L 208.972473 248.87625 
L 205.407975 248.87625 
z
" style="fill:#1f77b4;"/>
   </g>
   <g id="patch_39">
    <path clip-path="url(#p3c29fb5fcf)" d="M 208.972473 466.31625 
L 212.536972 466.31625 
L 212.536972 217.813393 
L 208.972473 217.813393 
z
" style="fill:#1f77b4;"/>
   </g>
   <g id="patch_40">
    <path clip-path="url(#p3c29fb5fcf)" d="M 212.536972 466.31625 
L 216.101471 466.31625 
L 216.101471 238.521964 
L 212.536972 238.521964 
z
" style="fill:#1f77b4;"/>
   </g>
   <g id="patch_41">
    <path clip-path="url(#p3c29fb5fcf)" d="M 216.101471 466.31625 
L 219.66597 466.31625 
L 219.66597 134.979107 
L 216.101471 134.979107 
z
" style="fill:#1f77b4;"/>
   </g>
   <g id="patch_42">
    <path clip-path="url(#p3c29fb5fcf)" d="M 219.66597 466.31625 
L 223.230468 466.31625 
L 223.230468 166.041964 
L 219.66597 166.041964 
z
" style="fill:#1f77b4;"/>
   </g>
   <g id="patch_43">
    <path clip-path="url(#p3c29fb5fcf)" d="M 223.230468 466.31625 
L 226.794967 466.31625 
L 226.794967 217.813393 
L 223.230468 217.813393 
z
" style="fill:#1f77b4;"/>
   </g>
   <g id="patch_44">
    <path clip-path="url(#p3c29fb5fcf)" d="M 226.794967 466.31625 
L 230.359466 466.31625 
L 230.359466 114.270536 
L 226.794967 114.270536 
z
" style="fill:#1f77b4;"/>
   </g>
   <g id="patch_45">
    <path clip-path="url(#p3c29fb5fcf)" d="M 230.359466 466.31625 
L 233.923965 466.31625 
L 233.923965 176.39625 
L 230.359466 176.39625 
z
" style="fill:#1f77b4;"/>
   </g>
   <g id="patch_46">
    <path clip-path="url(#p3c29fb5fcf)" d="M 233.923965 466.31625 
L 237.488463 466.31625 
L 237.488463 197.104821 
L 233.923965 197.104821 
z
" style="fill:#1f77b4;"/>
   </g>
   <g id="patch_47">
    <path clip-path="url(#p3c29fb5fcf)" d="M 237.488463 466.31625 
L 241.052962 466.31625 
L 241.052962 238.521964 
L 237.488463 238.521964 
z
" style="fill:#1f77b4;"/>
   </g>
   <g id="patch_48">
    <path clip-path="url(#p3c29fb5fcf)" d="M 241.052962 466.31625 
L 244.617461 466.31625 
L 244.617461 166.041964 
L 241.052962 166.041964 
z
" style="fill:#1f77b4;"/>
   </g>
   <g id="patch_49">
    <path clip-path="url(#p3c29fb5fcf)" d="M 244.617461 466.31625 
L 248.18196 466.31625 
L 248.18196 124.624821 
L 244.617461 124.624821 
z
" style="fill:#1f77b4;"/>
   </g>
   <g id="patch_50">
    <path clip-path="url(#p3c29fb5fcf)" d="M 248.18196 466.31625 
L 251.746458 466.31625 
L 251.746458 145.333393 
L 248.18196 145.333393 
z
" style="fill:#1f77b4;"/>
   </g>
   <g id="patch_51">
    <path clip-path="url(#p3c29fb5fcf)" d="M 251.746458 466.31625 
L 255.310957 466.31625 
L 255.310957 197.104821 
L 251.746458 197.104821 
z
" style="fill:#1f77b4;"/>
   </g>
   <g id="patch_52">
    <path clip-path="url(#p3c29fb5fcf)" d="M 255.310957 466.31625 
L 258.875456 466.31625 
L 258.875456 114.270536 
L 255.310957 114.270536 
z
" style="fill:#1f77b4;"/>
   </g>
   <g id="patch_53">
    <path clip-path="url(#p3c29fb5fcf)" d="M 258.875456 466.31625 
L 262.439955 466.31625 
L 262.439955 176.39625 
L 258.875456 176.39625 
z
" style="fill:#1f77b4;"/>
   </g>
   <g id="patch_54">
    <path clip-path="url(#p3c29fb5fcf)" d="M 262.439955 466.31625 
L 266.004453 466.31625 
L 266.004453 207.459107 
L 262.439955 207.459107 
z
" style="fill:#1f77b4;"/>
   </g>
   <g id="patch_55">
    <path clip-path="url(#p3c29fb5fcf)" d="M 266.004453 466.31625 
L 269.568952 466.31625 
L 269.568952 248.87625 
L 266.004453 248.87625 
z
" style="fill:#1f77b4;"/>
   </g>
   <g id="patch_56">
    <path clip-path="url(#p3c29fb5fcf)" d="M 269.568952 466.31625 
L 273.133451 466.31625 
L 273.133451 52.144821 
L 269.568952 52.144821 
z
" style="fill:#1f77b4;"/>
   </g>
   <g id="patch_57">
    <path clip-path="url(#p3c29fb5fcf)" d="M 273.133451 466.31625 
L 276.69795 466.31625 
L 276.69795 186.750536 
L 273.133451 186.750536 
z
" style="fill:#1f77b4;"/>
   </g>
   <g id="patch_58">
    <path clip-path="url(#p3c29fb5fcf)" d="M 276.69795 466.31625 
L 280.262448 466.31625 
L 280.262448 176.39625 
L 276.69795 176.39625 
z
" style="fill:#1f77b4;"/>
   </g>
   <g id="patch_59">
    <path clip-path="url(#p3c29fb5fcf)" d="M 280.262448 466.31625 
L 283.826947 466.31625 
L 283.826947 279.939107 
L 280.262448 279.939107 
z
" style="fill:#1f77b4;"/>
   </g>
   <g id="patch_60">
    <path clip-path="url(#p3c29fb5fcf)" d="M 283.826947 466.31625 
L 287.391446 466.31625 
L 287.391446 155.687679 
L 283.826947 155.687679 
z
" style="fill:#1f77b4;"/>
   </g>
   <g id="patch_61">
    <path clip-path="url(#p3c29fb5fcf)" d="M 287.391446 466.31625 
L 290.955945 466.31625 
L 290.955945 124.624821 
L 287.391446 124.624821 
z
" style="fill:#1f77b4;"/>
   </g>
   <g id="patch_62">
    <path clip-path="url(#p3c29fb5fcf)" d="M 290.955945 466.31625 
L 294.520443 466.31625 
L 294.520443 228.167679 
L 290.955945 228.167679 
z
" style="fill:#1f77b4;"/>
   </g>
   <g id="patch_63">
    <path clip-path="url(#p3c29fb5fcf)" d="M 294.520443 466.31625 
L 298.084942 466.31625 
L 298.084942 145.333393 
L 294.520443 145.333393 
z
" style="fill:#1f77b4;"/>
   </g>
   <g id="patch_64">
    <path clip-path="url(#p3c29fb5fcf)" d="M 298.084942 466.31625 
L 301.649441 466.31625 
L 301.649441 207.459107 
L 298.084942 207.459107 
z
" style="fill:#1f77b4;"/>
   </g>
   <g id="patch_65">
    <path clip-path="url(#p3c29fb5fcf)" d="M 301.649441 466.31625 
L 305.21394 466.31625 
L 305.21394 134.979107 
L 301.649441 134.979107 
z
" style="fill:#1f77b4;"/>
   </g>
   <g id="patch_66">
    <path clip-path="url(#p3c29fb5fcf)" d="M 305.21394 466.31625 
L 308.778438 466.31625 
L 308.778438 124.624821 
L 305.21394 124.624821 
z
" style="fill:#1f77b4;"/>
   </g>
   <g id="patch_67">
    <path clip-path="url(#p3c29fb5fcf)" d="M 308.778438 466.31625 
L 312.342937 466.31625 
L 312.342937 290.293393 
L 308.778438 290.293393 
z
" style="fill:#1f77b4;"/>
   </g>
   <g id="patch_68">
    <path clip-path="url(#p3c29fb5fcf)" d="M 312.342937 466.31625 
L 315.907436 466.31625 
L 315.907436 166.041964 
L 312.342937 166.041964 
z
" style="fill:#1f77b4;"/>
   </g>
   <g id="patch_69">
    <path clip-path="url(#p3c29fb5fcf)" d="M 315.907436 466.31625 
L 319.471935 466.31625 
L 319.471935 145.333393 
L 315.907436 145.333393 
z
" style="fill:#1f77b4;"/>
   </g>
   <g id="patch_70">
    <path clip-path="url(#p3c29fb5fcf)" d="M 319.471935 466.31625 
L 323.036433 466.31625 
L 323.036433 145.333393 
L 319.471935 145.333393 
z
" style="fill:#1f77b4;"/>
   </g>
   <g id="patch_71">
    <path clip-path="url(#p3c29fb5fcf)" d="M 323.036433 466.31625 
L 326.600932 466.31625 
L 326.600932 155.687679 
L 323.036433 155.687679 
z
" style="fill:#1f77b4;"/>
   </g>
   <g id="patch_72">
    <path clip-path="url(#p3c29fb5fcf)" d="M 326.600932 466.31625 
L 330.165431 466.31625 
L 330.165431 393.83625 
L 326.600932 393.83625 
z
" style="fill:#1f77b4;"/>
   </g>
   <g id="patch_73">
    <path clip-path="url(#p3c29fb5fcf)" d="M 330.165431 466.31625 
L 333.729929 466.31625 
L 333.729929 466.31625 
L 330.165431 466.31625 
z
" style="fill:#1f77b4;"/>
   </g>
   <g id="patch_74">
    <path clip-path="url(#p3c29fb5fcf)" d="M 333.729929 466.31625 
L 337.294428 466.31625 
L 337.294428 466.31625 
L 333.729929 466.31625 
z
" style="fill:#1f77b4;"/>
   </g>
   <g id="patch_75">
    <path clip-path="url(#p3c29fb5fcf)" d="M 337.294428 466.31625 
L 340.858927 466.31625 
L 340.858927 466.31625 
L 337.294428 466.31625 
z
" style="fill:#1f77b4;"/>
   </g>
   <g id="patch_76">
    <path clip-path="url(#p3c29fb5fcf)" d="M 340.858927 466.31625 
L 344.423426 466.31625 
L 344.423426 466.31625 
L 340.858927 466.31625 
z
" style="fill:#1f77b4;"/>
   </g>
   <g id="patch_77">
    <path clip-path="url(#p3c29fb5fcf)" d="M 344.423426 466.31625 
L 347.987924 466.31625 
L 347.987924 466.31625 
L 344.423426 466.31625 
z
" style="fill:#1f77b4;"/>
   </g>
   <g id="patch_78">
    <path clip-path="url(#p3c29fb5fcf)" d="M 347.987924 466.31625 
L 351.552423 466.31625 
L 351.552423 466.31625 
L 347.987924 466.31625 
z
" style="fill:#1f77b4;"/>
   </g>
   <g id="patch_79">
    <path clip-path="url(#p3c29fb5fcf)" d="M 351.552423 466.31625 
L 355.116922 466.31625 
L 355.116922 466.31625 
L 351.552423 466.31625 
z
" style="fill:#1f77b4;"/>
   </g>
   <g id="patch_80">
    <path clip-path="url(#p3c29fb5fcf)" d="M 355.116922 466.31625 
L 358.681421 466.31625 
L 358.681421 466.31625 
L 355.116922 466.31625 
z
" style="fill:#1f77b4;"/>
   </g>
   <g id="patch_81">
    <path clip-path="url(#p3c29fb5fcf)" d="M 358.681421 466.31625 
L 362.245919 466.31625 
L 362.245919 466.31625 
L 358.681421 466.31625 
z
" style="fill:#1f77b4;"/>
   </g>
   <g id="patch_82">
    <path clip-path="url(#p3c29fb5fcf)" d="M 362.245919 466.31625 
L 365.810418 466.31625 
L 365.810418 466.31625 
L 362.245919 466.31625 
z
" style="fill:#1f77b4;"/>
   </g>
   <g id="patch_83">
    <path clip-path="url(#p3c29fb5fcf)" d="M 365.810418 466.31625 
L 369.374917 466.31625 
L 369.374917 466.31625 
L 365.810418 466.31625 
z
" style="fill:#1f77b4;"/>
   </g>
   <g id="patch_84">
    <path clip-path="url(#p3c29fb5fcf)" d="M 369.374917 466.31625 
L 372.939416 466.31625 
L 372.939416 466.31625 
L 369.374917 466.31625 
z
" style="fill:#1f77b4;"/>
   </g>
   <g id="patch_85">
    <path clip-path="url(#p3c29fb5fcf)" d="M 372.939416 466.31625 
L 376.503914 466.31625 
L 376.503914 466.31625 
L 372.939416 466.31625 
z
" style="fill:#1f77b4;"/>
   </g>
   <g id="patch_86">
    <path clip-path="url(#p3c29fb5fcf)" d="M 376.503914 466.31625 
L 380.068413 466.31625 
L 380.068413 466.31625 
L 376.503914 466.31625 
z
" style="fill:#1f77b4;"/>
   </g>
   <g id="patch_87">
    <path clip-path="url(#p3c29fb5fcf)" d="M 380.068413 466.31625 
L 383.632912 466.31625 
L 383.632912 466.31625 
L 380.068413 466.31625 
z
" style="fill:#1f77b4;"/>
   </g>
   <g id="patch_88">
    <path clip-path="url(#p3c29fb5fcf)" d="M 383.632912 466.31625 
L 387.197411 466.31625 
L 387.197411 466.31625 
L 383.632912 466.31625 
z
" style="fill:#1f77b4;"/>
   </g>
   <g id="patch_89">
    <path clip-path="url(#p3c29fb5fcf)" d="M 387.197411 466.31625 
L 390.761909 466.31625 
L 390.761909 466.31625 
L 387.197411 466.31625 
z
" style="fill:#1f77b4;"/>
   </g>
   <g id="patch_90">
    <path clip-path="url(#p3c29fb5fcf)" d="M 390.761909 466.31625 
L 394.326408 466.31625 
L 394.326408 466.31625 
L 390.761909 466.31625 
z
" style="fill:#1f77b4;"/>
   </g>
   <g id="patch_91">
    <path clip-path="url(#p3c29fb5fcf)" d="M 394.326408 466.31625 
L 397.890907 466.31625 
L 397.890907 466.31625 
L 394.326408 466.31625 
z
" style="fill:#1f77b4;"/>
   </g>
   <g id="patch_92">
    <path clip-path="url(#p3c29fb5fcf)" d="M 397.890907 466.31625 
L 401.455406 466.31625 
L 401.455406 466.31625 
L 397.890907 466.31625 
z
" style="fill:#1f77b4;"/>
   </g>
   <g id="patch_93">
    <path clip-path="url(#p3c29fb5fcf)" d="M 401.455406 466.31625 
L 405.019904 466.31625 
L 405.019904 466.31625 
L 401.455406 466.31625 
z
" style="fill:#1f77b4;"/>
   </g>
   <g id="patch_94">
    <path clip-path="url(#p3c29fb5fcf)" d="M 405.019904 466.31625 
L 408.584403 466.31625 
L 408.584403 466.31625 
L 405.019904 466.31625 
z
" style="fill:#1f77b4;"/>
   </g>
   <g id="patch_95">
    <path clip-path="url(#p3c29fb5fcf)" d="M 408.584403 466.31625 
L 412.148902 466.31625 
L 412.148902 466.31625 
L 408.584403 466.31625 
z
" style="fill:#1f77b4;"/>
   </g>
   <g id="patch_96">
    <path clip-path="url(#p3c29fb5fcf)" d="M 412.148902 466.31625 
L 415.713401 466.31625 
L 415.713401 466.31625 
L 412.148902 466.31625 
z
" style="fill:#1f77b4;"/>
   </g>
   <g id="patch_97">
    <path clip-path="url(#p3c29fb5fcf)" d="M 415.713401 466.31625 
L 419.277899 466.31625 
L 419.277899 466.31625 
L 415.713401 466.31625 
z
" style="fill:#1f77b4;"/>
   </g>
   <g id="patch_98">
    <path clip-path="url(#p3c29fb5fcf)" d="M 419.277899 466.31625 
L 422.842398 466.31625 
L 422.842398 466.31625 
L 419.277899 466.31625 
z
" style="fill:#1f77b4;"/>
   </g>
   <g id="patch_99">
    <path clip-path="url(#p3c29fb5fcf)" d="M 422.842398 466.31625 
L 426.406897 466.31625 
L 426.406897 466.31625 
L 422.842398 466.31625 
z
" style="fill:#1f77b4;"/>
   </g>
   <g id="patch_100">
    <path clip-path="url(#p3c29fb5fcf)" d="M 426.406897 466.31625 
L 429.971396 466.31625 
L 429.971396 466.31625 
L 426.406897 466.31625 
z
" style="fill:#1f77b4;"/>
   </g>
   <g id="patch_101">
    <path clip-path="url(#p3c29fb5fcf)" d="M 429.971396 466.31625 
L 433.535894 466.31625 
L 433.535894 466.31625 
L 429.971396 466.31625 
z
" style="fill:#1f77b4;"/>
   </g>
   <g id="matplotlib.axis_1">
    <g id="xtick_1">
     <g id="line2d_1">
      <defs>
       <path d="M 0 0 
L 0 3.5 
" id="md8060071df" style="stroke:#000000;stroke-width:0.8;"/>
      </defs>
      <g>
       <use style="stroke:#000000;stroke-width:0.8;" x="80.650519" xlink:href="#md8060071df" y="466.31625"/>
      </g>
     </g>
     <g id="text_1">
      <!-- 0.0 -->
      <defs>
       <path d="M 31.78125 66.40625 
Q 24.171875 66.40625 20.328125 58.90625 
Q 16.5 51.421875 16.5 36.375 
Q 16.5 21.390625 20.328125 13.890625 
Q 24.171875 6.390625 31.78125 6.390625 
Q 39.453125 6.390625 43.28125 13.890625 
Q 47.125 21.390625 47.125 36.375 
Q 47.125 51.421875 43.28125 58.90625 
Q 39.453125 66.40625 31.78125 66.40625 
z
M 31.78125 74.21875 
Q 44.046875 74.21875 50.515625 64.515625 
Q 56.984375 54.828125 56.984375 36.375 
Q 56.984375 17.96875 50.515625 8.265625 
Q 44.046875 -1.421875 31.78125 -1.421875 
Q 19.53125 -1.421875 13.0625 8.265625 
Q 6.59375 17.96875 6.59375 36.375 
Q 6.59375 54.828125 13.0625 64.515625 
Q 19.53125 74.21875 31.78125 74.21875 
z
" id="DejaVuSans-48"/>
       <path d="M 10.6875 12.40625 
L 21 12.40625 
L 21 0 
L 10.6875 0 
z
" id="DejaVuSans-46"/>
      </defs>
      <g transform="translate(64.747394 488.513125)scale(0.2 -0.2)">
       <use xlink:href="#DejaVuSans-48"/>
       <use x="63.623047" xlink:href="#DejaVuSans-46"/>
       <use x="95.410156" xlink:href="#DejaVuSans-48"/>
      </g>
     </g>
    </g>
    <g id="xtick_2">
     <g id="line2d_2">
      <g>
       <use style="stroke:#000000;stroke-width:0.8;" x="151.227594" xlink:href="#md8060071df" y="466.31625"/>
      </g>
     </g>
     <g id="text_2">
      <!-- 0.2 -->
      <defs>
       <path d="M 19.1875 8.296875 
L 53.609375 8.296875 
L 53.609375 0 
L 7.328125 0 
L 7.328125 8.296875 
Q 12.9375 14.109375 22.625 23.890625 
Q 32.328125 33.6875 34.8125 36.53125 
Q 39.546875 41.84375 41.421875 45.53125 
Q 43.3125 49.21875 43.3125 52.78125 
Q 43.3125 58.59375 39.234375 62.25 
Q 35.15625 65.921875 28.609375 65.921875 
Q 23.96875 65.921875 18.8125 64.3125 
Q 13.671875 62.703125 7.8125 59.421875 
L 7.8125 69.390625 
Q 13.765625 71.78125 18.9375 73 
Q 24.125 74.21875 28.421875 74.21875 
Q 39.75 74.21875 46.484375 68.546875 
Q 53.21875 62.890625 53.21875 53.421875 
Q 53.21875 48.921875 51.53125 44.890625 
Q 49.859375 40.875 45.40625 35.40625 
Q 44.1875 33.984375 37.640625 27.21875 
Q 31.109375 20.453125 19.1875 8.296875 
z
" id="DejaVuSans-50"/>
      </defs>
      <g transform="translate(135.324469 488.513125)scale(0.2 -0.2)">
       <use xlink:href="#DejaVuSans-48"/>
       <use x="63.623047" xlink:href="#DejaVuSans-46"/>
       <use x="95.410156" xlink:href="#DejaVuSans-50"/>
      </g>
     </g>
    </g>
    <g id="xtick_3">
     <g id="line2d_3">
      <g>
       <use style="stroke:#000000;stroke-width:0.8;" x="221.804669" xlink:href="#md8060071df" y="466.31625"/>
      </g>
     </g>
     <g id="text_3">
      <!-- 0.4 -->
      <defs>
       <path d="M 37.796875 64.3125 
L 12.890625 25.390625 
L 37.796875 25.390625 
z
M 35.203125 72.90625 
L 47.609375 72.90625 
L 47.609375 25.390625 
L 58.015625 25.390625 
L 58.015625 17.1875 
L 47.609375 17.1875 
L 47.609375 0 
L 37.796875 0 
L 37.796875 17.1875 
L 4.890625 17.1875 
L 4.890625 26.703125 
z
" id="DejaVuSans-52"/>
      </defs>
      <g transform="translate(205.901544 488.513125)scale(0.2 -0.2)">
       <use xlink:href="#DejaVuSans-48"/>
       <use x="63.623047" xlink:href="#DejaVuSans-46"/>
       <use x="95.410156" xlink:href="#DejaVuSans-52"/>
      </g>
     </g>
    </g>
    <g id="xtick_4">
     <g id="line2d_4">
      <g>
       <use style="stroke:#000000;stroke-width:0.8;" x="292.381744" xlink:href="#md8060071df" y="466.31625"/>
      </g>
     </g>
     <g id="text_4">
      <!-- 0.6 -->
      <defs>
       <path d="M 33.015625 40.375 
Q 26.375 40.375 22.484375 35.828125 
Q 18.609375 31.296875 18.609375 23.390625 
Q 18.609375 15.53125 22.484375 10.953125 
Q 26.375 6.390625 33.015625 6.390625 
Q 39.65625 6.390625 43.53125 10.953125 
Q 47.40625 15.53125 47.40625 23.390625 
Q 47.40625 31.296875 43.53125 35.828125 
Q 39.65625 40.375 33.015625 40.375 
z
M 52.59375 71.296875 
L 52.59375 62.3125 
Q 48.875 64.0625 45.09375 64.984375 
Q 41.3125 65.921875 37.59375 65.921875 
Q 27.828125 65.921875 22.671875 59.328125 
Q 17.53125 52.734375 16.796875 39.40625 
Q 19.671875 43.65625 24.015625 45.921875 
Q 28.375 48.1875 33.59375 48.1875 
Q 44.578125 48.1875 50.953125 41.515625 
Q 57.328125 34.859375 57.328125 23.390625 
Q 57.328125 12.15625 50.6875 5.359375 
Q 44.046875 -1.421875 33.015625 -1.421875 
Q 20.359375 -1.421875 13.671875 8.265625 
Q 6.984375 17.96875 6.984375 36.375 
Q 6.984375 53.65625 15.1875 63.9375 
Q 23.390625 74.21875 37.203125 74.21875 
Q 40.921875 74.21875 44.703125 73.484375 
Q 48.484375 72.75 52.59375 71.296875 
z
" id="DejaVuSans-54"/>
      </defs>
      <g transform="translate(276.478619 488.513125)scale(0.2 -0.2)">
       <use xlink:href="#DejaVuSans-48"/>
       <use x="63.623047" xlink:href="#DejaVuSans-46"/>
       <use x="95.410156" xlink:href="#DejaVuSans-54"/>
      </g>
     </g>
    </g>
    <g id="xtick_5">
     <g id="line2d_5">
      <g>
       <use style="stroke:#000000;stroke-width:0.8;" x="362.958819" xlink:href="#md8060071df" y="466.31625"/>
      </g>
     </g>
     <g id="text_5">
      <!-- 0.8 -->
      <defs>
       <path d="M 31.78125 34.625 
Q 24.75 34.625 20.71875 30.859375 
Q 16.703125 27.09375 16.703125 20.515625 
Q 16.703125 13.921875 20.71875 10.15625 
Q 24.75 6.390625 31.78125 6.390625 
Q 38.8125 6.390625 42.859375 10.171875 
Q 46.921875 13.96875 46.921875 20.515625 
Q 46.921875 27.09375 42.890625 30.859375 
Q 38.875 34.625 31.78125 34.625 
z
M 21.921875 38.8125 
Q 15.578125 40.375 12.03125 44.71875 
Q 8.5 49.078125 8.5 55.328125 
Q 8.5 64.0625 14.71875 69.140625 
Q 20.953125 74.21875 31.78125 74.21875 
Q 42.671875 74.21875 48.875 69.140625 
Q 55.078125 64.0625 55.078125 55.328125 
Q 55.078125 49.078125 51.53125 44.71875 
Q 48 40.375 41.703125 38.8125 
Q 48.828125 37.15625 52.796875 32.3125 
Q 56.78125 27.484375 56.78125 20.515625 
Q 56.78125 9.90625 50.3125 4.234375 
Q 43.84375 -1.421875 31.78125 -1.421875 
Q 19.734375 -1.421875 13.25 4.234375 
Q 6.78125 9.90625 6.78125 20.515625 
Q 6.78125 27.484375 10.78125 32.3125 
Q 14.796875 37.15625 21.921875 38.8125 
z
M 18.3125 54.390625 
Q 18.3125 48.734375 21.84375 45.5625 
Q 25.390625 42.390625 31.78125 42.390625 
Q 38.140625 42.390625 41.71875 45.5625 
Q 45.3125 48.734375 45.3125 54.390625 
Q 45.3125 60.0625 41.71875 63.234375 
Q 38.140625 66.40625 31.78125 66.40625 
Q 25.390625 66.40625 21.84375 63.234375 
Q 18.3125 60.0625 18.3125 54.390625 
z
" id="DejaVuSans-56"/>
      </defs>
      <g transform="translate(347.055694 488.513125)scale(0.2 -0.2)">
       <use xlink:href="#DejaVuSans-48"/>
       <use x="63.623047" xlink:href="#DejaVuSans-46"/>
       <use x="95.410156" xlink:href="#DejaVuSans-56"/>
      </g>
     </g>
    </g>
    <g id="xtick_6">
     <g id="line2d_6">
      <g>
       <use style="stroke:#000000;stroke-width:0.8;" x="433.535894" xlink:href="#md8060071df" y="466.31625"/>
      </g>
     </g>
     <g id="text_6">
      <!-- 1.0 -->
      <defs>
       <path d="M 12.40625 8.296875 
L 28.515625 8.296875 
L 28.515625 63.921875 
L 10.984375 60.40625 
L 10.984375 69.390625 
L 28.421875 72.90625 
L 38.28125 72.90625 
L 38.28125 8.296875 
L 54.390625 8.296875 
L 54.390625 0 
L 12.40625 0 
z
" id="DejaVuSans-49"/>
      </defs>
      <g transform="translate(417.632769 488.513125)scale(0.2 -0.2)">
       <use xlink:href="#DejaVuSans-49"/>
       <use x="63.623047" xlink:href="#DejaVuSans-46"/>
       <use x="95.410156" xlink:href="#DejaVuSans-48"/>
      </g>
     </g>
    </g>
   </g>
   <g id="matplotlib.axis_2">
    <g id="ytick_1">
     <g id="line2d_7">
      <defs>
       <path d="M 0 0 
L -3.5 0 
" id="m4ac82593d9" style="stroke:#000000;stroke-width:0.8;"/>
      </defs>
      <g>
       <use style="stroke:#000000;stroke-width:0.8;" x="63.00625" xlink:href="#m4ac82593d9" y="466.31625"/>
      </g>
     </g>
     <g id="text_7">
      <!-- 0 -->
      <g transform="translate(43.28125 473.914688)scale(0.2 -0.2)">
       <use xlink:href="#DejaVuSans-48"/>
      </g>
     </g>
    </g>
    <g id="ytick_2">
     <g id="line2d_8">
      <g>
       <use style="stroke:#000000;stroke-width:0.8;" x="63.00625" xlink:href="#m4ac82593d9" y="414.544821"/>
      </g>
     </g>
     <g id="text_8">
      <!-- 5 -->
      <defs>
       <path d="M 10.796875 72.90625 
L 49.515625 72.90625 
L 49.515625 64.59375 
L 19.828125 64.59375 
L 19.828125 46.734375 
Q 21.96875 47.46875 24.109375 47.828125 
Q 26.265625 48.1875 28.421875 48.1875 
Q 40.625 48.1875 47.75 41.5 
Q 54.890625 34.8125 54.890625 23.390625 
Q 54.890625 11.625 47.5625 5.09375 
Q 40.234375 -1.421875 26.90625 -1.421875 
Q 22.3125 -1.421875 17.546875 -0.640625 
Q 12.796875 0.140625 7.71875 1.703125 
L 7.71875 11.625 
Q 12.109375 9.234375 16.796875 8.0625 
Q 21.484375 6.890625 26.703125 6.890625 
Q 35.15625 6.890625 40.078125 11.328125 
Q 45.015625 15.765625 45.015625 23.390625 
Q 45.015625 31 40.078125 35.4375 
Q 35.15625 39.890625 26.703125 39.890625 
Q 22.75 39.890625 18.8125 39.015625 
Q 14.890625 38.140625 10.796875 36.28125 
z
" id="DejaVuSans-53"/>
      </defs>
      <g transform="translate(43.28125 422.143259)scale(0.2 -0.2)">
       <use xlink:href="#DejaVuSans-53"/>
      </g>
     </g>
    </g>
    <g id="ytick_3">
     <g id="line2d_9">
      <g>
       <use style="stroke:#000000;stroke-width:0.8;" x="63.00625" xlink:href="#m4ac82593d9" y="362.773393"/>
      </g>
     </g>
     <g id="text_9">
      <!-- 10 -->
      <g transform="translate(30.55625 370.37183)scale(0.2 -0.2)">
       <use xlink:href="#DejaVuSans-49"/>
       <use x="63.623047" xlink:href="#DejaVuSans-48"/>
      </g>
     </g>
    </g>
    <g id="ytick_4">
     <g id="line2d_10">
      <g>
       <use style="stroke:#000000;stroke-width:0.8;" x="63.00625" xlink:href="#m4ac82593d9" y="311.001964"/>
      </g>
     </g>
     <g id="text_10">
      <!-- 15 -->
      <g transform="translate(30.55625 318.600402)scale(0.2 -0.2)">
       <use xlink:href="#DejaVuSans-49"/>
       <use x="63.623047" xlink:href="#DejaVuSans-53"/>
      </g>
     </g>
    </g>
    <g id="ytick_5">
     <g id="line2d_11">
      <g>
       <use style="stroke:#000000;stroke-width:0.8;" x="63.00625" xlink:href="#m4ac82593d9" y="259.230536"/>
      </g>
     </g>
     <g id="text_11">
      <!-- 20 -->
      <g transform="translate(30.55625 266.828973)scale(0.2 -0.2)">
       <use xlink:href="#DejaVuSans-50"/>
       <use x="63.623047" xlink:href="#DejaVuSans-48"/>
      </g>
     </g>
    </g>
    <g id="ytick_6">
     <g id="line2d_12">
      <g>
       <use style="stroke:#000000;stroke-width:0.8;" x="63.00625" xlink:href="#m4ac82593d9" y="207.459107"/>
      </g>
     </g>
     <g id="text_12">
      <!-- 25 -->
      <g transform="translate(30.55625 215.057545)scale(0.2 -0.2)">
       <use xlink:href="#DejaVuSans-50"/>
       <use x="63.623047" xlink:href="#DejaVuSans-53"/>
      </g>
     </g>
    </g>
    <g id="ytick_7">
     <g id="line2d_13">
      <g>
       <use style="stroke:#000000;stroke-width:0.8;" x="63.00625" xlink:href="#m4ac82593d9" y="155.687679"/>
      </g>
     </g>
     <g id="text_13">
      <!-- 30 -->
      <defs>
       <path d="M 40.578125 39.3125 
Q 47.65625 37.796875 51.625 33 
Q 55.609375 28.21875 55.609375 21.1875 
Q 55.609375 10.40625 48.1875 4.484375 
Q 40.765625 -1.421875 27.09375 -1.421875 
Q 22.515625 -1.421875 17.65625 -0.515625 
Q 12.796875 0.390625 7.625 2.203125 
L 7.625 11.71875 
Q 11.71875 9.328125 16.59375 8.109375 
Q 21.484375 6.890625 26.8125 6.890625 
Q 36.078125 6.890625 40.9375 10.546875 
Q 45.796875 14.203125 45.796875 21.1875 
Q 45.796875 27.640625 41.28125 31.265625 
Q 36.765625 34.90625 28.71875 34.90625 
L 20.21875 34.90625 
L 20.21875 43.015625 
L 29.109375 43.015625 
Q 36.375 43.015625 40.234375 45.921875 
Q 44.09375 48.828125 44.09375 54.296875 
Q 44.09375 59.90625 40.109375 62.90625 
Q 36.140625 65.921875 28.71875 65.921875 
Q 24.65625 65.921875 20.015625 65.03125 
Q 15.375 64.15625 9.8125 62.3125 
L 9.8125 71.09375 
Q 15.4375 72.65625 20.34375 73.4375 
Q 25.25 74.21875 29.59375 74.21875 
Q 40.828125 74.21875 47.359375 69.109375 
Q 53.90625 64.015625 53.90625 55.328125 
Q 53.90625 49.265625 50.4375 45.09375 
Q 46.96875 40.921875 40.578125 39.3125 
z
" id="DejaVuSans-51"/>
      </defs>
      <g transform="translate(30.55625 163.286116)scale(0.2 -0.2)">
       <use xlink:href="#DejaVuSans-51"/>
       <use x="63.623047" xlink:href="#DejaVuSans-48"/>
      </g>
     </g>
    </g>
    <g id="ytick_8">
     <g id="line2d_14">
      <g>
       <use style="stroke:#000000;stroke-width:0.8;" x="63.00625" xlink:href="#m4ac82593d9" y="103.91625"/>
      </g>
     </g>
     <g id="text_14">
      <!-- 35 -->
      <g transform="translate(30.55625 111.514688)scale(0.2 -0.2)">
       <use xlink:href="#DejaVuSans-51"/>
       <use x="63.623047" xlink:href="#DejaVuSans-53"/>
      </g>
     </g>
    </g>
    <g id="ytick_9">
     <g id="line2d_15">
      <g>
       <use style="stroke:#000000;stroke-width:0.8;" x="63.00625" xlink:href="#m4ac82593d9" y="52.144821"/>
      </g>
     </g>
     <g id="text_15">
      <!-- 40 -->
      <g transform="translate(30.55625 59.743259)scale(0.2 -0.2)">
       <use xlink:href="#DejaVuSans-52"/>
       <use x="63.623047" xlink:href="#DejaVuSans-48"/>
      </g>
     </g>
    </g>
    <g id="text_16">
     <!-- Number of planets -->
     <defs>
      <path d="M 9.8125 72.90625 
L 23.09375 72.90625 
L 55.421875 11.921875 
L 55.421875 72.90625 
L 64.984375 72.90625 
L 64.984375 0 
L 51.703125 0 
L 19.390625 60.984375 
L 19.390625 0 
L 9.8125 0 
z
" id="DejaVuSans-78"/>
      <path d="M 8.5 21.578125 
L 8.5 54.6875 
L 17.484375 54.6875 
L 17.484375 21.921875 
Q 17.484375 14.15625 20.5 10.265625 
Q 23.53125 6.390625 29.59375 6.390625 
Q 36.859375 6.390625 41.078125 11.03125 
Q 45.3125 15.671875 45.3125 23.6875 
L 45.3125 54.6875 
L 54.296875 54.6875 
L 54.296875 0 
L 45.3125 0 
L 45.3125 8.40625 
Q 42.046875 3.421875 37.71875 1 
Q 33.40625 -1.421875 27.6875 -1.421875 
Q 18.265625 -1.421875 13.375 4.4375 
Q 8.5 10.296875 8.5 21.578125 
z
M 31.109375 56 
z
" id="DejaVuSans-117"/>
      <path d="M 52 44.1875 
Q 55.375 50.25 60.0625 53.125 
Q 64.75 56 71.09375 56 
Q 79.640625 56 84.28125 50.015625 
Q 88.921875 44.046875 88.921875 33.015625 
L 88.921875 0 
L 79.890625 0 
L 79.890625 32.71875 
Q 79.890625 40.578125 77.09375 44.375 
Q 74.3125 48.1875 68.609375 48.1875 
Q 61.625 48.1875 57.5625 43.546875 
Q 53.515625 38.921875 53.515625 30.90625 
L 53.515625 0 
L 44.484375 0 
L 44.484375 32.71875 
Q 44.484375 40.625 41.703125 44.40625 
Q 38.921875 48.1875 33.109375 48.1875 
Q 26.21875 48.1875 22.15625 43.53125 
Q 18.109375 38.875 18.109375 30.90625 
L 18.109375 0 
L 9.078125 0 
L 9.078125 54.6875 
L 18.109375 54.6875 
L 18.109375 46.1875 
Q 21.1875 51.21875 25.484375 53.609375 
Q 29.78125 56 35.6875 56 
Q 41.65625 56 45.828125 52.96875 
Q 50 49.953125 52 44.1875 
z
" id="DejaVuSans-109"/>
      <path d="M 48.6875 27.296875 
Q 48.6875 37.203125 44.609375 42.84375 
Q 40.53125 48.484375 33.40625 48.484375 
Q 26.265625 48.484375 22.1875 42.84375 
Q 18.109375 37.203125 18.109375 27.296875 
Q 18.109375 17.390625 22.1875 11.75 
Q 26.265625 6.109375 33.40625 6.109375 
Q 40.53125 6.109375 44.609375 11.75 
Q 48.6875 17.390625 48.6875 27.296875 
z
M 18.109375 46.390625 
Q 20.953125 51.265625 25.265625 53.625 
Q 29.59375 56 35.59375 56 
Q 45.5625 56 51.78125 48.09375 
Q 58.015625 40.1875 58.015625 27.296875 
Q 58.015625 14.40625 51.78125 6.484375 
Q 45.5625 -1.421875 35.59375 -1.421875 
Q 29.59375 -1.421875 25.265625 0.953125 
Q 20.953125 3.328125 18.109375 8.203125 
L 18.109375 0 
L 9.078125 0 
L 9.078125 75.984375 
L 18.109375 75.984375 
z
" id="DejaVuSans-98"/>
      <path d="M 56.203125 29.59375 
L 56.203125 25.203125 
L 14.890625 25.203125 
Q 15.484375 15.921875 20.484375 11.0625 
Q 25.484375 6.203125 34.421875 6.203125 
Q 39.59375 6.203125 44.453125 7.46875 
Q 49.3125 8.734375 54.109375 11.28125 
L 54.109375 2.78125 
Q 49.265625 0.734375 44.1875 -0.34375 
Q 39.109375 -1.421875 33.890625 -1.421875 
Q 20.796875 -1.421875 13.15625 6.1875 
Q 5.515625 13.8125 5.515625 26.8125 
Q 5.515625 40.234375 12.765625 48.109375 
Q 20.015625 56 32.328125 56 
Q 43.359375 56 49.78125 48.890625 
Q 56.203125 41.796875 56.203125 29.59375 
z
M 47.21875 32.234375 
Q 47.125 39.59375 43.09375 43.984375 
Q 39.0625 48.390625 32.421875 48.390625 
Q 24.90625 48.390625 20.390625 44.140625 
Q 15.875 39.890625 15.1875 32.171875 
z
" id="DejaVuSans-101"/>
      <path d="M 41.109375 46.296875 
Q 39.59375 47.171875 37.8125 47.578125 
Q 36.03125 48 33.890625 48 
Q 26.265625 48 22.1875 43.046875 
Q 18.109375 38.09375 18.109375 28.8125 
L 18.109375 0 
L 9.078125 0 
L 9.078125 54.6875 
L 18.109375 54.6875 
L 18.109375 46.1875 
Q 20.953125 51.171875 25.484375 53.578125 
Q 30.03125 56 36.53125 56 
Q 37.453125 56 38.578125 55.875 
Q 39.703125 55.765625 41.0625 55.515625 
z
" id="DejaVuSans-114"/>
      <path id="DejaVuSans-32"/>
      <path d="M 30.609375 48.390625 
Q 23.390625 48.390625 19.1875 42.75 
Q 14.984375 37.109375 14.984375 27.296875 
Q 14.984375 17.484375 19.15625 11.84375 
Q 23.34375 6.203125 30.609375 6.203125 
Q 37.796875 6.203125 41.984375 11.859375 
Q 46.1875 17.53125 46.1875 27.296875 
Q 46.1875 37.015625 41.984375 42.703125 
Q 37.796875 48.390625 30.609375 48.390625 
z
M 30.609375 56 
Q 42.328125 56 49.015625 48.375 
Q 55.71875 40.765625 55.71875 27.296875 
Q 55.71875 13.875 49.015625 6.21875 
Q 42.328125 -1.421875 30.609375 -1.421875 
Q 18.84375 -1.421875 12.171875 6.21875 
Q 5.515625 13.875 5.515625 27.296875 
Q 5.515625 40.765625 12.171875 48.375 
Q 18.84375 56 30.609375 56 
z
" id="DejaVuSans-111"/>
      <path d="M 37.109375 75.984375 
L 37.109375 68.5 
L 28.515625 68.5 
Q 23.6875 68.5 21.796875 66.546875 
Q 19.921875 64.59375 19.921875 59.515625 
L 19.921875 54.6875 
L 34.71875 54.6875 
L 34.71875 47.703125 
L 19.921875 47.703125 
L 19.921875 0 
L 10.890625 0 
L 10.890625 47.703125 
L 2.296875 47.703125 
L 2.296875 54.6875 
L 10.890625 54.6875 
L 10.890625 58.5 
Q 10.890625 67.625 15.140625 71.796875 
Q 19.390625 75.984375 28.609375 75.984375 
z
" id="DejaVuSans-102"/>
      <path d="M 18.109375 8.203125 
L 18.109375 -20.796875 
L 9.078125 -20.796875 
L 9.078125 54.6875 
L 18.109375 54.6875 
L 18.109375 46.390625 
Q 20.953125 51.265625 25.265625 53.625 
Q 29.59375 56 35.59375 56 
Q 45.5625 56 51.78125 48.09375 
Q 58.015625 40.1875 58.015625 27.296875 
Q 58.015625 14.40625 51.78125 6.484375 
Q 45.5625 -1.421875 35.59375 -1.421875 
Q 29.59375 -1.421875 25.265625 0.953125 
Q 20.953125 3.328125 18.109375 8.203125 
z
M 48.6875 27.296875 
Q 48.6875 37.203125 44.609375 42.84375 
Q 40.53125 48.484375 33.40625 48.484375 
Q 26.265625 48.484375 22.1875 42.84375 
Q 18.109375 37.203125 18.109375 27.296875 
Q 18.109375 17.390625 22.1875 11.75 
Q 26.265625 6.109375 33.40625 6.109375 
Q 40.53125 6.109375 44.609375 11.75 
Q 48.6875 17.390625 48.6875 27.296875 
z
" id="DejaVuSans-112"/>
      <path d="M 9.421875 75.984375 
L 18.40625 75.984375 
L 18.40625 0 
L 9.421875 0 
z
" id="DejaVuSans-108"/>
      <path d="M 34.28125 27.484375 
Q 23.390625 27.484375 19.1875 25 
Q 14.984375 22.515625 14.984375 16.5 
Q 14.984375 11.71875 18.140625 8.90625 
Q 21.296875 6.109375 26.703125 6.109375 
Q 34.1875 6.109375 38.703125 11.40625 
Q 43.21875 16.703125 43.21875 25.484375 
L 43.21875 27.484375 
z
M 52.203125 31.203125 
L 52.203125 0 
L 43.21875 0 
L 43.21875 8.296875 
Q 40.140625 3.328125 35.546875 0.953125 
Q 30.953125 -1.421875 24.3125 -1.421875 
Q 15.921875 -1.421875 10.953125 3.296875 
Q 6 8.015625 6 15.921875 
Q 6 25.140625 12.171875 29.828125 
Q 18.359375 34.515625 30.609375 34.515625 
L 43.21875 34.515625 
L 43.21875 35.40625 
Q 43.21875 41.609375 39.140625 45 
Q 35.0625 48.390625 27.6875 48.390625 
Q 23 48.390625 18.546875 47.265625 
Q 14.109375 46.140625 10.015625 43.890625 
L 10.015625 52.203125 
Q 14.9375 54.109375 19.578125 55.046875 
Q 24.21875 56 28.609375 56 
Q 40.484375 56 46.34375 49.84375 
Q 52.203125 43.703125 52.203125 31.203125 
z
" id="DejaVuSans-97"/>
      <path d="M 54.890625 33.015625 
L 54.890625 0 
L 45.90625 0 
L 45.90625 32.71875 
Q 45.90625 40.484375 42.875 44.328125 
Q 39.84375 48.1875 33.796875 48.1875 
Q 26.515625 48.1875 22.3125 43.546875 
Q 18.109375 38.921875 18.109375 30.90625 
L 18.109375 0 
L 9.078125 0 
L 9.078125 54.6875 
L 18.109375 54.6875 
L 18.109375 46.1875 
Q 21.34375 51.125 25.703125 53.5625 
Q 30.078125 56 35.796875 56 
Q 45.21875 56 50.046875 50.171875 
Q 54.890625 44.34375 54.890625 33.015625 
z
" id="DejaVuSans-110"/>
      <path d="M 18.3125 70.21875 
L 18.3125 54.6875 
L 36.8125 54.6875 
L 36.8125 47.703125 
L 18.3125 47.703125 
L 18.3125 18.015625 
Q 18.3125 11.328125 20.140625 9.421875 
Q 21.96875 7.515625 27.59375 7.515625 
L 36.8125 7.515625 
L 36.8125 0 
L 27.59375 0 
Q 17.1875 0 13.234375 3.875 
Q 9.28125 7.765625 9.28125 18.015625 
L 9.28125 47.703125 
L 2.6875 47.703125 
L 2.6875 54.6875 
L 9.28125 54.6875 
L 9.28125 70.21875 
z
" id="DejaVuSans-116"/>
      <path d="M 44.28125 53.078125 
L 44.28125 44.578125 
Q 40.484375 46.53125 36.375 47.5 
Q 32.28125 48.484375 27.875 48.484375 
Q 21.1875 48.484375 17.84375 46.4375 
Q 14.5 44.390625 14.5 40.28125 
Q 14.5 37.15625 16.890625 35.375 
Q 19.28125 33.59375 26.515625 31.984375 
L 29.59375 31.296875 
Q 39.15625 29.25 43.1875 25.515625 
Q 47.21875 21.78125 47.21875 15.09375 
Q 47.21875 7.46875 41.1875 3.015625 
Q 35.15625 -1.421875 24.609375 -1.421875 
Q 20.21875 -1.421875 15.453125 -0.5625 
Q 10.6875 0.296875 5.421875 2 
L 5.421875 11.28125 
Q 10.40625 8.6875 15.234375 7.390625 
Q 20.0625 6.109375 24.8125 6.109375 
Q 31.15625 6.109375 34.5625 8.28125 
Q 37.984375 10.453125 37.984375 14.40625 
Q 37.984375 18.0625 35.515625 20.015625 
Q 33.0625 21.96875 24.703125 23.78125 
L 21.578125 24.515625 
Q 13.234375 26.265625 9.515625 29.90625 
Q 5.8125 33.546875 5.8125 39.890625 
Q 5.8125 47.609375 11.28125 51.796875 
Q 16.75 56 26.8125 56 
Q 31.78125 56 36.171875 55.265625 
Q 40.578125 54.546875 44.28125 53.078125 
z
" id="DejaVuSans-115"/>
     </defs>
     <g transform="translate(22.396875 341.918437)rotate(-90)scale(0.2 -0.2)">
      <use xlink:href="#DejaVuSans-78"/>
      <use x="74.804688" xlink:href="#DejaVuSans-117"/>
      <use x="138.183594" xlink:href="#DejaVuSans-109"/>
      <use x="235.595703" xlink:href="#DejaVuSans-98"/>
      <use x="299.072266" xlink:href="#DejaVuSans-101"/>
      <use x="360.595703" xlink:href="#DejaVuSans-114"/>
      <use x="401.708984" xlink:href="#DejaVuSans-32"/>
      <use x="433.496094" xlink:href="#DejaVuSans-111"/>
      <use x="494.677734" xlink:href="#DejaVuSans-102"/>
      <use x="529.882812" xlink:href="#DejaVuSans-32"/>
      <use x="561.669922" xlink:href="#DejaVuSans-112"/>
      <use x="625.146484" xlink:href="#DejaVuSans-108"/>
      <use x="652.929688" xlink:href="#DejaVuSans-97"/>
      <use x="714.208984" xlink:href="#DejaVuSans-110"/>
      <use x="777.587891" xlink:href="#DejaVuSans-101"/>
      <use x="839.111328" xlink:href="#DejaVuSans-116"/>
      <use x="878.320312" xlink:href="#DejaVuSans-115"/>
     </g>
    </g>
   </g>
   <g id="patch_102">
    <path d="M 63.00625 466.31625 
L 63.00625 31.43625 
" style="fill:none;stroke:#000000;stroke-linecap:square;stroke-linejoin:miter;stroke-width:0.8;"/>
   </g>
   <g id="patch_103">
    <path d="M 451.180163 466.31625 
L 451.180163 31.43625 
" style="fill:none;stroke:#000000;stroke-linecap:square;stroke-linejoin:miter;stroke-width:0.8;"/>
   </g>
   <g id="patch_104">
    <path d="M 63.00625 466.31625 
L 451.180163 466.31625 
" style="fill:none;stroke:#000000;stroke-linecap:square;stroke-linejoin:miter;stroke-width:0.8;"/>
   </g>
   <g id="patch_105">
    <path d="M 63.00625 31.43625 
L 451.180163 31.43625 
" style="fill:none;stroke:#000000;stroke-linecap:square;stroke-linejoin:miter;stroke-width:0.8;"/>
   </g>
   <g id="text_17">
    <!-- exo-Earth candidates -->
    <defs>
     <path d="M 54.890625 54.6875 
L 35.109375 28.078125 
L 55.90625 0 
L 45.3125 0 
L 29.390625 21.484375 
L 13.484375 0 
L 2.875 0 
L 24.125 28.609375 
L 4.6875 54.6875 
L 15.28125 54.6875 
L 29.78125 35.203125 
L 44.28125 54.6875 
z
" id="DejaVuSans-120"/>
     <path d="M 4.890625 31.390625 
L 31.203125 31.390625 
L 31.203125 23.390625 
L 4.890625 23.390625 
z
" id="DejaVuSans-45"/>
     <path d="M 9.8125 72.90625 
L 55.90625 72.90625 
L 55.90625 64.59375 
L 19.671875 64.59375 
L 19.671875 43.015625 
L 54.390625 43.015625 
L 54.390625 34.71875 
L 19.671875 34.71875 
L 19.671875 8.296875 
L 56.78125 8.296875 
L 56.78125 0 
L 9.8125 0 
z
" id="DejaVuSans-69"/>
     <path d="M 54.890625 33.015625 
L 54.890625 0 
L 45.90625 0 
L 45.90625 32.71875 
Q 45.90625 40.484375 42.875 44.328125 
Q 39.84375 48.1875 33.796875 48.1875 
Q 26.515625 48.1875 22.3125 43.546875 
Q 18.109375 38.921875 18.109375 30.90625 
L 18.109375 0 
L 9.078125 0 
L 9.078125 75.984375 
L 18.109375 75.984375 
L 18.109375 46.1875 
Q 21.34375 51.125 25.703125 53.5625 
Q 30.078125 56 35.796875 56 
Q 45.21875 56 50.046875 50.171875 
Q 54.890625 44.34375 54.890625 33.015625 
z
" id="DejaVuSans-104"/>
     <path d="M 48.78125 52.59375 
L 48.78125 44.1875 
Q 44.96875 46.296875 41.140625 47.34375 
Q 37.3125 48.390625 33.40625 48.390625 
Q 24.65625 48.390625 19.8125 42.84375 
Q 14.984375 37.3125 14.984375 27.296875 
Q 14.984375 17.28125 19.8125 11.734375 
Q 24.65625 6.203125 33.40625 6.203125 
Q 37.3125 6.203125 41.140625 7.25 
Q 44.96875 8.296875 48.78125 10.40625 
L 48.78125 2.09375 
Q 45.015625 0.34375 40.984375 -0.53125 
Q 36.96875 -1.421875 32.421875 -1.421875 
Q 20.0625 -1.421875 12.78125 6.34375 
Q 5.515625 14.109375 5.515625 27.296875 
Q 5.515625 40.671875 12.859375 48.328125 
Q 20.21875 56 33.015625 56 
Q 37.15625 56 41.109375 55.140625 
Q 45.0625 54.296875 48.78125 52.59375 
z
" id="DejaVuSans-99"/>
     <path d="M 45.40625 46.390625 
L 45.40625 75.984375 
L 54.390625 75.984375 
L 54.390625 0 
L 45.40625 0 
L 45.40625 8.203125 
Q 42.578125 3.328125 38.25 0.953125 
Q 33.9375 -1.421875 27.875 -1.421875 
Q 17.96875 -1.421875 11.734375 6.484375 
Q 5.515625 14.40625 5.515625 27.296875 
Q 5.515625 40.1875 11.734375 48.09375 
Q 17.96875 56 27.875 56 
Q 33.9375 56 38.25 53.625 
Q 42.578125 51.265625 45.40625 46.390625 
z
M 14.796875 27.296875 
Q 14.796875 17.390625 18.875 11.75 
Q 22.953125 6.109375 30.078125 6.109375 
Q 37.203125 6.109375 41.296875 11.75 
Q 45.40625 17.390625 45.40625 27.296875 
Q 45.40625 37.203125 41.296875 42.84375 
Q 37.203125 48.484375 30.078125 48.484375 
Q 22.953125 48.484375 18.875 42.84375 
Q 14.796875 37.203125 14.796875 27.296875 
z
" id="DejaVuSans-100"/>
     <path d="M 9.421875 54.6875 
L 18.40625 54.6875 
L 18.40625 0 
L 9.421875 0 
z
M 9.421875 75.984375 
L 18.40625 75.984375 
L 18.40625 64.59375 
L 9.421875 64.59375 
z
" id="DejaVuSans-105"/>
    </defs>
    <g transform="translate(129.482582 25.43625)scale(0.24 -0.24)">
     <use xlink:href="#DejaVuSans-101"/>
     <use x="59.773438" xlink:href="#DejaVuSans-120"/>
     <use x="115.828125" xlink:href="#DejaVuSans-111"/>
     <use x="178.884766" xlink:href="#DejaVuSans-45"/>
     <use x="214.96875" xlink:href="#DejaVuSans-69"/>
     <use x="278.152344" xlink:href="#DejaVuSans-97"/>
     <use x="339.431641" xlink:href="#DejaVuSans-114"/>
     <use x="380.544922" xlink:href="#DejaVuSans-116"/>
     <use x="419.753906" xlink:href="#DejaVuSans-104"/>
     <use x="483.132812" xlink:href="#DejaVuSans-32"/>
     <use x="514.919922" xlink:href="#DejaVuSans-99"/>
     <use x="569.900391" xlink:href="#DejaVuSans-97"/>
     <use x="631.179688" xlink:href="#DejaVuSans-110"/>
     <use x="694.558594" xlink:href="#DejaVuSans-100"/>
     <use x="758.035156" xlink:href="#DejaVuSans-105"/>
     <use x="785.818359" xlink:href="#DejaVuSans-100"/>
     <use x="849.294922" xlink:href="#DejaVuSans-97"/>
     <use x="910.574219" xlink:href="#DejaVuSans-116"/>
     <use x="949.783203" xlink:href="#DejaVuSans-101"/>
     <use x="1011.306641" xlink:href="#DejaVuSans-115"/>
    </g>
   </g>
  </g>
  <g id="axes_2">
   <g id="patch_106">
    <path d="M 567.632337 466.31625 
L 955.80625 466.31625 
L 955.80625 31.43625 
L 567.632337 31.43625 
z
" style="fill:#ffffff;"/>
   </g>
   <g id="patch_107">
    <path clip-path="url(#pe6a57d54ae)" d="M 585.276606 466.31625 
L 588.841104 466.31625 
L 588.841104 52.144821 
L 585.276606 52.144821 
z
" style="fill:#1f77b4;"/>
   </g>
   <g id="patch_108">
    <path clip-path="url(#pe6a57d54ae)" d="M 588.841104 466.31625 
L 592.405603 466.31625 
L 592.405603 466.31625 
L 588.841104 466.31625 
z
" style="fill:#1f77b4;"/>
   </g>
   <g id="patch_109">
    <path clip-path="url(#pe6a57d54ae)" d="M 592.405603 466.31625 
L 595.970102 466.31625 
L 595.970102 466.31625 
L 592.405603 466.31625 
z
" style="fill:#1f77b4;"/>
   </g>
   <g id="patch_110">
    <path clip-path="url(#pe6a57d54ae)" d="M 595.970102 466.31625 
L 599.534601 466.31625 
L 599.534601 466.31625 
L 595.970102 466.31625 
z
" style="fill:#1f77b4;"/>
   </g>
   <g id="patch_111">
    <path clip-path="url(#pe6a57d54ae)" d="M 599.534601 466.31625 
L 603.099099 466.31625 
L 603.099099 466.31625 
L 599.534601 466.31625 
z
" style="fill:#1f77b4;"/>
   </g>
   <g id="patch_112">
    <path clip-path="url(#pe6a57d54ae)" d="M 603.099099 466.31625 
L 606.663598 466.31625 
L 606.663598 466.31625 
L 603.099099 466.31625 
z
" style="fill:#1f77b4;"/>
   </g>
   <g id="patch_113">
    <path clip-path="url(#pe6a57d54ae)" d="M 606.663598 466.31625 
L 610.228097 466.31625 
L 610.228097 466.31625 
L 606.663598 466.31625 
z
" style="fill:#1f77b4;"/>
   </g>
   <g id="patch_114">
    <path clip-path="url(#pe6a57d54ae)" d="M 610.228097 466.31625 
L 613.792596 466.31625 
L 613.792596 466.31625 
L 610.228097 466.31625 
z
" style="fill:#1f77b4;"/>
   </g>
   <g id="patch_115">
    <path clip-path="url(#pe6a57d54ae)" d="M 613.792596 466.31625 
L 617.357094 466.31625 
L 617.357094 466.31625 
L 613.792596 466.31625 
z
" style="fill:#1f77b4;"/>
   </g>
   <g id="patch_116">
    <path clip-path="url(#pe6a57d54ae)" d="M 617.357094 466.31625 
L 620.921593 466.31625 
L 620.921593 466.31625 
L 617.357094 466.31625 
z
" style="fill:#1f77b4;"/>
   </g>
   <g id="patch_117">
    <path clip-path="url(#pe6a57d54ae)" d="M 620.921593 466.31625 
L 624.486092 466.31625 
L 624.486092 466.31625 
L 620.921593 466.31625 
z
" style="fill:#1f77b4;"/>
   </g>
   <g id="patch_118">
    <path clip-path="url(#pe6a57d54ae)" d="M 624.486092 466.31625 
L 628.050591 466.31625 
L 628.050591 466.31625 
L 624.486092 466.31625 
z
" style="fill:#1f77b4;"/>
   </g>
   <g id="patch_119">
    <path clip-path="url(#pe6a57d54ae)" d="M 628.050591 466.31625 
L 631.615089 466.31625 
L 631.615089 466.31625 
L 628.050591 466.31625 
z
" style="fill:#1f77b4;"/>
   </g>
   <g id="patch_120">
    <path clip-path="url(#pe6a57d54ae)" d="M 631.615089 466.31625 
L 635.179588 466.31625 
L 635.179588 466.31625 
L 631.615089 466.31625 
z
" style="fill:#1f77b4;"/>
   </g>
   <g id="patch_121">
    <path clip-path="url(#pe6a57d54ae)" d="M 635.179588 466.31625 
L 638.744087 466.31625 
L 638.744087 466.31625 
L 635.179588 466.31625 
z
" style="fill:#1f77b4;"/>
   </g>
   <g id="patch_122">
    <path clip-path="url(#pe6a57d54ae)" d="M 638.744087 466.31625 
L 642.308586 466.31625 
L 642.308586 466.31625 
L 638.744087 466.31625 
z
" style="fill:#1f77b4;"/>
   </g>
   <g id="patch_123">
    <path clip-path="url(#pe6a57d54ae)" d="M 642.308586 466.31625 
L 645.873084 466.31625 
L 645.873084 466.31625 
L 642.308586 466.31625 
z
" style="fill:#1f77b4;"/>
   </g>
   <g id="patch_124">
    <path clip-path="url(#pe6a57d54ae)" d="M 645.873084 466.31625 
L 649.437583 466.31625 
L 649.437583 466.31625 
L 645.873084 466.31625 
z
" style="fill:#1f77b4;"/>
   </g>
   <g id="patch_125">
    <path clip-path="url(#pe6a57d54ae)" d="M 649.437583 466.31625 
L 653.002082 466.31625 
L 653.002082 466.31625 
L 649.437583 466.31625 
z
" style="fill:#1f77b4;"/>
   </g>
   <g id="patch_126">
    <path clip-path="url(#pe6a57d54ae)" d="M 653.002082 466.31625 
L 656.566581 466.31625 
L 656.566581 466.31625 
L 653.002082 466.31625 
z
" style="fill:#1f77b4;"/>
   </g>
   <g id="patch_127">
    <path clip-path="url(#pe6a57d54ae)" d="M 656.566581 466.31625 
L 660.131079 466.31625 
L 660.131079 466.31625 
L 656.566581 466.31625 
z
" style="fill:#1f77b4;"/>
   </g>
   <g id="patch_128">
    <path clip-path="url(#pe6a57d54ae)" d="M 660.131079 466.31625 
L 663.695578 466.31625 
L 663.695578 466.31625 
L 660.131079 466.31625 
z
" style="fill:#1f77b4;"/>
   </g>
   <g id="patch_129">
    <path clip-path="url(#pe6a57d54ae)" d="M 663.695578 466.31625 
L 667.260077 466.31625 
L 667.260077 466.31625 
L 663.695578 466.31625 
z
" style="fill:#1f77b4;"/>
   </g>
   <g id="patch_130">
    <path clip-path="url(#pe6a57d54ae)" d="M 667.260077 466.31625 
L 670.824576 466.31625 
L 670.824576 466.31625 
L 667.260077 466.31625 
z
" style="fill:#1f77b4;"/>
   </g>
   <g id="patch_131">
    <path clip-path="url(#pe6a57d54ae)" d="M 670.824576 466.31625 
L 674.389074 466.31625 
L 674.389074 466.31625 
L 670.824576 466.31625 
z
" style="fill:#1f77b4;"/>
   </g>
   <g id="patch_132">
    <path clip-path="url(#pe6a57d54ae)" d="M 674.389074 466.31625 
L 677.953573 466.31625 
L 677.953573 466.31625 
L 674.389074 466.31625 
z
" style="fill:#1f77b4;"/>
   </g>
   <g id="patch_133">
    <path clip-path="url(#pe6a57d54ae)" d="M 677.953573 466.31625 
L 681.518072 466.31625 
L 681.518072 466.31625 
L 677.953573 466.31625 
z
" style="fill:#1f77b4;"/>
   </g>
   <g id="patch_134">
    <path clip-path="url(#pe6a57d54ae)" d="M 681.518072 466.31625 
L 685.082571 466.31625 
L 685.082571 466.31625 
L 681.518072 466.31625 
z
" style="fill:#1f77b4;"/>
   </g>
   <g id="patch_135">
    <path clip-path="url(#pe6a57d54ae)" d="M 685.082571 466.31625 
L 688.647069 466.31625 
L 688.647069 466.31625 
L 685.082571 466.31625 
z
" style="fill:#1f77b4;"/>
   </g>
   <g id="patch_136">
    <path clip-path="url(#pe6a57d54ae)" d="M 688.647069 466.31625 
L 692.211568 466.31625 
L 692.211568 466.31625 
L 688.647069 466.31625 
z
" style="fill:#1f77b4;"/>
   </g>
   <g id="patch_137">
    <path clip-path="url(#pe6a57d54ae)" d="M 692.211568 466.31625 
L 695.776067 466.31625 
L 695.776067 466.31625 
L 692.211568 466.31625 
z
" style="fill:#1f77b4;"/>
   </g>
   <g id="patch_138">
    <path clip-path="url(#pe6a57d54ae)" d="M 695.776067 466.31625 
L 699.340565 466.31625 
L 699.340565 466.31625 
L 695.776067 466.31625 
z
" style="fill:#1f77b4;"/>
   </g>
   <g id="patch_139">
    <path clip-path="url(#pe6a57d54ae)" d="M 699.340565 466.31625 
L 702.905064 466.31625 
L 702.905064 466.31625 
L 699.340565 466.31625 
z
" style="fill:#1f77b4;"/>
   </g>
   <g id="patch_140">
    <path clip-path="url(#pe6a57d54ae)" d="M 702.905064 466.31625 
L 706.469563 466.31625 
L 706.469563 466.31625 
L 702.905064 466.31625 
z
" style="fill:#1f77b4;"/>
   </g>
   <g id="patch_141">
    <path clip-path="url(#pe6a57d54ae)" d="M 706.469563 466.31625 
L 710.034062 466.31625 
L 710.034062 466.31625 
L 706.469563 466.31625 
z
" style="fill:#1f77b4;"/>
   </g>
   <g id="patch_142">
    <path clip-path="url(#pe6a57d54ae)" d="M 710.034062 466.31625 
L 713.59856 466.31625 
L 713.59856 466.31625 
L 710.034062 466.31625 
z
" style="fill:#1f77b4;"/>
   </g>
   <g id="patch_143">
    <path clip-path="url(#pe6a57d54ae)" d="M 713.59856 466.31625 
L 717.163059 466.31625 
L 717.163059 466.31625 
L 713.59856 466.31625 
z
" style="fill:#1f77b4;"/>
   </g>
   <g id="patch_144">
    <path clip-path="url(#pe6a57d54ae)" d="M 717.163059 466.31625 
L 720.727558 466.31625 
L 720.727558 466.31625 
L 717.163059 466.31625 
z
" style="fill:#1f77b4;"/>
   </g>
   <g id="patch_145">
    <path clip-path="url(#pe6a57d54ae)" d="M 720.727558 466.31625 
L 724.292057 466.31625 
L 724.292057 466.31625 
L 720.727558 466.31625 
z
" style="fill:#1f77b4;"/>
   </g>
   <g id="patch_146">
    <path clip-path="url(#pe6a57d54ae)" d="M 724.292057 466.31625 
L 727.856555 466.31625 
L 727.856555 466.31625 
L 724.292057 466.31625 
z
" style="fill:#1f77b4;"/>
   </g>
   <g id="patch_147">
    <path clip-path="url(#pe6a57d54ae)" d="M 727.856555 466.31625 
L 731.421054 466.31625 
L 731.421054 466.31625 
L 727.856555 466.31625 
z
" style="fill:#1f77b4;"/>
   </g>
   <g id="patch_148">
    <path clip-path="url(#pe6a57d54ae)" d="M 731.421054 466.31625 
L 734.985553 466.31625 
L 734.985553 466.31625 
L 731.421054 466.31625 
z
" style="fill:#1f77b4;"/>
   </g>
   <g id="patch_149">
    <path clip-path="url(#pe6a57d54ae)" d="M 734.985553 466.31625 
L 738.550052 466.31625 
L 738.550052 466.31625 
L 734.985553 466.31625 
z
" style="fill:#1f77b4;"/>
   </g>
   <g id="patch_150">
    <path clip-path="url(#pe6a57d54ae)" d="M 738.550052 466.31625 
L 742.11455 466.31625 
L 742.11455 466.31625 
L 738.550052 466.31625 
z
" style="fill:#1f77b4;"/>
   </g>
   <g id="patch_151">
    <path clip-path="url(#pe6a57d54ae)" d="M 742.11455 466.31625 
L 745.679049 466.31625 
L 745.679049 466.31625 
L 742.11455 466.31625 
z
" style="fill:#1f77b4;"/>
   </g>
   <g id="patch_152">
    <path clip-path="url(#pe6a57d54ae)" d="M 745.679049 466.31625 
L 749.243548 466.31625 
L 749.243548 466.31625 
L 745.679049 466.31625 
z
" style="fill:#1f77b4;"/>
   </g>
   <g id="patch_153">
    <path clip-path="url(#pe6a57d54ae)" d="M 749.243548 466.31625 
L 752.808047 466.31625 
L 752.808047 466.31625 
L 749.243548 466.31625 
z
" style="fill:#1f77b4;"/>
   </g>
   <g id="patch_154">
    <path clip-path="url(#pe6a57d54ae)" d="M 752.808047 466.31625 
L 756.372545 466.31625 
L 756.372545 466.31625 
L 752.808047 466.31625 
z
" style="fill:#1f77b4;"/>
   </g>
   <g id="patch_155">
    <path clip-path="url(#pe6a57d54ae)" d="M 756.372545 466.31625 
L 759.937044 466.31625 
L 759.937044 466.31625 
L 756.372545 466.31625 
z
" style="fill:#1f77b4;"/>
   </g>
   <g id="patch_156">
    <path clip-path="url(#pe6a57d54ae)" d="M 759.937044 466.31625 
L 763.501543 466.31625 
L 763.501543 466.31625 
L 759.937044 466.31625 
z
" style="fill:#1f77b4;"/>
   </g>
   <g id="patch_157">
    <path clip-path="url(#pe6a57d54ae)" d="M 763.501543 466.31625 
L 767.066042 466.31625 
L 767.066042 466.31625 
L 763.501543 466.31625 
z
" style="fill:#1f77b4;"/>
   </g>
   <g id="patch_158">
    <path clip-path="url(#pe6a57d54ae)" d="M 767.066042 466.31625 
L 770.63054 466.31625 
L 770.63054 466.31625 
L 767.066042 466.31625 
z
" style="fill:#1f77b4;"/>
   </g>
   <g id="patch_159">
    <path clip-path="url(#pe6a57d54ae)" d="M 770.63054 466.31625 
L 774.195039 466.31625 
L 774.195039 466.31625 
L 770.63054 466.31625 
z
" style="fill:#1f77b4;"/>
   </g>
   <g id="patch_160">
    <path clip-path="url(#pe6a57d54ae)" d="M 774.195039 466.31625 
L 777.759538 466.31625 
L 777.759538 466.31625 
L 774.195039 466.31625 
z
" style="fill:#1f77b4;"/>
   </g>
   <g id="patch_161">
    <path clip-path="url(#pe6a57d54ae)" d="M 777.759538 466.31625 
L 781.324037 466.31625 
L 781.324037 466.31625 
L 777.759538 466.31625 
z
" style="fill:#1f77b4;"/>
   </g>
   <g id="patch_162">
    <path clip-path="url(#pe6a57d54ae)" d="M 781.324037 466.31625 
L 784.888535 466.31625 
L 784.888535 466.31625 
L 781.324037 466.31625 
z
" style="fill:#1f77b4;"/>
   </g>
   <g id="patch_163">
    <path clip-path="url(#pe6a57d54ae)" d="M 784.888535 466.31625 
L 788.453034 466.31625 
L 788.453034 466.31625 
L 784.888535 466.31625 
z
" style="fill:#1f77b4;"/>
   </g>
   <g id="patch_164">
    <path clip-path="url(#pe6a57d54ae)" d="M 788.453034 466.31625 
L 792.017533 466.31625 
L 792.017533 466.31625 
L 788.453034 466.31625 
z
" style="fill:#1f77b4;"/>
   </g>
   <g id="patch_165">
    <path clip-path="url(#pe6a57d54ae)" d="M 792.017533 466.31625 
L 795.582032 466.31625 
L 795.582032 466.31625 
L 792.017533 466.31625 
z
" style="fill:#1f77b4;"/>
   </g>
   <g id="patch_166">
    <path clip-path="url(#pe6a57d54ae)" d="M 795.582032 466.31625 
L 799.14653 466.31625 
L 799.14653 466.31625 
L 795.582032 466.31625 
z
" style="fill:#1f77b4;"/>
   </g>
   <g id="patch_167">
    <path clip-path="url(#pe6a57d54ae)" d="M 799.14653 466.31625 
L 802.711029 466.31625 
L 802.711029 466.31625 
L 799.14653 466.31625 
z
" style="fill:#1f77b4;"/>
   </g>
   <g id="patch_168">
    <path clip-path="url(#pe6a57d54ae)" d="M 802.711029 466.31625 
L 806.275528 466.31625 
L 806.275528 466.31625 
L 802.711029 466.31625 
z
" style="fill:#1f77b4;"/>
   </g>
   <g id="patch_169">
    <path clip-path="url(#pe6a57d54ae)" d="M 806.275528 466.31625 
L 809.840027 466.31625 
L 809.840027 466.31625 
L 806.275528 466.31625 
z
" style="fill:#1f77b4;"/>
   </g>
   <g id="patch_170">
    <path clip-path="url(#pe6a57d54ae)" d="M 809.840027 466.31625 
L 813.404525 466.31625 
L 813.404525 466.31625 
L 809.840027 466.31625 
z
" style="fill:#1f77b4;"/>
   </g>
   <g id="patch_171">
    <path clip-path="url(#pe6a57d54ae)" d="M 813.404525 466.31625 
L 816.969024 466.31625 
L 816.969024 466.31625 
L 813.404525 466.31625 
z
" style="fill:#1f77b4;"/>
   </g>
   <g id="patch_172">
    <path clip-path="url(#pe6a57d54ae)" d="M 816.969024 466.31625 
L 820.533523 466.31625 
L 820.533523 466.31625 
L 816.969024 466.31625 
z
" style="fill:#1f77b4;"/>
   </g>
   <g id="patch_173">
    <path clip-path="url(#pe6a57d54ae)" d="M 820.533523 466.31625 
L 824.098021 466.31625 
L 824.098021 466.31625 
L 820.533523 466.31625 
z
" style="fill:#1f77b4;"/>
   </g>
   <g id="patch_174">
    <path clip-path="url(#pe6a57d54ae)" d="M 824.098021 466.31625 
L 827.66252 466.31625 
L 827.66252 466.31625 
L 824.098021 466.31625 
z
" style="fill:#1f77b4;"/>
   </g>
   <g id="patch_175">
    <path clip-path="url(#pe6a57d54ae)" d="M 827.66252 466.31625 
L 831.227019 466.31625 
L 831.227019 466.31625 
L 827.66252 466.31625 
z
" style="fill:#1f77b4;"/>
   </g>
   <g id="patch_176">
    <path clip-path="url(#pe6a57d54ae)" d="M 831.227019 466.31625 
L 834.791518 466.31625 
L 834.791518 466.31625 
L 831.227019 466.31625 
z
" style="fill:#1f77b4;"/>
   </g>
   <g id="patch_177">
    <path clip-path="url(#pe6a57d54ae)" d="M 834.791518 466.31625 
L 838.356016 466.31625 
L 838.356016 466.31625 
L 834.791518 466.31625 
z
" style="fill:#1f77b4;"/>
   </g>
   <g id="patch_178">
    <path clip-path="url(#pe6a57d54ae)" d="M 838.356016 466.31625 
L 841.920515 466.31625 
L 841.920515 466.31625 
L 838.356016 466.31625 
z
" style="fill:#1f77b4;"/>
   </g>
   <g id="patch_179">
    <path clip-path="url(#pe6a57d54ae)" d="M 841.920515 466.31625 
L 845.485014 466.31625 
L 845.485014 466.31625 
L 841.920515 466.31625 
z
" style="fill:#1f77b4;"/>
   </g>
   <g id="patch_180">
    <path clip-path="url(#pe6a57d54ae)" d="M 845.485014 466.31625 
L 849.049513 466.31625 
L 849.049513 466.31625 
L 845.485014 466.31625 
z
" style="fill:#1f77b4;"/>
   </g>
   <g id="patch_181">
    <path clip-path="url(#pe6a57d54ae)" d="M 849.049513 466.31625 
L 852.614011 466.31625 
L 852.614011 466.31625 
L 849.049513 466.31625 
z
" style="fill:#1f77b4;"/>
   </g>
   <g id="patch_182">
    <path clip-path="url(#pe6a57d54ae)" d="M 852.614011 466.31625 
L 856.17851 466.31625 
L 856.17851 466.31625 
L 852.614011 466.31625 
z
" style="fill:#1f77b4;"/>
   </g>
   <g id="patch_183">
    <path clip-path="url(#pe6a57d54ae)" d="M 856.17851 466.31625 
L 859.743009 466.31625 
L 859.743009 466.31625 
L 856.17851 466.31625 
z
" style="fill:#1f77b4;"/>
   </g>
   <g id="patch_184">
    <path clip-path="url(#pe6a57d54ae)" d="M 859.743009 466.31625 
L 863.307508 466.31625 
L 863.307508 466.31625 
L 859.743009 466.31625 
z
" style="fill:#1f77b4;"/>
   </g>
   <g id="patch_185">
    <path clip-path="url(#pe6a57d54ae)" d="M 863.307508 466.31625 
L 866.872006 466.31625 
L 866.872006 466.31625 
L 863.307508 466.31625 
z
" style="fill:#1f77b4;"/>
   </g>
   <g id="patch_186">
    <path clip-path="url(#pe6a57d54ae)" d="M 866.872006 466.31625 
L 870.436505 466.31625 
L 870.436505 466.31625 
L 866.872006 466.31625 
z
" style="fill:#1f77b4;"/>
   </g>
   <g id="patch_187">
    <path clip-path="url(#pe6a57d54ae)" d="M 870.436505 466.31625 
L 874.001004 466.31625 
L 874.001004 466.31625 
L 870.436505 466.31625 
z
" style="fill:#1f77b4;"/>
   </g>
   <g id="patch_188">
    <path clip-path="url(#pe6a57d54ae)" d="M 874.001004 466.31625 
L 877.565503 466.31625 
L 877.565503 466.31625 
L 874.001004 466.31625 
z
" style="fill:#1f77b4;"/>
   </g>
   <g id="patch_189">
    <path clip-path="url(#pe6a57d54ae)" d="M 877.565503 466.31625 
L 881.130001 466.31625 
L 881.130001 466.31625 
L 877.565503 466.31625 
z
" style="fill:#1f77b4;"/>
   </g>
   <g id="patch_190">
    <path clip-path="url(#pe6a57d54ae)" d="M 881.130001 466.31625 
L 884.6945 466.31625 
L 884.6945 466.31625 
L 881.130001 466.31625 
z
" style="fill:#1f77b4;"/>
   </g>
   <g id="patch_191">
    <path clip-path="url(#pe6a57d54ae)" d="M 884.6945 466.31625 
L 888.258999 466.31625 
L 888.258999 466.31625 
L 884.6945 466.31625 
z
" style="fill:#1f77b4;"/>
   </g>
   <g id="patch_192">
    <path clip-path="url(#pe6a57d54ae)" d="M 888.258999 466.31625 
L 891.823498 466.31625 
L 891.823498 466.31625 
L 888.258999 466.31625 
z
" style="fill:#1f77b4;"/>
   </g>
   <g id="patch_193">
    <path clip-path="url(#pe6a57d54ae)" d="M 891.823498 466.31625 
L 895.387996 466.31625 
L 895.387996 466.31625 
L 891.823498 466.31625 
z
" style="fill:#1f77b4;"/>
   </g>
   <g id="patch_194">
    <path clip-path="url(#pe6a57d54ae)" d="M 895.387996 466.31625 
L 898.952495 466.31625 
L 898.952495 466.31625 
L 895.387996 466.31625 
z
" style="fill:#1f77b4;"/>
   </g>
   <g id="patch_195">
    <path clip-path="url(#pe6a57d54ae)" d="M 898.952495 466.31625 
L 902.516994 466.31625 
L 902.516994 466.31625 
L 898.952495 466.31625 
z
" style="fill:#1f77b4;"/>
   </g>
   <g id="patch_196">
    <path clip-path="url(#pe6a57d54ae)" d="M 902.516994 466.31625 
L 906.081493 466.31625 
L 906.081493 466.31625 
L 902.516994 466.31625 
z
" style="fill:#1f77b4;"/>
   </g>
   <g id="patch_197">
    <path clip-path="url(#pe6a57d54ae)" d="M 906.081493 466.31625 
L 909.645991 466.31625 
L 909.645991 466.31625 
L 906.081493 466.31625 
z
" style="fill:#1f77b4;"/>
   </g>
   <g id="patch_198">
    <path clip-path="url(#pe6a57d54ae)" d="M 909.645991 466.31625 
L 913.21049 466.31625 
L 913.21049 466.31625 
L 909.645991 466.31625 
z
" style="fill:#1f77b4;"/>
   </g>
   <g id="patch_199">
    <path clip-path="url(#pe6a57d54ae)" d="M 913.21049 466.31625 
L 916.774989 466.31625 
L 916.774989 466.31625 
L 913.21049 466.31625 
z
" style="fill:#1f77b4;"/>
   </g>
   <g id="patch_200">
    <path clip-path="url(#pe6a57d54ae)" d="M 916.774989 466.31625 
L 920.339488 466.31625 
L 920.339488 466.31625 
L 916.774989 466.31625 
z
" style="fill:#1f77b4;"/>
   </g>
   <g id="patch_201">
    <path clip-path="url(#pe6a57d54ae)" d="M 920.339488 466.31625 
L 923.903986 466.31625 
L 923.903986 466.31625 
L 920.339488 466.31625 
z
" style="fill:#1f77b4;"/>
   </g>
   <g id="patch_202">
    <path clip-path="url(#pe6a57d54ae)" d="M 923.903986 466.31625 
L 927.468485 466.31625 
L 927.468485 466.31625 
L 923.903986 466.31625 
z
" style="fill:#1f77b4;"/>
   </g>
   <g id="patch_203">
    <path clip-path="url(#pe6a57d54ae)" d="M 927.468485 466.31625 
L 931.032984 466.31625 
L 931.032984 466.31625 
L 927.468485 466.31625 
z
" style="fill:#1f77b4;"/>
   </g>
   <g id="patch_204">
    <path clip-path="url(#pe6a57d54ae)" d="M 931.032984 466.31625 
L 934.597482 466.31625 
L 934.597482 466.31625 
L 931.032984 466.31625 
z
" style="fill:#1f77b4;"/>
   </g>
   <g id="patch_205">
    <path clip-path="url(#pe6a57d54ae)" d="M 934.597482 466.31625 
L 938.161981 466.31625 
L 938.161981 466.31625 
L 934.597482 466.31625 
z
" style="fill:#1f77b4;"/>
   </g>
   <g id="matplotlib.axis_3">
    <g id="xtick_7">
     <g id="line2d_16">
      <g>
       <use style="stroke:#000000;stroke-width:0.8;" x="585.276606" xlink:href="#md8060071df" y="466.31625"/>
      </g>
     </g>
     <g id="text_18">
      <!-- 0.0 -->
      <g transform="translate(569.373481 488.513125)scale(0.2 -0.2)">
       <use xlink:href="#DejaVuSans-48"/>
       <use x="63.623047" xlink:href="#DejaVuSans-46"/>
       <use x="95.410156" xlink:href="#DejaVuSans-48"/>
      </g>
     </g>
    </g>
    <g id="xtick_8">
     <g id="line2d_17">
      <g>
       <use style="stroke:#000000;stroke-width:0.8;" x="655.853681" xlink:href="#md8060071df" y="466.31625"/>
      </g>
     </g>
     <g id="text_19">
      <!-- 0.2 -->
      <g transform="translate(639.950556 488.513125)scale(0.2 -0.2)">
       <use xlink:href="#DejaVuSans-48"/>
       <use x="63.623047" xlink:href="#DejaVuSans-46"/>
       <use x="95.410156" xlink:href="#DejaVuSans-50"/>
      </g>
     </g>
    </g>
    <g id="xtick_9">
     <g id="line2d_18">
      <g>
       <use style="stroke:#000000;stroke-width:0.8;" x="726.430756" xlink:href="#md8060071df" y="466.31625"/>
      </g>
     </g>
     <g id="text_20">
      <!-- 0.4 -->
      <g transform="translate(710.527631 488.513125)scale(0.2 -0.2)">
       <use xlink:href="#DejaVuSans-48"/>
       <use x="63.623047" xlink:href="#DejaVuSans-46"/>
       <use x="95.410156" xlink:href="#DejaVuSans-52"/>
      </g>
     </g>
    </g>
    <g id="xtick_10">
     <g id="line2d_19">
      <g>
       <use style="stroke:#000000;stroke-width:0.8;" x="797.007831" xlink:href="#md8060071df" y="466.31625"/>
      </g>
     </g>
     <g id="text_21">
      <!-- 0.6 -->
      <g transform="translate(781.104706 488.513125)scale(0.2 -0.2)">
       <use xlink:href="#DejaVuSans-48"/>
       <use x="63.623047" xlink:href="#DejaVuSans-46"/>
       <use x="95.410156" xlink:href="#DejaVuSans-54"/>
      </g>
     </g>
    </g>
    <g id="xtick_11">
     <g id="line2d_20">
      <g>
       <use style="stroke:#000000;stroke-width:0.8;" x="867.584906" xlink:href="#md8060071df" y="466.31625"/>
      </g>
     </g>
     <g id="text_22">
      <!-- 0.8 -->
      <g transform="translate(851.681781 488.513125)scale(0.2 -0.2)">
       <use xlink:href="#DejaVuSans-48"/>
       <use x="63.623047" xlink:href="#DejaVuSans-46"/>
       <use x="95.410156" xlink:href="#DejaVuSans-56"/>
      </g>
     </g>
    </g>
    <g id="xtick_12">
     <g id="line2d_21">
      <g>
       <use style="stroke:#000000;stroke-width:0.8;" x="938.161981" xlink:href="#md8060071df" y="466.31625"/>
      </g>
     </g>
     <g id="text_23">
      <!-- 1.0 -->
      <g transform="translate(922.258856 488.513125)scale(0.2 -0.2)">
       <use xlink:href="#DejaVuSans-49"/>
       <use x="63.623047" xlink:href="#DejaVuSans-46"/>
       <use x="95.410156" xlink:href="#DejaVuSans-48"/>
      </g>
     </g>
    </g>
   </g>
   <g id="matplotlib.axis_4">
    <g id="ytick_10">
     <g id="line2d_22">
      <g>
       <use style="stroke:#000000;stroke-width:0.8;" x="567.632337" xlink:href="#m4ac82593d9" y="466.31625"/>
      </g>
     </g>
     <g id="text_24">
      <!-- 0 -->
      <g transform="translate(547.907337 473.914688)scale(0.2 -0.2)">
       <use xlink:href="#DejaVuSans-48"/>
      </g>
     </g>
    </g>
    <g id="ytick_11">
     <g id="line2d_23">
      <g>
       <use style="stroke:#000000;stroke-width:0.8;" x="567.632337" xlink:href="#m4ac82593d9" y="414.702887"/>
      </g>
     </g>
     <g id="text_25">
      <!-- 2000 -->
      <g transform="translate(509.732337 422.301325)scale(0.2 -0.2)">
       <use xlink:href="#DejaVuSans-50"/>
       <use x="63.623047" xlink:href="#DejaVuSans-48"/>
       <use x="127.246094" xlink:href="#DejaVuSans-48"/>
       <use x="190.869141" xlink:href="#DejaVuSans-48"/>
      </g>
     </g>
    </g>
    <g id="ytick_12">
     <g id="line2d_24">
      <g>
       <use style="stroke:#000000;stroke-width:0.8;" x="567.632337" xlink:href="#m4ac82593d9" y="363.089525"/>
      </g>
     </g>
     <g id="text_26">
      <!-- 4000 -->
      <g transform="translate(509.732337 370.687962)scale(0.2 -0.2)">
       <use xlink:href="#DejaVuSans-52"/>
       <use x="63.623047" xlink:href="#DejaVuSans-48"/>
       <use x="127.246094" xlink:href="#DejaVuSans-48"/>
       <use x="190.869141" xlink:href="#DejaVuSans-48"/>
      </g>
     </g>
    </g>
    <g id="ytick_13">
     <g id="line2d_25">
      <g>
       <use style="stroke:#000000;stroke-width:0.8;" x="567.632337" xlink:href="#m4ac82593d9" y="311.476162"/>
      </g>
     </g>
     <g id="text_27">
      <!-- 6000 -->
      <g transform="translate(509.732337 319.0746)scale(0.2 -0.2)">
       <use xlink:href="#DejaVuSans-54"/>
       <use x="63.623047" xlink:href="#DejaVuSans-48"/>
       <use x="127.246094" xlink:href="#DejaVuSans-48"/>
       <use x="190.869141" xlink:href="#DejaVuSans-48"/>
      </g>
     </g>
    </g>
    <g id="ytick_14">
     <g id="line2d_26">
      <g>
       <use style="stroke:#000000;stroke-width:0.8;" x="567.632337" xlink:href="#m4ac82593d9" y="259.862799"/>
      </g>
     </g>
     <g id="text_28">
      <!-- 8000 -->
      <g transform="translate(509.732337 267.461237)scale(0.2 -0.2)">
       <use xlink:href="#DejaVuSans-56"/>
       <use x="63.623047" xlink:href="#DejaVuSans-48"/>
       <use x="127.246094" xlink:href="#DejaVuSans-48"/>
       <use x="190.869141" xlink:href="#DejaVuSans-48"/>
      </g>
     </g>
    </g>
    <g id="ytick_15">
     <g id="line2d_27">
      <g>
       <use style="stroke:#000000;stroke-width:0.8;" x="567.632337" xlink:href="#m4ac82593d9" y="208.249437"/>
      </g>
     </g>
     <g id="text_29">
      <!-- 10000 -->
      <g transform="translate(497.007337 215.847874)scale(0.2 -0.2)">
       <use xlink:href="#DejaVuSans-49"/>
       <use x="63.623047" xlink:href="#DejaVuSans-48"/>
       <use x="127.246094" xlink:href="#DejaVuSans-48"/>
       <use x="190.869141" xlink:href="#DejaVuSans-48"/>
       <use x="254.492188" xlink:href="#DejaVuSans-48"/>
      </g>
     </g>
    </g>
    <g id="ytick_16">
     <g id="line2d_28">
      <g>
       <use style="stroke:#000000;stroke-width:0.8;" x="567.632337" xlink:href="#m4ac82593d9" y="156.636074"/>
      </g>
     </g>
     <g id="text_30">
      <!-- 12000 -->
      <g transform="translate(497.007337 164.234512)scale(0.2 -0.2)">
       <use xlink:href="#DejaVuSans-49"/>
       <use x="63.623047" xlink:href="#DejaVuSans-50"/>
       <use x="127.246094" xlink:href="#DejaVuSans-48"/>
       <use x="190.869141" xlink:href="#DejaVuSans-48"/>
       <use x="254.492188" xlink:href="#DejaVuSans-48"/>
      </g>
     </g>
    </g>
    <g id="ytick_17">
     <g id="line2d_29">
      <g>
       <use style="stroke:#000000;stroke-width:0.8;" x="567.632337" xlink:href="#m4ac82593d9" y="105.022711"/>
      </g>
     </g>
     <g id="text_31">
      <!-- 14000 -->
      <g transform="translate(497.007337 112.621149)scale(0.2 -0.2)">
       <use xlink:href="#DejaVuSans-49"/>
       <use x="63.623047" xlink:href="#DejaVuSans-52"/>
       <use x="127.246094" xlink:href="#DejaVuSans-48"/>
       <use x="190.869141" xlink:href="#DejaVuSans-48"/>
       <use x="254.492188" xlink:href="#DejaVuSans-48"/>
      </g>
     </g>
    </g>
    <g id="ytick_18">
     <g id="line2d_30">
      <g>
       <use style="stroke:#000000;stroke-width:0.8;" x="567.632337" xlink:href="#m4ac82593d9" y="53.409349"/>
      </g>
     </g>
     <g id="text_32">
      <!-- 16000 -->
      <g transform="translate(497.007337 61.007786)scale(0.2 -0.2)">
       <use xlink:href="#DejaVuSans-49"/>
       <use x="63.623047" xlink:href="#DejaVuSans-54"/>
       <use x="127.246094" xlink:href="#DejaVuSans-48"/>
       <use x="190.869141" xlink:href="#DejaVuSans-48"/>
       <use x="254.492188" xlink:href="#DejaVuSans-48"/>
      </g>
     </g>
    </g>
   </g>
   <g id="patch_206">
    <path d="M 567.632337 466.31625 
L 567.632337 31.43625 
" style="fill:none;stroke:#000000;stroke-linecap:square;stroke-linejoin:miter;stroke-width:0.8;"/>
   </g>
   <g id="patch_207">
    <path d="M 955.80625 466.31625 
L 955.80625 31.43625 
" style="fill:none;stroke:#000000;stroke-linecap:square;stroke-linejoin:miter;stroke-width:0.8;"/>
   </g>
   <g id="patch_208">
    <path d="M 567.632337 466.31625 
L 955.80625 466.31625 
" style="fill:none;stroke:#000000;stroke-linecap:square;stroke-linejoin:miter;stroke-width:0.8;"/>
   </g>
   <g id="patch_209">
    <path d="M 567.632337 31.43625 
L 955.80625 31.43625 
" style="fill:none;stroke:#000000;stroke-linecap:square;stroke-linejoin:miter;stroke-width:0.8;"/>
   </g>
   <g id="text_33">
    <!-- non-habitable planets -->
    <g transform="translate(630.469293 25.43625)scale(0.24 -0.24)">
     <use xlink:href="#DejaVuSans-110"/>
     <use x="63.378906" xlink:href="#DejaVuSans-111"/>
     <use x="124.560547" xlink:href="#DejaVuSans-110"/>
     <use x="187.939453" xlink:href="#DejaVuSans-45"/>
     <use x="224.023438" xlink:href="#DejaVuSans-104"/>
     <use x="287.402344" xlink:href="#DejaVuSans-97"/>
     <use x="348.681641" xlink:href="#DejaVuSans-98"/>
     <use x="412.158203" xlink:href="#DejaVuSans-105"/>
     <use x="439.941406" xlink:href="#DejaVuSans-116"/>
     <use x="479.150391" xlink:href="#DejaVuSans-97"/>
     <use x="540.429688" xlink:href="#DejaVuSans-98"/>
     <use x="603.90625" xlink:href="#DejaVuSans-108"/>
     <use x="631.689453" xlink:href="#DejaVuSans-101"/>
     <use x="693.212891" xlink:href="#DejaVuSans-32"/>
     <use x="725" xlink:href="#DejaVuSans-112"/>
     <use x="788.476562" xlink:href="#DejaVuSans-108"/>
     <use x="816.259766" xlink:href="#DejaVuSans-97"/>
     <use x="877.539062" xlink:href="#DejaVuSans-110"/>
     <use x="940.917969" xlink:href="#DejaVuSans-101"/>
     <use x="1002.441406" xlink:href="#DejaVuSans-116"/>
     <use x="1041.650391" xlink:href="#DejaVuSans-115"/>
    </g>
   </g>
  </g>
 </g>
 <defs>
  <clipPath id="p3c29fb5fcf">
   <rect height="434.88" width="388.173913" x="63.00625" y="31.43625"/>
  </clipPath>
  <clipPath id="pe6a57d54ae">
   <rect height="434.88" width="388.173913" x="567.632337" y="31.43625"/>
  </clipPath>
 </defs>
</svg>
