<?xml version="1.0" encoding="utf-8" standalone="no"?>
<!DOCTYPE svg PUBLIC "-//W3C//DTD SVG 1.1//EN"
  "http://www.w3.org/Graphics/SVG/1.1/DTD/svg11.dtd">
<!-- Created with matplotlib (https://matplotlib.org/) -->
<svg height="180.880057pt" version="1.1" viewBox="0 0 1012.84 180.880057" width="1012.84pt" xmlns="http://www.w3.org/2000/svg" xmlns:xlink="http://www.w3.org/1999/xlink">
 <defs>
  <style type="text/css">
*{stroke-linecap:butt;stroke-linejoin:round;}
  </style>
 </defs>
 <g id="figure_1">
  <g id="patch_1">
   <path d="M 0 180.880057 
L 1012.84 180.880057 
L 1012.84 0 
L 0 0 
z
" style="fill:none;"/>
  </g>
  <g id="axes_1">
   <g id="patch_2">
    <path d="M 112.84 120.096307 
L 1005.64 120.096307 
L 1005.64 11.376307 
L 112.84 11.376307 
z
" style="fill:#ffffff;"/>
   </g>
   <g id="PathCollection_1">
    <defs>
     <path d="M 0 3 
C 0.795609 3 1.55874 2.683901 2.12132 2.12132 
C 2.683901 1.55874 3 0.795609 3 0 
C 3 -0.795609 2.683901 -1.55874 2.12132 -2.12132 
C 1.55874 -2.683901 0.795609 -3 0 -3 
C -0.795609 -3 -1.55874 -2.683901 -2.12132 -2.12132 
C -2.683901 -1.55874 -3 -0.795609 -3 0 
C -3 0.795609 -2.683901 1.55874 -2.12132 2.12132 
C -1.55874 2.683901 -0.795609 3 0 3 
z
" id="m165e05f168" style="stroke:#1f77b4;"/>
    </defs>
    <g clip-path="url(#pd8b8499efc)">
     <use style="fill:#1f77b4;stroke:#1f77b4;" x="553.275289" xlink:href="#m165e05f168" y="115.154489"/>
     <use style="fill:#1f77b4;stroke:#1f77b4;" x="305.963701" xlink:href="#m165e05f168" y="115.154489"/>
     <use style="fill:#1f77b4;stroke:#1f77b4;" x="491.258379" xlink:href="#m165e05f168" y="115.154489"/>
     <use style="fill:#1f77b4;stroke:#1f77b4;" x="502.318384" xlink:href="#m165e05f168" y="115.154489"/>
     <use style="fill:#1f77b4;stroke:#1f77b4;" x="510.376629" xlink:href="#m165e05f168" y="115.154489"/>
     <use style="fill:#1f77b4;stroke:#1f77b4;" x="153.421818" xlink:href="#m165e05f168" y="115.154489"/>
     <use style="fill:#1f77b4;stroke:#1f77b4;" x="571.391905" xlink:href="#m165e05f168" y="115.154489"/>
     <use style="fill:#1f77b4;stroke:#1f77b4;" x="540.998682" xlink:href="#m165e05f168" y="115.154489"/>
     <use style="fill:#1f77b4;stroke:#1f77b4;" x="629.794141" xlink:href="#m165e05f168" y="115.154489"/>
     <use style="fill:#1f77b4;stroke:#1f77b4;" x="308.367443" xlink:href="#m165e05f168" y="115.154489"/>
     <use style="fill:#1f77b4;stroke:#1f77b4;" x="378.43454" xlink:href="#m165e05f168" y="115.154489"/>
     <use style="fill:#1f77b4;stroke:#1f77b4;" x="244.610093" xlink:href="#m165e05f168" y="115.154489"/>
     <use style="fill:#1f77b4;stroke:#1f77b4;" x="204.978508" xlink:href="#m165e05f168" y="115.154489"/>
     <use style="fill:#1f77b4;stroke:#1f77b4;" x="569.31809" xlink:href="#m165e05f168" y="16.318125"/>
     <use style="fill:#1f77b4;stroke:#1f77b4;" x="479.466761" xlink:href="#m165e05f168" y="16.318125"/>
     <use style="fill:#1f77b4;stroke:#1f77b4;" x="346.820646" xlink:href="#m165e05f168" y="115.154489"/>
     <use style="fill:#1f77b4;stroke:#1f77b4;" x="785.203901" xlink:href="#m165e05f168" y="115.154489"/>
     <use style="fill:#1f77b4;stroke:#1f77b4;" x="625.452378" xlink:href="#m165e05f168" y="115.154489"/>
     <use style="fill:#1f77b4;stroke:#1f77b4;" x="589.518035" xlink:href="#m165e05f168" y="16.318125"/>
     <use style="fill:#1f77b4;stroke:#1f77b4;" x="609.273945" xlink:href="#m165e05f168" y="115.154489"/>
     <use style="fill:#1f77b4;stroke:#1f77b4;" x="657.23181" xlink:href="#m165e05f168" y="115.154489"/>
     <use style="fill:#1f77b4;stroke:#1f77b4;" x="687.778173" xlink:href="#m165e05f168" y="115.154489"/>
     <use style="fill:#1f77b4;stroke:#1f77b4;" x="884.039911" xlink:href="#m165e05f168" y="115.154489"/>
     <use style="fill:#1f77b4;stroke:#1f77b4;" x="712.693328" xlink:href="#m165e05f168" y="115.154489"/>
     <use style="fill:#1f77b4;stroke:#1f77b4;" x="553.296349" xlink:href="#m165e05f168" y="16.318125"/>
     <use style="fill:#1f77b4;stroke:#1f77b4;" x="461.197751" xlink:href="#m165e05f168" y="115.154489"/>
     <use style="fill:#1f77b4;stroke:#1f77b4;" x="372.800084" xlink:href="#m165e05f168" y="115.154489"/>
     <use style="fill:#1f77b4;stroke:#1f77b4;" x="576.64588" xlink:href="#m165e05f168" y="16.318125"/>
     <use style="fill:#1f77b4;stroke:#1f77b4;" x="400.178911" xlink:href="#m165e05f168" y="115.154489"/>
     <use style="fill:#1f77b4;stroke:#1f77b4;" x="518.819493" xlink:href="#m165e05f168" y="115.154489"/>
     <use style="fill:#1f77b4;stroke:#1f77b4;" x="562.075397" xlink:href="#m165e05f168" y="16.318125"/>
     <use style="fill:#1f77b4;stroke:#1f77b4;" x="965.058182" xlink:href="#m165e05f168" y="115.154489"/>
     <use style="fill:#1f77b4;stroke:#1f77b4;" x="682.473854" xlink:href="#m165e05f168" y="115.154489"/>
     <use style="fill:#1f77b4;stroke:#1f77b4;" x="752.175685" xlink:href="#m165e05f168" y="115.154489"/>
     <use style="fill:#1f77b4;stroke:#1f77b4;" x="698.554893" xlink:href="#m165e05f168" y="115.154489"/>
     <use style="fill:#1f77b4;stroke:#1f77b4;" x="519.594955" xlink:href="#m165e05f168" y="16.318125"/>
     <use style="fill:#1f77b4;stroke:#1f77b4;" x="411.947484" xlink:href="#m165e05f168" y="115.154489"/>
     <use style="fill:#1f77b4;stroke:#1f77b4;" x="370.268817" xlink:href="#m165e05f168" y="115.154489"/>
     <use style="fill:#1f77b4;stroke:#1f77b4;" x="446.948671" xlink:href="#m165e05f168" y="115.154489"/>
     <use style="fill:#1f77b4;stroke:#1f77b4;" x="363.637435" xlink:href="#m165e05f168" y="115.154489"/>
     <use style="fill:#1f77b4;stroke:#1f77b4;" x="833.708026" xlink:href="#m165e05f168" y="115.154489"/>
     <use style="fill:#1f77b4;stroke:#1f77b4;" x="861.612302" xlink:href="#m165e05f168" y="115.154489"/>
     <use style="fill:#1f77b4;stroke:#1f77b4;" x="350.217726" xlink:href="#m165e05f168" y="115.154489"/>
     <use style="fill:#1f77b4;stroke:#1f77b4;" x="765.739905" xlink:href="#m165e05f168" y="115.154489"/>
     <use style="fill:#1f77b4;stroke:#1f77b4;" x="670.225083" xlink:href="#m165e05f168" y="115.154489"/>
     <use style="fill:#1f77b4;stroke:#1f77b4;" x="669.372993" xlink:href="#m165e05f168" y="115.154489"/>
     <use style="fill:#1f77b4;stroke:#1f77b4;" x="310.040494" xlink:href="#m165e05f168" y="115.154489"/>
     <use style="fill:#1f77b4;stroke:#1f77b4;" x="767.116468" xlink:href="#m165e05f168" y="115.154489"/>
     <use style="fill:#1f77b4;stroke:#1f77b4;" x="536.12515" xlink:href="#m165e05f168" y="115.154489"/>
     <use style="fill:#1f77b4;stroke:#1f77b4;" x="735.493008" xlink:href="#m165e05f168" y="115.154489"/>
     <use style="fill:#1f77b4;stroke:#1f77b4;" x="482.61294" xlink:href="#m165e05f168" y="115.154489"/>
     <use style="fill:#1f77b4;stroke:#1f77b4;" x="714.881289" xlink:href="#m165e05f168" y="115.154489"/>
     <use style="fill:#1f77b4;stroke:#1f77b4;" x="905.290557" xlink:href="#m165e05f168" y="115.154489"/>
     <use style="fill:#1f77b4;stroke:#1f77b4;" x="928.624097" xlink:href="#m165e05f168" y="115.154489"/>
     <use style="fill:#1f77b4;stroke:#1f77b4;" x="876.575629" xlink:href="#m165e05f168" y="115.154489"/>
     <use style="fill:#1f77b4;stroke:#1f77b4;" x="778.542337" xlink:href="#m165e05f168" y="115.154489"/>
     <use style="fill:#1f77b4;stroke:#1f77b4;" x="938.474949" xlink:href="#m165e05f168" y="115.154489"/>
     <use style="fill:#1f77b4;stroke:#1f77b4;" x="298.596751" xlink:href="#m165e05f168" y="115.154489"/>
     <use style="fill:#1f77b4;stroke:#1f77b4;" x="919.33023" xlink:href="#m165e05f168" y="115.154489"/>
     <use style="fill:#1f77b4;stroke:#1f77b4;" x="319.912596" xlink:href="#m165e05f168" y="115.154489"/>
     <use style="fill:#1f77b4;stroke:#1f77b4;" x="542.602365" xlink:href="#m165e05f168" y="115.154489"/>
     <use style="fill:#1f77b4;stroke:#1f77b4;" x="380.677128" xlink:href="#m165e05f168" y="115.154489"/>
     <use style="fill:#1f77b4;stroke:#1f77b4;" x="421.447887" xlink:href="#m165e05f168" y="115.154489"/>
     <use style="fill:#1f77b4;stroke:#1f77b4;" x="684.611671" xlink:href="#m165e05f168" y="115.154489"/>
     <use style="fill:#1f77b4;stroke:#1f77b4;" x="357.738629" xlink:href="#m165e05f168" y="115.154489"/>
     <use style="fill:#1f77b4;stroke:#1f77b4;" x="742.74282" xlink:href="#m165e05f168" y="115.154489"/>
     <use style="fill:#1f77b4;stroke:#1f77b4;" x="890.053391" xlink:href="#m165e05f168" y="115.154489"/>
     <use style="fill:#1f77b4;stroke:#1f77b4;" x="667.142668" xlink:href="#m165e05f168" y="115.154489"/>
     <use style="fill:#1f77b4;stroke:#1f77b4;" x="886.139695" xlink:href="#m165e05f168" y="115.154489"/>
     <use style="fill:#1f77b4;stroke:#1f77b4;" x="817.674717" xlink:href="#m165e05f168" y="115.154489"/>
     <use style="fill:#1f77b4;stroke:#1f77b4;" x="563.04861" xlink:href="#m165e05f168" y="16.318125"/>
     <use style="fill:#1f77b4;stroke:#1f77b4;" x="535.184335" xlink:href="#m165e05f168" y="16.318125"/>
     <use style="fill:#1f77b4;stroke:#1f77b4;" x="353.374462" xlink:href="#m165e05f168" y="115.154489"/>
     <use style="fill:#1f77b4;stroke:#1f77b4;" x="537.832422" xlink:href="#m165e05f168" y="115.154489"/>
     <use style="fill:#1f77b4;stroke:#1f77b4;" x="421.068249" xlink:href="#m165e05f168" y="115.154489"/>
     <use style="fill:#1f77b4;stroke:#1f77b4;" x="631.453474" xlink:href="#m165e05f168" y="115.154489"/>
     <use style="fill:#1f77b4;stroke:#1f77b4;" x="619.751819" xlink:href="#m165e05f168" y="16.318125"/>
     <use style="fill:#1f77b4;stroke:#1f77b4;" x="504.064601" xlink:href="#m165e05f168" y="16.318125"/>
     <use style="fill:#1f77b4;stroke:#1f77b4;" x="817.517302" xlink:href="#m165e05f168" y="115.154489"/>
     <use style="fill:#1f77b4;stroke:#1f77b4;" x="444.308713" xlink:href="#m165e05f168" y="115.154489"/>
     <use style="fill:#1f77b4;stroke:#1f77b4;" x="604.246401" xlink:href="#m165e05f168" y="115.154489"/>
     <use style="fill:#1f77b4;stroke:#1f77b4;" x="448.777817" xlink:href="#m165e05f168" y="115.154489"/>
     <use style="fill:#1f77b4;stroke:#1f77b4;" x="818.435624" xlink:href="#m165e05f168" y="115.154489"/>
     <use style="fill:#1f77b4;stroke:#1f77b4;" x="636.858372" xlink:href="#m165e05f168" y="115.154489"/>
     <use style="fill:#1f77b4;stroke:#1f77b4;" x="700.965776" xlink:href="#m165e05f168" y="115.154489"/>
     <use style="fill:#1f77b4;stroke:#1f77b4;" x="564.23792" xlink:href="#m165e05f168" y="115.154489"/>
     <use style="fill:#1f77b4;stroke:#1f77b4;" x="710.423392" xlink:href="#m165e05f168" y="115.154489"/>
     <use style="fill:#1f77b4;stroke:#1f77b4;" x="831.243439" xlink:href="#m165e05f168" y="115.154489"/>
     <use style="fill:#1f77b4;stroke:#1f77b4;" x="604.839398" xlink:href="#m165e05f168" y="16.318125"/>
     <use style="fill:#1f77b4;stroke:#1f77b4;" x="545.091293" xlink:href="#m165e05f168" y="16.318125"/>
     <use style="fill:#1f77b4;stroke:#1f77b4;" x="439.512793" xlink:href="#m165e05f168" y="115.154489"/>
     <use style="fill:#1f77b4;stroke:#1f77b4;" x="285.857104" xlink:href="#m165e05f168" y="115.154489"/>
     <use style="fill:#1f77b4;stroke:#1f77b4;" x="542.257901" xlink:href="#m165e05f168" y="115.154489"/>
     <use style="fill:#1f77b4;stroke:#1f77b4;" x="470.982676" xlink:href="#m165e05f168" y="115.154489"/>
     <use style="fill:#1f77b4;stroke:#1f77b4;" x="944.554544" xlink:href="#m165e05f168" y="115.154489"/>
     <use style="fill:#1f77b4;stroke:#1f77b4;" x="459.512001" xlink:href="#m165e05f168" y="115.154489"/>
     <use style="fill:#1f77b4;stroke:#1f77b4;" x="699.548745" xlink:href="#m165e05f168" y="115.154489"/>
     <use style="fill:#1f77b4;stroke:#1f77b4;" x="757.910291" xlink:href="#m165e05f168" y="115.154489"/>
     <use style="fill:#1f77b4;stroke:#1f77b4;" x="805.910509" xlink:href="#m165e05f168" y="115.154489"/>
     <use style="fill:#1f77b4;stroke:#1f77b4;" x="852.915515" xlink:href="#m165e05f168" y="115.154489"/>
     <use style="fill:#1f77b4;stroke:#1f77b4;" x="793.520856" xlink:href="#m165e05f168" y="115.154489"/>
     <use style="fill:#1f77b4;stroke:#1f77b4;" x="648.96082" xlink:href="#m165e05f168" y="115.154489"/>
     <use style="fill:#1f77b4;stroke:#1f77b4;" x="583.761035" xlink:href="#m165e05f168" y="16.318125"/>
     <use style="fill:#1f77b4;stroke:#1f77b4;" x="657.516906" xlink:href="#m165e05f168" y="115.154489"/>
     <use style="fill:#1f77b4;stroke:#1f77b4;" x="842.313841" xlink:href="#m165e05f168" y="115.154489"/>
     <use style="fill:#1f77b4;stroke:#1f77b4;" x="949.171034" xlink:href="#m165e05f168" y="115.154489"/>
     <use style="fill:#1f77b4;stroke:#1f77b4;" x="797.818686" xlink:href="#m165e05f168" y="115.154489"/>
     <use style="fill:#1f77b4;stroke:#1f77b4;" x="897.251423" xlink:href="#m165e05f168" y="115.154489"/>
     <use style="fill:#1f77b4;stroke:#1f77b4;" x="885.438572" xlink:href="#m165e05f168" y="115.154489"/>
     <use style="fill:#1f77b4;stroke:#1f77b4;" x="612.032828" xlink:href="#m165e05f168" y="115.154489"/>
     <use style="fill:#1f77b4;stroke:#1f77b4;" x="566.725707" xlink:href="#m165e05f168" y="115.154489"/>
     <use style="fill:#1f77b4;stroke:#1f77b4;" x="309.002831" xlink:href="#m165e05f168" y="115.154489"/>
     <use style="fill:#1f77b4;stroke:#1f77b4;" x="737.585168" xlink:href="#m165e05f168" y="115.154489"/>
     <use style="fill:#1f77b4;stroke:#1f77b4;" x="497.984308" xlink:href="#m165e05f168" y="115.154489"/>
     <use style="fill:#1f77b4;stroke:#1f77b4;" x="534.721545" xlink:href="#m165e05f168" y="115.154489"/>
     <use style="fill:#1f77b4;stroke:#1f77b4;" x="744.340585" xlink:href="#m165e05f168" y="115.154489"/>
     <use style="fill:#1f77b4;stroke:#1f77b4;" x="779.916992" xlink:href="#m165e05f168" y="115.154489"/>
     <use style="fill:#1f77b4;stroke:#1f77b4;" x="779.378133" xlink:href="#m165e05f168" y="115.154489"/>
     <use style="fill:#1f77b4;stroke:#1f77b4;" x="962.116541" xlink:href="#m165e05f168" y="115.154489"/>
     <use style="fill:#1f77b4;stroke:#1f77b4;" x="618.813308" xlink:href="#m165e05f168" y="16.318125"/>
     <use style="fill:#1f77b4;stroke:#1f77b4;" x="748.265273" xlink:href="#m165e05f168" y="115.154489"/>
     <use style="fill:#1f77b4;stroke:#1f77b4;" x="619.552583" xlink:href="#m165e05f168" y="16.318125"/>
     <use style="fill:#1f77b4;stroke:#1f77b4;" x="507.635728" xlink:href="#m165e05f168" y="115.154489"/>
     <use style="fill:#1f77b4;stroke:#1f77b4;" x="445.094983" xlink:href="#m165e05f168" y="115.154489"/>
     <use style="fill:#1f77b4;stroke:#1f77b4;" x="380.32501" xlink:href="#m165e05f168" y="115.154489"/>
     <use style="fill:#1f77b4;stroke:#1f77b4;" x="875.81922" xlink:href="#m165e05f168" y="115.154489"/>
     <use style="fill:#1f77b4;stroke:#1f77b4;" x="894.20857" xlink:href="#m165e05f168" y="115.154489"/>
     <use style="fill:#1f77b4;stroke:#1f77b4;" x="406.720721" xlink:href="#m165e05f168" y="115.154489"/>
     <use style="fill:#1f77b4;stroke:#1f77b4;" x="789.649345" xlink:href="#m165e05f168" y="115.154489"/>
     <use style="fill:#1f77b4;stroke:#1f77b4;" x="225.33729" xlink:href="#m165e05f168" y="115.154489"/>
     <use style="fill:#1f77b4;stroke:#1f77b4;" x="390.303455" xlink:href="#m165e05f168" y="115.154489"/>
     <use style="fill:#1f77b4;stroke:#1f77b4;" x="482.518797" xlink:href="#m165e05f168" y="115.154489"/>
     <use style="fill:#1f77b4;stroke:#1f77b4;" x="812.131249" xlink:href="#m165e05f168" y="115.154489"/>
     <use style="fill:#1f77b4;stroke:#1f77b4;" x="362.237498" xlink:href="#m165e05f168" y="115.154489"/>
     <use style="fill:#1f77b4;stroke:#1f77b4;" x="702.794462" xlink:href="#m165e05f168" y="115.154489"/>
     <use style="fill:#1f77b4;stroke:#1f77b4;" x="522.178964" xlink:href="#m165e05f168" y="16.318125"/>
     <use style="fill:#1f77b4;stroke:#1f77b4;" x="752.283012" xlink:href="#m165e05f168" y="115.154489"/>
     <use style="fill:#1f77b4;stroke:#1f77b4;" x="463.00815" xlink:href="#m165e05f168" y="115.154489"/>
     <use style="fill:#1f77b4;stroke:#1f77b4;" x="936.778838" xlink:href="#m165e05f168" y="115.154489"/>
     <use style="fill:#1f77b4;stroke:#1f77b4;" x="656.284686" xlink:href="#m165e05f168" y="115.154489"/>
     <use style="fill:#1f77b4;stroke:#1f77b4;" x="841.712445" xlink:href="#m165e05f168" y="115.154489"/>
     <use style="fill:#1f77b4;stroke:#1f77b4;" x="877.818227" xlink:href="#m165e05f168" y="115.154489"/>
     <use style="fill:#1f77b4;stroke:#1f77b4;" x="954.595725" xlink:href="#m165e05f168" y="115.154489"/>
     <use style="fill:#1f77b4;stroke:#1f77b4;" x="741.289258" xlink:href="#m165e05f168" y="115.154489"/>
    </g>
   </g>
   <g id="matplotlib.axis_1">
    <g id="xtick_1">
     <g id="line2d_1">
      <defs>
       <path d="M 0 0 
L 0 3.5 
" id="me4604ff0a4" style="stroke:#000000;stroke-width:0.8;"/>
      </defs>
      <g>
       <use style="stroke:#000000;stroke-width:0.8;" x="522.597175" xlink:href="#me4604ff0a4" y="120.096307"/>
      </g>
     </g>
     <g id="text_1">
      <!-- $\mathdefault{10^{0}}$ -->
      <defs>
       <path d="M 12.40625 8.296875 
L 28.515625 8.296875 
L 28.515625 63.921875 
L 10.984375 60.40625 
L 10.984375 69.390625 
L 28.421875 72.90625 
L 38.28125 72.90625 
L 38.28125 8.296875 
L 54.390625 8.296875 
L 54.390625 0 
L 12.40625 0 
z
" id="DejaVuSans-49"/>
       <path d="M 31.78125 66.40625 
Q 24.171875 66.40625 20.328125 58.90625 
Q 16.5 51.421875 16.5 36.375 
Q 16.5 21.390625 20.328125 13.890625 
Q 24.171875 6.390625 31.78125 6.390625 
Q 39.453125 6.390625 43.28125 13.890625 
Q 47.125 21.390625 47.125 36.375 
Q 47.125 51.421875 43.28125 58.90625 
Q 39.453125 66.40625 31.78125 66.40625 
z
M 31.78125 74.21875 
Q 44.046875 74.21875 50.515625 64.515625 
Q 56.984375 54.828125 56.984375 36.375 
Q 56.984375 17.96875 50.515625 8.265625 
Q 44.046875 -1.421875 31.78125 -1.421875 
Q 19.53125 -1.421875 13.0625 8.265625 
Q 6.59375 17.96875 6.59375 36.375 
Q 6.59375 54.828125 13.0625 64.515625 
Q 19.53125 74.21875 31.78125 74.21875 
z
" id="DejaVuSans-48"/>
      </defs>
      <g transform="translate(504.997175 142.293182)scale(0.2 -0.2)">
       <use transform="translate(0 0.765625)" xlink:href="#DejaVuSans-49"/>
       <use transform="translate(63.623047 0.765625)" xlink:href="#DejaVuSans-48"/>
       <use transform="translate(128.203125 39.046875)scale(0.7)" xlink:href="#DejaVuSans-48"/>
      </g>
     </g>
    </g>
    <g id="xtick_2">
     <g id="line2d_2">
      <g>
       <use style="stroke:#000000;stroke-width:0.8;" x="980.234125" xlink:href="#me4604ff0a4" y="120.096307"/>
      </g>
     </g>
     <g id="text_2">
      <!-- $\mathdefault{10^{1}}$ -->
      <g transform="translate(962.634125 142.293182)scale(0.2 -0.2)">
       <use transform="translate(0 0.684375)" xlink:href="#DejaVuSans-49"/>
       <use transform="translate(63.623047 0.684375)" xlink:href="#DejaVuSans-48"/>
       <use transform="translate(128.203125 38.965625)scale(0.7)" xlink:href="#DejaVuSans-49"/>
      </g>
     </g>
    </g>
    <g id="xtick_3">
     <g id="line2d_3">
      <defs>
       <path d="M 0 0 
L 0 2 
" id="m8ecd38e7ce" style="stroke:#000000;stroke-width:0.6;"/>
      </defs>
      <g>
       <use style="stroke:#000000;stroke-width:0.6;" x="202.722675" xlink:href="#m8ecd38e7ce" y="120.096307"/>
      </g>
     </g>
    </g>
    <g id="xtick_4">
     <g id="line2d_4">
      <g>
       <use style="stroke:#000000;stroke-width:0.6;" x="283.308542" xlink:href="#m8ecd38e7ce" y="120.096307"/>
      </g>
     </g>
    </g>
    <g id="xtick_5">
     <g id="line2d_5">
      <g>
       <use style="stroke:#000000;stroke-width:0.6;" x="340.485124" xlink:href="#m8ecd38e7ce" y="120.096307"/>
      </g>
     </g>
    </g>
    <g id="xtick_6">
     <g id="line2d_6">
      <g>
       <use style="stroke:#000000;stroke-width:0.6;" x="384.834727" xlink:href="#m8ecd38e7ce" y="120.096307"/>
      </g>
     </g>
    </g>
    <g id="xtick_7">
     <g id="line2d_7">
      <g>
       <use style="stroke:#000000;stroke-width:0.6;" x="421.07099" xlink:href="#m8ecd38e7ce" y="120.096307"/>
      </g>
     </g>
    </g>
    <g id="xtick_8">
     <g id="line2d_8">
      <g>
       <use style="stroke:#000000;stroke-width:0.6;" x="451.708315" xlink:href="#m8ecd38e7ce" y="120.096307"/>
      </g>
     </g>
    </g>
    <g id="xtick_9">
     <g id="line2d_9">
      <g>
       <use style="stroke:#000000;stroke-width:0.6;" x="478.247573" xlink:href="#m8ecd38e7ce" y="120.096307"/>
      </g>
     </g>
    </g>
    <g id="xtick_10">
     <g id="line2d_10">
      <g>
       <use style="stroke:#000000;stroke-width:0.6;" x="501.656857" xlink:href="#m8ecd38e7ce" y="120.096307"/>
      </g>
     </g>
    </g>
    <g id="xtick_11">
     <g id="line2d_11">
      <g>
       <use style="stroke:#000000;stroke-width:0.6;" x="660.359624" xlink:href="#m8ecd38e7ce" y="120.096307"/>
      </g>
     </g>
    </g>
    <g id="xtick_12">
     <g id="line2d_12">
      <g>
       <use style="stroke:#000000;stroke-width:0.6;" x="740.945491" xlink:href="#m8ecd38e7ce" y="120.096307"/>
      </g>
     </g>
    </g>
    <g id="xtick_13">
     <g id="line2d_13">
      <g>
       <use style="stroke:#000000;stroke-width:0.6;" x="798.122073" xlink:href="#m8ecd38e7ce" y="120.096307"/>
      </g>
     </g>
    </g>
    <g id="xtick_14">
     <g id="line2d_14">
      <g>
       <use style="stroke:#000000;stroke-width:0.6;" x="842.471676" xlink:href="#m8ecd38e7ce" y="120.096307"/>
      </g>
     </g>
    </g>
    <g id="xtick_15">
     <g id="line2d_15">
      <g>
       <use style="stroke:#000000;stroke-width:0.6;" x="878.70794" xlink:href="#m8ecd38e7ce" y="120.096307"/>
      </g>
     </g>
    </g>
    <g id="xtick_16">
     <g id="line2d_16">
      <g>
       <use style="stroke:#000000;stroke-width:0.6;" x="909.345264" xlink:href="#m8ecd38e7ce" y="120.096307"/>
      </g>
     </g>
    </g>
    <g id="xtick_17">
     <g id="line2d_17">
      <g>
       <use style="stroke:#000000;stroke-width:0.6;" x="935.884522" xlink:href="#m8ecd38e7ce" y="120.096307"/>
      </g>
     </g>
    </g>
    <g id="xtick_18">
     <g id="line2d_18">
      <g>
       <use style="stroke:#000000;stroke-width:0.6;" x="959.293806" xlink:href="#m8ecd38e7ce" y="120.096307"/>
      </g>
     </g>
    </g>
    <g id="text_3">
     <!-- Semi-major axis (scaled) (AU) -->
     <defs>
      <path d="M 53.515625 70.515625 
L 53.515625 60.890625 
Q 47.90625 63.578125 42.921875 64.890625 
Q 37.9375 66.21875 33.296875 66.21875 
Q 25.25 66.21875 20.875 63.09375 
Q 16.5 59.96875 16.5 54.203125 
Q 16.5 49.359375 19.40625 46.890625 
Q 22.3125 44.4375 30.421875 42.921875 
L 36.375 41.703125 
Q 47.40625 39.59375 52.65625 34.296875 
Q 57.90625 29 57.90625 20.125 
Q 57.90625 9.515625 50.796875 4.046875 
Q 43.703125 -1.421875 29.984375 -1.421875 
Q 24.8125 -1.421875 18.96875 -0.25 
Q 13.140625 0.921875 6.890625 3.21875 
L 6.890625 13.375 
Q 12.890625 10.015625 18.65625 8.296875 
Q 24.421875 6.59375 29.984375 6.59375 
Q 38.421875 6.59375 43.015625 9.90625 
Q 47.609375 13.234375 47.609375 19.390625 
Q 47.609375 24.75 44.3125 27.78125 
Q 41.015625 30.8125 33.5 32.328125 
L 27.484375 33.5 
Q 16.453125 35.6875 11.515625 40.375 
Q 6.59375 45.0625 6.59375 53.421875 
Q 6.59375 63.09375 13.40625 68.65625 
Q 20.21875 74.21875 32.171875 74.21875 
Q 37.3125 74.21875 42.625 73.28125 
Q 47.953125 72.359375 53.515625 70.515625 
z
" id="DejaVuSans-83"/>
      <path d="M 56.203125 29.59375 
L 56.203125 25.203125 
L 14.890625 25.203125 
Q 15.484375 15.921875 20.484375 11.0625 
Q 25.484375 6.203125 34.421875 6.203125 
Q 39.59375 6.203125 44.453125 7.46875 
Q 49.3125 8.734375 54.109375 11.28125 
L 54.109375 2.78125 
Q 49.265625 0.734375 44.1875 -0.34375 
Q 39.109375 -1.421875 33.890625 -1.421875 
Q 20.796875 -1.421875 13.15625 6.1875 
Q 5.515625 13.8125 5.515625 26.8125 
Q 5.515625 40.234375 12.765625 48.109375 
Q 20.015625 56 32.328125 56 
Q 43.359375 56 49.78125 48.890625 
Q 56.203125 41.796875 56.203125 29.59375 
z
M 47.21875 32.234375 
Q 47.125 39.59375 43.09375 43.984375 
Q 39.0625 48.390625 32.421875 48.390625 
Q 24.90625 48.390625 20.390625 44.140625 
Q 15.875 39.890625 15.1875 32.171875 
z
" id="DejaVuSans-101"/>
      <path d="M 52 44.1875 
Q 55.375 50.25 60.0625 53.125 
Q 64.75 56 71.09375 56 
Q 79.640625 56 84.28125 50.015625 
Q 88.921875 44.046875 88.921875 33.015625 
L 88.921875 0 
L 79.890625 0 
L 79.890625 32.71875 
Q 79.890625 40.578125 77.09375 44.375 
Q 74.3125 48.1875 68.609375 48.1875 
Q 61.625 48.1875 57.5625 43.546875 
Q 53.515625 38.921875 53.515625 30.90625 
L 53.515625 0 
L 44.484375 0 
L 44.484375 32.71875 
Q 44.484375 40.625 41.703125 44.40625 
Q 38.921875 48.1875 33.109375 48.1875 
Q 26.21875 48.1875 22.15625 43.53125 
Q 18.109375 38.875 18.109375 30.90625 
L 18.109375 0 
L 9.078125 0 
L 9.078125 54.6875 
L 18.109375 54.6875 
L 18.109375 46.1875 
Q 21.1875 51.21875 25.484375 53.609375 
Q 29.78125 56 35.6875 56 
Q 41.65625 56 45.828125 52.96875 
Q 50 49.953125 52 44.1875 
z
" id="DejaVuSans-109"/>
      <path d="M 9.421875 54.6875 
L 18.40625 54.6875 
L 18.40625 0 
L 9.421875 0 
z
M 9.421875 75.984375 
L 18.40625 75.984375 
L 18.40625 64.59375 
L 9.421875 64.59375 
z
" id="DejaVuSans-105"/>
      <path d="M 4.890625 31.390625 
L 31.203125 31.390625 
L 31.203125 23.390625 
L 4.890625 23.390625 
z
" id="DejaVuSans-45"/>
      <path d="M 34.28125 27.484375 
Q 23.390625 27.484375 19.1875 25 
Q 14.984375 22.515625 14.984375 16.5 
Q 14.984375 11.71875 18.140625 8.90625 
Q 21.296875 6.109375 26.703125 6.109375 
Q 34.1875 6.109375 38.703125 11.40625 
Q 43.21875 16.703125 43.21875 25.484375 
L 43.21875 27.484375 
z
M 52.203125 31.203125 
L 52.203125 0 
L 43.21875 0 
L 43.21875 8.296875 
Q 40.140625 3.328125 35.546875 0.953125 
Q 30.953125 -1.421875 24.3125 -1.421875 
Q 15.921875 -1.421875 10.953125 3.296875 
Q 6 8.015625 6 15.921875 
Q 6 25.140625 12.171875 29.828125 
Q 18.359375 34.515625 30.609375 34.515625 
L 43.21875 34.515625 
L 43.21875 35.40625 
Q 43.21875 41.609375 39.140625 45 
Q 35.0625 48.390625 27.6875 48.390625 
Q 23 48.390625 18.546875 47.265625 
Q 14.109375 46.140625 10.015625 43.890625 
L 10.015625 52.203125 
Q 14.9375 54.109375 19.578125 55.046875 
Q 24.21875 56 28.609375 56 
Q 40.484375 56 46.34375 49.84375 
Q 52.203125 43.703125 52.203125 31.203125 
z
" id="DejaVuSans-97"/>
      <path d="M 9.421875 54.6875 
L 18.40625 54.6875 
L 18.40625 -0.984375 
Q 18.40625 -11.421875 14.421875 -16.109375 
Q 10.453125 -20.796875 1.609375 -20.796875 
L -1.8125 -20.796875 
L -1.8125 -13.1875 
L 0.59375 -13.1875 
Q 5.71875 -13.1875 7.5625 -10.8125 
Q 9.421875 -8.453125 9.421875 -0.984375 
z
M 9.421875 75.984375 
L 18.40625 75.984375 
L 18.40625 64.59375 
L 9.421875 64.59375 
z
" id="DejaVuSans-106"/>
      <path d="M 30.609375 48.390625 
Q 23.390625 48.390625 19.1875 42.75 
Q 14.984375 37.109375 14.984375 27.296875 
Q 14.984375 17.484375 19.15625 11.84375 
Q 23.34375 6.203125 30.609375 6.203125 
Q 37.796875 6.203125 41.984375 11.859375 
Q 46.1875 17.53125 46.1875 27.296875 
Q 46.1875 37.015625 41.984375 42.703125 
Q 37.796875 48.390625 30.609375 48.390625 
z
M 30.609375 56 
Q 42.328125 56 49.015625 48.375 
Q 55.71875 40.765625 55.71875 27.296875 
Q 55.71875 13.875 49.015625 6.21875 
Q 42.328125 -1.421875 30.609375 -1.421875 
Q 18.84375 -1.421875 12.171875 6.21875 
Q 5.515625 13.875 5.515625 27.296875 
Q 5.515625 40.765625 12.171875 48.375 
Q 18.84375 56 30.609375 56 
z
" id="DejaVuSans-111"/>
      <path d="M 41.109375 46.296875 
Q 39.59375 47.171875 37.8125 47.578125 
Q 36.03125 48 33.890625 48 
Q 26.265625 48 22.1875 43.046875 
Q 18.109375 38.09375 18.109375 28.8125 
L 18.109375 0 
L 9.078125 0 
L 9.078125 54.6875 
L 18.109375 54.6875 
L 18.109375 46.1875 
Q 20.953125 51.171875 25.484375 53.578125 
Q 30.03125 56 36.53125 56 
Q 37.453125 56 38.578125 55.875 
Q 39.703125 55.765625 41.0625 55.515625 
z
" id="DejaVuSans-114"/>
      <path id="DejaVuSans-32"/>
      <path d="M 54.890625 54.6875 
L 35.109375 28.078125 
L 55.90625 0 
L 45.3125 0 
L 29.390625 21.484375 
L 13.484375 0 
L 2.875 0 
L 24.125 28.609375 
L 4.6875 54.6875 
L 15.28125 54.6875 
L 29.78125 35.203125 
L 44.28125 54.6875 
z
" id="DejaVuSans-120"/>
      <path d="M 44.28125 53.078125 
L 44.28125 44.578125 
Q 40.484375 46.53125 36.375 47.5 
Q 32.28125 48.484375 27.875 48.484375 
Q 21.1875 48.484375 17.84375 46.4375 
Q 14.5 44.390625 14.5 40.28125 
Q 14.5 37.15625 16.890625 35.375 
Q 19.28125 33.59375 26.515625 31.984375 
L 29.59375 31.296875 
Q 39.15625 29.25 43.1875 25.515625 
Q 47.21875 21.78125 47.21875 15.09375 
Q 47.21875 7.46875 41.1875 3.015625 
Q 35.15625 -1.421875 24.609375 -1.421875 
Q 20.21875 -1.421875 15.453125 -0.5625 
Q 10.6875 0.296875 5.421875 2 
L 5.421875 11.28125 
Q 10.40625 8.6875 15.234375 7.390625 
Q 20.0625 6.109375 24.8125 6.109375 
Q 31.15625 6.109375 34.5625 8.28125 
Q 37.984375 10.453125 37.984375 14.40625 
Q 37.984375 18.0625 35.515625 20.015625 
Q 33.0625 21.96875 24.703125 23.78125 
L 21.578125 24.515625 
Q 13.234375 26.265625 9.515625 29.90625 
Q 5.8125 33.546875 5.8125 39.890625 
Q 5.8125 47.609375 11.28125 51.796875 
Q 16.75 56 26.8125 56 
Q 31.78125 56 36.171875 55.265625 
Q 40.578125 54.546875 44.28125 53.078125 
z
" id="DejaVuSans-115"/>
      <path d="M 31 75.875 
Q 24.46875 64.65625 21.28125 53.65625 
Q 18.109375 42.671875 18.109375 31.390625 
Q 18.109375 20.125 21.3125 9.0625 
Q 24.515625 -2 31 -13.1875 
L 23.1875 -13.1875 
Q 15.875 -1.703125 12.234375 9.375 
Q 8.59375 20.453125 8.59375 31.390625 
Q 8.59375 42.28125 12.203125 53.3125 
Q 15.828125 64.359375 23.1875 75.875 
z
" id="DejaVuSans-40"/>
      <path d="M 48.78125 52.59375 
L 48.78125 44.1875 
Q 44.96875 46.296875 41.140625 47.34375 
Q 37.3125 48.390625 33.40625 48.390625 
Q 24.65625 48.390625 19.8125 42.84375 
Q 14.984375 37.3125 14.984375 27.296875 
Q 14.984375 17.28125 19.8125 11.734375 
Q 24.65625 6.203125 33.40625 6.203125 
Q 37.3125 6.203125 41.140625 7.25 
Q 44.96875 8.296875 48.78125 10.40625 
L 48.78125 2.09375 
Q 45.015625 0.34375 40.984375 -0.53125 
Q 36.96875 -1.421875 32.421875 -1.421875 
Q 20.0625 -1.421875 12.78125 6.34375 
Q 5.515625 14.109375 5.515625 27.296875 
Q 5.515625 40.671875 12.859375 48.328125 
Q 20.21875 56 33.015625 56 
Q 37.15625 56 41.109375 55.140625 
Q 45.0625 54.296875 48.78125 52.59375 
z
" id="DejaVuSans-99"/>
      <path d="M 9.421875 75.984375 
L 18.40625 75.984375 
L 18.40625 0 
L 9.421875 0 
z
" id="DejaVuSans-108"/>
      <path d="M 45.40625 46.390625 
L 45.40625 75.984375 
L 54.390625 75.984375 
L 54.390625 0 
L 45.40625 0 
L 45.40625 8.203125 
Q 42.578125 3.328125 38.25 0.953125 
Q 33.9375 -1.421875 27.875 -1.421875 
Q 17.96875 -1.421875 11.734375 6.484375 
Q 5.515625 14.40625 5.515625 27.296875 
Q 5.515625 40.1875 11.734375 48.09375 
Q 17.96875 56 27.875 56 
Q 33.9375 56 38.25 53.625 
Q 42.578125 51.265625 45.40625 46.390625 
z
M 14.796875 27.296875 
Q 14.796875 17.390625 18.875 11.75 
Q 22.953125 6.109375 30.078125 6.109375 
Q 37.203125 6.109375 41.296875 11.75 
Q 45.40625 17.390625 45.40625 27.296875 
Q 45.40625 37.203125 41.296875 42.84375 
Q 37.203125 48.484375 30.078125 48.484375 
Q 22.953125 48.484375 18.875 42.84375 
Q 14.796875 37.203125 14.796875 27.296875 
z
" id="DejaVuSans-100"/>
      <path d="M 8.015625 75.875 
L 15.828125 75.875 
Q 23.140625 64.359375 26.78125 53.3125 
Q 30.421875 42.28125 30.421875 31.390625 
Q 30.421875 20.453125 26.78125 9.375 
Q 23.140625 -1.703125 15.828125 -13.1875 
L 8.015625 -13.1875 
Q 14.5 -2 17.703125 9.0625 
Q 20.90625 20.125 20.90625 31.390625 
Q 20.90625 42.671875 17.703125 53.65625 
Q 14.5 64.65625 8.015625 75.875 
z
" id="DejaVuSans-41"/>
      <path d="M 34.1875 63.1875 
L 20.796875 26.90625 
L 47.609375 26.90625 
z
M 28.609375 72.90625 
L 39.796875 72.90625 
L 67.578125 0 
L 57.328125 0 
L 50.6875 18.703125 
L 17.828125 18.703125 
L 11.1875 0 
L 0.78125 0 
z
" id="DejaVuSans-65"/>
      <path d="M 8.6875 72.90625 
L 18.609375 72.90625 
L 18.609375 28.609375 
Q 18.609375 16.890625 22.84375 11.734375 
Q 27.09375 6.59375 36.625 6.59375 
Q 46.09375 6.59375 50.34375 11.734375 
Q 54.59375 16.890625 54.59375 28.609375 
L 54.59375 72.90625 
L 64.5 72.90625 
L 64.5 27.390625 
Q 64.5 13.140625 57.4375 5.859375 
Q 50.390625 -1.421875 36.625 -1.421875 
Q 22.796875 -1.421875 15.734375 5.859375 
Q 8.6875 13.140625 8.6875 27.390625 
z
" id="DejaVuSans-85"/>
     </defs>
     <g transform="translate(380.494375 168.688807)scale(0.24 -0.24)">
      <use xlink:href="#DejaVuSans-83"/>
      <use x="63.476562" xlink:href="#DejaVuSans-101"/>
      <use x="125" xlink:href="#DejaVuSans-109"/>
      <use x="222.412109" xlink:href="#DejaVuSans-105"/>
      <use x="250.195312" xlink:href="#DejaVuSans-45"/>
      <use x="286.279297" xlink:href="#DejaVuSans-109"/>
      <use x="383.691406" xlink:href="#DejaVuSans-97"/>
      <use x="444.970703" xlink:href="#DejaVuSans-106"/>
      <use x="472.753906" xlink:href="#DejaVuSans-111"/>
      <use x="533.935547" xlink:href="#DejaVuSans-114"/>
      <use x="575.048828" xlink:href="#DejaVuSans-32"/>
      <use x="606.835938" xlink:href="#DejaVuSans-97"/>
      <use x="668.115234" xlink:href="#DejaVuSans-120"/>
      <use x="727.294922" xlink:href="#DejaVuSans-105"/>
      <use x="755.078125" xlink:href="#DejaVuSans-115"/>
      <use x="807.177734" xlink:href="#DejaVuSans-32"/>
      <use x="838.964844" xlink:href="#DejaVuSans-40"/>
      <use x="877.978516" xlink:href="#DejaVuSans-115"/>
      <use x="930.078125" xlink:href="#DejaVuSans-99"/>
      <use x="985.058594" xlink:href="#DejaVuSans-97"/>
      <use x="1046.337891" xlink:href="#DejaVuSans-108"/>
      <use x="1074.121094" xlink:href="#DejaVuSans-101"/>
      <use x="1135.644531" xlink:href="#DejaVuSans-100"/>
      <use x="1199.121094" xlink:href="#DejaVuSans-41"/>
      <use x="1238.134766" xlink:href="#DejaVuSans-32"/>
      <use x="1269.921875" xlink:href="#DejaVuSans-40"/>
      <use x="1308.935547" xlink:href="#DejaVuSans-65"/>
      <use x="1377.34375" xlink:href="#DejaVuSans-85"/>
      <use x="1450.537109" xlink:href="#DejaVuSans-41"/>
     </g>
    </g>
   </g>
   <g id="matplotlib.axis_2">
    <g id="ytick_1">
     <g id="line2d_19">
      <defs>
       <path d="M 0 0 
L -3.5 0 
" id="m04ebc7b96a" style="stroke:#000000;stroke-width:0.8;"/>
      </defs>
      <g>
       <use style="stroke:#000000;stroke-width:0.8;" x="112.84" xlink:href="#m04ebc7b96a" y="115.154489"/>
      </g>
     </g>
     <g id="text_4">
      <!-- no H$_2$O -->
      <defs>
       <path d="M 54.890625 33.015625 
L 54.890625 0 
L 45.90625 0 
L 45.90625 32.71875 
Q 45.90625 40.484375 42.875 44.328125 
Q 39.84375 48.1875 33.796875 48.1875 
Q 26.515625 48.1875 22.3125 43.546875 
Q 18.109375 38.921875 18.109375 30.90625 
L 18.109375 0 
L 9.078125 0 
L 9.078125 54.6875 
L 18.109375 54.6875 
L 18.109375 46.1875 
Q 21.34375 51.125 25.703125 53.5625 
Q 30.078125 56 35.796875 56 
Q 45.21875 56 50.046875 50.171875 
Q 54.890625 44.34375 54.890625 33.015625 
z
" id="DejaVuSans-110"/>
       <path d="M 9.8125 72.90625 
L 19.671875 72.90625 
L 19.671875 43.015625 
L 55.515625 43.015625 
L 55.515625 72.90625 
L 65.375 72.90625 
L 65.375 0 
L 55.515625 0 
L 55.515625 34.71875 
L 19.671875 34.71875 
L 19.671875 0 
L 9.8125 0 
z
" id="DejaVuSans-72"/>
       <path d="M 19.1875 8.296875 
L 53.609375 8.296875 
L 53.609375 0 
L 7.328125 0 
L 7.328125 8.296875 
Q 12.9375 14.109375 22.625 23.890625 
Q 32.328125 33.6875 34.8125 36.53125 
Q 39.546875 41.84375 41.421875 45.53125 
Q 43.3125 49.21875 43.3125 52.78125 
Q 43.3125 58.59375 39.234375 62.25 
Q 35.15625 65.921875 28.609375 65.921875 
Q 23.96875 65.921875 18.8125 64.3125 
Q 13.671875 62.703125 7.8125 59.421875 
L 7.8125 69.390625 
Q 13.765625 71.78125 18.9375 73 
Q 24.125 74.21875 28.421875 74.21875 
Q 39.75 74.21875 46.484375 68.546875 
Q 53.21875 62.890625 53.21875 53.421875 
Q 53.21875 48.921875 51.53125 44.890625 
Q 49.859375 40.875 45.40625 35.40625 
Q 44.1875 33.984375 37.640625 27.21875 
Q 31.109375 20.453125 19.1875 8.296875 
z
" id="DejaVuSans-50"/>
       <path d="M 39.40625 66.21875 
Q 28.65625 66.21875 22.328125 58.203125 
Q 16.015625 50.203125 16.015625 36.375 
Q 16.015625 22.609375 22.328125 14.59375 
Q 28.65625 6.59375 39.40625 6.59375 
Q 50.140625 6.59375 56.421875 14.59375 
Q 62.703125 22.609375 62.703125 36.375 
Q 62.703125 50.203125 56.421875 58.203125 
Q 50.140625 66.21875 39.40625 66.21875 
z
M 39.40625 74.21875 
Q 54.734375 74.21875 63.90625 63.9375 
Q 73.09375 53.65625 73.09375 36.375 
Q 73.09375 19.140625 63.90625 8.859375 
Q 54.734375 -1.421875 39.40625 -1.421875 
Q 24.03125 -1.421875 14.8125 8.828125 
Q 5.609375 19.09375 5.609375 36.375 
Q 5.609375 53.65625 14.8125 63.9375 
Q 24.03125 74.21875 39.40625 74.21875 
z
" id="DejaVuSans-79"/>
      </defs>
      <g transform="translate(19.68 124.272614)scale(0.24 -0.24)">
       <use transform="translate(0 0.78125)" xlink:href="#DejaVuSans-110"/>
       <use transform="translate(63.378906 0.78125)" xlink:href="#DejaVuSans-111"/>
       <use transform="translate(124.560547 0.78125)" xlink:href="#DejaVuSans-32"/>
       <use transform="translate(156.347656 0.78125)" xlink:href="#DejaVuSans-72"/>
       <use transform="translate(232.5 -15.625)scale(0.7)" xlink:href="#DejaVuSans-50"/>
       <use transform="translate(279.770508 0.78125)" xlink:href="#DejaVuSans-79"/>
      </g>
     </g>
    </g>
    <g id="ytick_2">
     <g id="line2d_20">
      <g>
       <use style="stroke:#000000;stroke-width:0.8;" x="112.84" xlink:href="#m04ebc7b96a" y="16.318125"/>
      </g>
     </g>
     <g id="text_5">
      <!-- has H$_2$O -->
      <defs>
       <path d="M 54.890625 33.015625 
L 54.890625 0 
L 45.90625 0 
L 45.90625 32.71875 
Q 45.90625 40.484375 42.875 44.328125 
Q 39.84375 48.1875 33.796875 48.1875 
Q 26.515625 48.1875 22.3125 43.546875 
Q 18.109375 38.921875 18.109375 30.90625 
L 18.109375 0 
L 9.078125 0 
L 9.078125 75.984375 
L 18.109375 75.984375 
L 18.109375 46.1875 
Q 21.34375 51.125 25.703125 53.5625 
Q 30.078125 56 35.796875 56 
Q 45.21875 56 50.046875 50.171875 
Q 54.890625 44.34375 54.890625 33.015625 
z
" id="DejaVuSans-104"/>
      </defs>
      <g transform="translate(7.2 25.43625)scale(0.24 -0.24)">
       <use transform="translate(0 0.015625)" xlink:href="#DejaVuSans-104"/>
       <use transform="translate(63.378906 0.015625)" xlink:href="#DejaVuSans-97"/>
       <use transform="translate(124.658203 0.015625)" xlink:href="#DejaVuSans-115"/>
       <use transform="translate(176.757812 0.015625)" xlink:href="#DejaVuSans-32"/>
       <use transform="translate(208.544922 0.015625)" xlink:href="#DejaVuSans-72"/>
       <use transform="translate(284.697266 -16.390625)scale(0.7)" xlink:href="#DejaVuSans-50"/>
       <use transform="translate(331.967773 0.015625)" xlink:href="#DejaVuSans-79"/>
      </g>
     </g>
    </g>
   </g>
   <g id="line2d_21">
    <path clip-path="url(#pd8b8499efc)" d="M 512.402674 120.096307 
L 512.402674 11.376307 
" style="fill:none;stroke:#000000;stroke-dasharray:3,4.95;stroke-dashoffset:0;stroke-width:3;"/>
   </g>
   <g id="line2d_22">
    <path clip-path="url(#pd8b8499efc)" d="M 628.059117 120.096307 
L 628.059117 11.376307 
" style="fill:none;stroke:#000000;stroke-dasharray:3,4.95;stroke-dashoffset:0;stroke-width:3;"/>
   </g>
   <g id="patch_3">
    <path d="M 112.84 120.096307 
L 112.84 11.376307 
" style="fill:none;stroke:#000000;stroke-linecap:square;stroke-linejoin:miter;stroke-width:0.8;"/>
   </g>
   <g id="patch_4">
    <path d="M 1005.64 120.096307 
L 1005.64 11.376307 
" style="fill:none;stroke:#000000;stroke-linecap:square;stroke-linejoin:miter;stroke-width:0.8;"/>
   </g>
   <g id="patch_5">
    <path d="M 112.84 120.096307 
L 1005.64 120.096307 
" style="fill:none;stroke:#000000;stroke-linecap:square;stroke-linejoin:miter;stroke-width:0.8;"/>
   </g>
   <g id="patch_6">
    <path d="M 112.84 11.376307 
L 1005.64 11.376307 
" style="fill:none;stroke:#000000;stroke-linecap:square;stroke-linejoin:miter;stroke-width:0.8;"/>
   </g>
  </g>
 </g>
 <defs>
  <clipPath id="pd8b8499efc">
   <rect height="108.72" width="892.8" x="112.84" y="11.376307"/>
  </clipPath>
 </defs>
</svg>
