<?xml version="1.0" encoding="utf-8" standalone="no"?>
<!DOCTYPE svg PUBLIC "-//W3C//DTD SVG 1.1//EN"
  "http://www.w3.org/Graphics/SVG/1.1/DTD/svg11.dtd">
<!-- Created with matplotlib (https://matplotlib.org/) -->
<svg height="180.880057pt" version="1.1" viewBox="0 0 1007.565 180.880057" width="1007.565pt" xmlns="http://www.w3.org/2000/svg" xmlns:xlink="http://www.w3.org/1999/xlink">
 <defs>
  <style type="text/css">
*{stroke-linecap:butt;stroke-linejoin:round;}
  </style>
 </defs>
 <g id="figure_1">
  <g id="patch_1">
   <path d="M 0 180.880057 
L 1007.565 180.880057 
L 1007.565 0 
L 0 0 
z
" style="fill:none;"/>
  </g>
  <g id="axes_1">
   <g id="patch_2">
    <path d="M 94.84 120.096307 
L 987.64 120.096307 
L 987.64 11.376307 
L 94.84 11.376307 
z
" style="fill:#ffffff;"/>
   </g>
   <g id="PathCollection_1">
    <defs>
     <path d="M 0 3 
C 0.795609 3 1.55874 2.683901 2.12132 2.12132 
C 2.683901 1.55874 3 0.795609 3 0 
C 3 -0.795609 2.683901 -1.55874 2.12132 -2.12132 
C 1.55874 -2.683901 0.795609 -3 0 -3 
C -0.795609 -3 -1.55874 -2.683901 -2.12132 -2.12132 
C -2.683901 -1.55874 -3 -0.795609 -3 0 
C -3 0.795609 -2.683901 1.55874 -2.12132 2.12132 
C -1.55874 2.683901 -0.795609 3 0 3 
z
" id="m582a777c95" style="stroke:#1f77b4;"/>
    </defs>
    <g clip-path="url(#pd4d7aaa4af)">
     <use style="fill:#1f77b4;stroke:#1f77b4;" x="873.889378" xlink:href="#m582a777c95" y="115.154489"/>
     <use style="fill:#1f77b4;stroke:#1f77b4;" x="1365.998672" xlink:href="#m582a777c95" y="16.318125"/>
     <use style="fill:#1f77b4;stroke:#1f77b4;" x="233.849446" xlink:href="#m582a777c95" y="115.154489"/>
     <use style="fill:#1f77b4;stroke:#1f77b4;" x="652.592546" xlink:href="#m582a777c95" y="115.154489"/>
     <use style="fill:#1f77b4;stroke:#1f77b4;" x="520.217375" xlink:href="#m582a777c95" y="16.318125"/>
     <use style="fill:#1f77b4;stroke:#1f77b4;" x="739.688865" xlink:href="#m582a777c95" y="16.318125"/>
     <use style="fill:#1f77b4;stroke:#1f77b4;" x="492.259791" xlink:href="#m582a777c95" y="16.318125"/>
     <use style="fill:#1f77b4;stroke:#1f77b4;" x="294.043975" xlink:href="#m582a777c95" y="16.318125"/>
     <use style="fill:#1f77b4;stroke:#1f77b4;" x="923.82729" xlink:href="#m582a777c95" y="16.318125"/>
     <use style="fill:#1f77b4;stroke:#1f77b4;" x="650.34714" xlink:href="#m582a777c95" y="16.318125"/>
     <use style="fill:#1f77b4;stroke:#1f77b4;" x="920.591924" xlink:href="#m582a777c95" y="16.318125"/>
     <use style="fill:#1f77b4;stroke:#1f77b4;" x="410.099952" xlink:href="#m582a777c95" y="115.154489"/>
     <use style="fill:#1f77b4;stroke:#1f77b4;" x="505.907972" xlink:href="#m582a777c95" y="115.154489"/>
     <use style="fill:#1f77b4;stroke:#1f77b4;" x="259.507914" xlink:href="#m582a777c95" y="115.154489"/>
     <use style="fill:#1f77b4;stroke:#1f77b4;" x="290.158515" xlink:href="#m582a777c95" y="16.318125"/>
     <use style="fill:#1f77b4;stroke:#1f77b4;" x="201.472515" xlink:href="#m582a777c95" y="115.154489"/>
     <use style="fill:#1f77b4;stroke:#1f77b4;" x="601.342936" xlink:href="#m582a777c95" y="16.318125"/>
     <use style="fill:#1f77b4;stroke:#1f77b4;" x="899.936371" xlink:href="#m582a777c95" y="16.318125"/>
     <use style="fill:#1f77b4;stroke:#1f77b4;" x="702.034581" xlink:href="#m582a777c95" y="16.318125"/>
     <use style="fill:#1f77b4;stroke:#1f77b4;" x="686.007665" xlink:href="#m582a777c95" y="16.318125"/>
     <use style="fill:#1f77b4;stroke:#1f77b4;" x="638.886514" xlink:href="#m582a777c95" y="115.154489"/>
     <use style="fill:#1f77b4;stroke:#1f77b4;" x="358.095077" xlink:href="#m582a777c95" y="16.318125"/>
     <use style="fill:#1f77b4;stroke:#1f77b4;" x="417.594335" xlink:href="#m582a777c95" y="115.154489"/>
     <use style="fill:#1f77b4;stroke:#1f77b4;" x="520.215078" xlink:href="#m582a777c95" y="16.318125"/>
     <use style="fill:#1f77b4;stroke:#1f77b4;" x="179.930516" xlink:href="#m582a777c95" y="115.154489"/>
     <use style="fill:#1f77b4;stroke:#1f77b4;" x="227.305107" xlink:href="#m582a777c95" y="115.154489"/>
     <use style="fill:#1f77b4;stroke:#1f77b4;" x="195.983184" xlink:href="#m582a777c95" y="16.318125"/>
     <use style="fill:#1f77b4;stroke:#1f77b4;" x="830.477901" xlink:href="#m582a777c95" y="16.318125"/>
     <use style="fill:#1f77b4;stroke:#1f77b4;" x="737.331151" xlink:href="#m582a777c95" y="16.318125"/>
     <use style="fill:#1f77b4;stroke:#1f77b4;" x="290.007991" xlink:href="#m582a777c95" y="115.154489"/>
     <use style="fill:#1f77b4;stroke:#1f77b4;" x="548.73271" xlink:href="#m582a777c95" y="115.154489"/>
     <use style="fill:#1f77b4;stroke:#1f77b4;" x="450.284427" xlink:href="#m582a777c95" y="115.154489"/>
     <use style="fill:#1f77b4;stroke:#1f77b4;" x="926.997984" xlink:href="#m582a777c95" y="115.154489"/>
     <use style="fill:#1f77b4;stroke:#1f77b4;" x="521.187886" xlink:href="#m582a777c95" y="16.318125"/>
     <use style="fill:#1f77b4;stroke:#1f77b4;" x="1275.801922" xlink:href="#m582a777c95" y="16.318125"/>
     <use style="fill:#1f77b4;stroke:#1f77b4;" x="640.821724" xlink:href="#m582a777c95" y="115.154489"/>
     <use style="fill:#1f77b4;stroke:#1f77b4;" x="475.808606" xlink:href="#m582a777c95" y="16.318125"/>
     <use style="fill:#1f77b4;stroke:#1f77b4;" x="673.844373" xlink:href="#m582a777c95" y="16.318125"/>
     <use style="fill:#1f77b4;stroke:#1f77b4;" x="235.598525" xlink:href="#m582a777c95" y="115.154489"/>
     <use style="fill:#1f77b4;stroke:#1f77b4;" x="397.91147" xlink:href="#m582a777c95" y="16.318125"/>
     <use style="fill:#1f77b4;stroke:#1f77b4;" x="468.341445" xlink:href="#m582a777c95" y="115.154489"/>
     <use style="fill:#1f77b4;stroke:#1f77b4;" x="1082.314777" xlink:href="#m582a777c95" y="16.318125"/>
     <use style="fill:#1f77b4;stroke:#1f77b4;" x="199.102465" xlink:href="#m582a777c95" y="115.154489"/>
     <use style="fill:#1f77b4;stroke:#1f77b4;" x="273.126296" xlink:href="#m582a777c95" y="115.154489"/>
     <use style="fill:#1f77b4;stroke:#1f77b4;" x="403.51255" xlink:href="#m582a777c95" y="115.154489"/>
     <use style="fill:#1f77b4;stroke:#1f77b4;" x="330.708829" xlink:href="#m582a777c95" y="115.154489"/>
     <use style="fill:#1f77b4;stroke:#1f77b4;" x="978.457266" xlink:href="#m582a777c95" y="16.318125"/>
     <use style="fill:#1f77b4;stroke:#1f77b4;" x="617.051056" xlink:href="#m582a777c95" y="16.318125"/>
     <use style="fill:#1f77b4;stroke:#1f77b4;" x="144.78565" xlink:href="#m582a777c95" y="115.154489"/>
     <use style="fill:#1f77b4;stroke:#1f77b4;" x="635.139427" xlink:href="#m582a777c95" y="115.154489"/>
     <use style="fill:#1f77b4;stroke:#1f77b4;" x="1064.683856" xlink:href="#m582a777c95" y="115.154489"/>
     <use style="fill:#1f77b4;stroke:#1f77b4;" x="187.977801" xlink:href="#m582a777c95" y="115.154489"/>
     <use style="fill:#1f77b4;stroke:#1f77b4;" x="581.24327" xlink:href="#m582a777c95" y="16.318125"/>
     <use style="fill:#1f77b4;stroke:#1f77b4;" x="352.095869" xlink:href="#m582a777c95" y="115.154489"/>
     <use style="fill:#1f77b4;stroke:#1f77b4;" x="409.643104" xlink:href="#m582a777c95" y="115.154489"/>
     <use style="fill:#1f77b4;stroke:#1f77b4;" x="923.540338" xlink:href="#m582a777c95" y="16.318125"/>
     <use style="fill:#1f77b4;stroke:#1f77b4;" x="283.058221" xlink:href="#m582a777c95" y="115.154489"/>
     <use style="fill:#1f77b4;stroke:#1f77b4;" x="325.395532" xlink:href="#m582a777c95" y="16.318125"/>
     <use style="fill:#1f77b4;stroke:#1f77b4;" x="264.894297" xlink:href="#m582a777c95" y="16.318125"/>
     <use style="fill:#1f77b4;stroke:#1f77b4;" x="551.600169" xlink:href="#m582a777c95" y="16.318125"/>
     <use style="fill:#1f77b4;stroke:#1f77b4;" x="486.394928" xlink:href="#m582a777c95" y="115.154489"/>
     <use style="fill:#1f77b4;stroke:#1f77b4;" x="669.827499" xlink:href="#m582a777c95" y="115.154489"/>
     <use style="fill:#1f77b4;stroke:#1f77b4;" x="987.015736" xlink:href="#m582a777c95" y="115.154489"/>
     <use style="fill:#1f77b4;stroke:#1f77b4;" x="1232.306506" xlink:href="#m582a777c95" y="16.318125"/>
     <use style="fill:#1f77b4;stroke:#1f77b4;" x="425.239272" xlink:href="#m582a777c95" y="115.154489"/>
     <use style="fill:#1f77b4;stroke:#1f77b4;" x="337.033172" xlink:href="#m582a777c95" y="115.154489"/>
     <use style="fill:#1f77b4;stroke:#1f77b4;" x="111.380413" xlink:href="#m582a777c95" y="115.154489"/>
     <use style="fill:#1f77b4;stroke:#1f77b4;" x="386.460573" xlink:href="#m582a777c95" y="16.318125"/>
     <use style="fill:#1f77b4;stroke:#1f77b4;" x="701.959219" xlink:href="#m582a777c95" y="16.318125"/>
     <use style="fill:#1f77b4;stroke:#1f77b4;" x="811.376077" xlink:href="#m582a777c95" y="115.154489"/>
     <use style="fill:#1f77b4;stroke:#1f77b4;" x="1209.562278" xlink:href="#m582a777c95" y="115.154489"/>
     <use style="fill:#1f77b4;stroke:#1f77b4;" x="1185.005654" xlink:href="#m582a777c95" y="16.318125"/>
     <use style="fill:#1f77b4;stroke:#1f77b4;" x="678.994721" xlink:href="#m582a777c95" y="16.318125"/>
     <use style="fill:#1f77b4;stroke:#1f77b4;" x="392.537556" xlink:href="#m582a777c95" y="16.318125"/>
     <use style="fill:#1f77b4;stroke:#1f77b4;" x="548.762494" xlink:href="#m582a777c95" y="115.154489"/>
     <use style="fill:#1f77b4;stroke:#1f77b4;" x="729.45169" xlink:href="#m582a777c95" y="16.318125"/>
     <use style="fill:#1f77b4;stroke:#1f77b4;" x="668.705598" xlink:href="#m582a777c95" y="16.318125"/>
     <use style="fill:#1f77b4;stroke:#1f77b4;" x="197.945551" xlink:href="#m582a777c95" y="115.154489"/>
     <use style="fill:#1f77b4;stroke:#1f77b4;" x="773.746413" xlink:href="#m582a777c95" y="16.318125"/>
     <use style="fill:#1f77b4;stroke:#1f77b4;" x="569.679265" xlink:href="#m582a777c95" y="115.154489"/>
     <use style="fill:#1f77b4;stroke:#1f77b4;" x="304.048103" xlink:href="#m582a777c95" y="16.318125"/>
     <use style="fill:#1f77b4;stroke:#1f77b4;" x="256.702449" xlink:href="#m582a777c95" y="16.318125"/>
     <use style="fill:#1f77b4;stroke:#1f77b4;" x="132.872999" xlink:href="#m582a777c95" y="115.154489"/>
     <use style="fill:#1f77b4;stroke:#1f77b4;" x="210.465822" xlink:href="#m582a777c95" y="16.318125"/>
     <use style="fill:#1f77b4;stroke:#1f77b4;" x="140.710521" xlink:href="#m582a777c95" y="16.318125"/>
     <use style="fill:#1f77b4;stroke:#1f77b4;" x="760.324206" xlink:href="#m582a777c95" y="115.154489"/>
     <use style="fill:#1f77b4;stroke:#1f77b4;" x="621.867108" xlink:href="#m582a777c95" y="16.318125"/>
     <use style="fill:#1f77b4;stroke:#1f77b4;" x="715.251647" xlink:href="#m582a777c95" y="115.154489"/>
     <use style="fill:#1f77b4;stroke:#1f77b4;" x="436.988088" xlink:href="#m582a777c95" y="16.318125"/>
     <use style="fill:#1f77b4;stroke:#1f77b4;" x="324.72239" xlink:href="#m582a777c95" y="16.318125"/>
     <use style="fill:#1f77b4;stroke:#1f77b4;" x="719.552811" xlink:href="#m582a777c95" y="16.318125"/>
     <use style="fill:#1f77b4;stroke:#1f77b4;" x="885.263767" xlink:href="#m582a777c95" y="16.318125"/>
     <use style="fill:#1f77b4;stroke:#1f77b4;" x="1214.927505" xlink:href="#m582a777c95" y="16.318125"/>
     <use style="fill:#1f77b4;stroke:#1f77b4;" x="250.762255" xlink:href="#m582a777c95" y="115.154489"/>
     <use style="fill:#1f77b4;stroke:#1f77b4;" x="1340.378428" xlink:href="#m582a777c95" y="115.154489"/>
     <use style="fill:#1f77b4;stroke:#1f77b4;" x="597.931335" xlink:href="#m582a777c95" y="115.154489"/>
     <use style="fill:#1f77b4;stroke:#1f77b4;" x="104.119083" xlink:href="#m582a777c95" y="115.154489"/>
     <use style="fill:#1f77b4;stroke:#1f77b4;" x="537.679277" xlink:href="#m582a777c95" y="16.318125"/>
     <use style="fill:#1f77b4;stroke:#1f77b4;" x="935.245259" xlink:href="#m582a777c95" y="16.318125"/>
     <use style="fill:#1f77b4;stroke:#1f77b4;" x="933.862907" xlink:href="#m582a777c95" y="115.154489"/>
     <use style="fill:#1f77b4;stroke:#1f77b4;" x="479.365694" xlink:href="#m582a777c95" y="115.154489"/>
     <use style="fill:#1f77b4;stroke:#1f77b4;" x="637.042854" xlink:href="#m582a777c95" y="16.318125"/>
     <use style="fill:#1f77b4;stroke:#1f77b4;" x="650.177378" xlink:href="#m582a777c95" y="16.318125"/>
     <use style="fill:#1f77b4;stroke:#1f77b4;" x="933.367823" xlink:href="#m582a777c95" y="115.154489"/>
     <use style="fill:#1f77b4;stroke:#1f77b4;" x="737.088269" xlink:href="#m582a777c95" y="16.318125"/>
     <use style="fill:#1f77b4;stroke:#1f77b4;" x="286.901073" xlink:href="#m582a777c95" y="16.318125"/>
     <use style="fill:#1f77b4;stroke:#1f77b4;" x="630.645028" xlink:href="#m582a777c95" y="16.318125"/>
     <use style="fill:#1f77b4;stroke:#1f77b4;" x="455.480892" xlink:href="#m582a777c95" y="16.318125"/>
     <use style="fill:#1f77b4;stroke:#1f77b4;" x="392.011844" xlink:href="#m582a777c95" y="115.154489"/>
     <use style="fill:#1f77b4;stroke:#1f77b4;" x="120.65981" xlink:href="#m582a777c95" y="115.154489"/>
     <use style="fill:#1f77b4;stroke:#1f77b4;" x="495.206318" xlink:href="#m582a777c95" y="16.318125"/>
     <use style="fill:#1f77b4;stroke:#1f77b4;" x="866.800065" xlink:href="#m582a777c95" y="16.318125"/>
     <use style="fill:#1f77b4;stroke:#1f77b4;" x="215.421025" xlink:href="#m582a777c95" y="115.154489"/>
     <use style="fill:#1f77b4;stroke:#1f77b4;" x="486.943687" xlink:href="#m582a777c95" y="16.318125"/>
     <use style="fill:#1f77b4;stroke:#1f77b4;" x="502.121407" xlink:href="#m582a777c95" y="16.318125"/>
     <use style="fill:#1f77b4;stroke:#1f77b4;" x="233.799296" xlink:href="#m582a777c95" y="115.154489"/>
     <use style="fill:#1f77b4;stroke:#1f77b4;" x="276.109485" xlink:href="#m582a777c95" y="115.154489"/>
     <use style="fill:#1f77b4;stroke:#1f77b4;" x="204.291325" xlink:href="#m582a777c95" y="115.154489"/>
     <use style="fill:#1f77b4;stroke:#1f77b4;" x="266.46475" xlink:href="#m582a777c95" y="16.318125"/>
     <use style="fill:#1f77b4;stroke:#1f77b4;" x="224.445786" xlink:href="#m582a777c95" y="16.318125"/>
     <use style="fill:#1f77b4;stroke:#1f77b4;" x="832.767349" xlink:href="#m582a777c95" y="16.318125"/>
     <use style="fill:#1f77b4;stroke:#1f77b4;" x="666.51686" xlink:href="#m582a777c95" y="16.318125"/>
     <use style="fill:#1f77b4;stroke:#1f77b4;" x="161.504864" xlink:href="#m582a777c95" y="115.154489"/>
     <use style="fill:#1f77b4;stroke:#1f77b4;" x="344.373351" xlink:href="#m582a777c95" y="115.154489"/>
     <use style="fill:#1f77b4;stroke:#1f77b4;" x="244.336436" xlink:href="#m582a777c95" y="115.154489"/>
     <use style="fill:#1f77b4;stroke:#1f77b4;" x="435.599365" xlink:href="#m582a777c95" y="16.318125"/>
     <use style="fill:#1f77b4;stroke:#1f77b4;" x="572.158566" xlink:href="#m582a777c95" y="16.318125"/>
     <use style="fill:#1f77b4;stroke:#1f77b4;" x="190.691747" xlink:href="#m582a777c95" y="115.154489"/>
     <use style="fill:#1f77b4;stroke:#1f77b4;" x="509.406371" xlink:href="#m582a777c95" y="16.318125"/>
     <use style="fill:#1f77b4;stroke:#1f77b4;" x="883.750718" xlink:href="#m582a777c95" y="115.154489"/>
     <use style="fill:#1f77b4;stroke:#1f77b4;" x="408.332858" xlink:href="#m582a777c95" y="115.154489"/>
     <use style="fill:#1f77b4;stroke:#1f77b4;" x="1113.935124" xlink:href="#m582a777c95" y="115.154489"/>
     <use style="fill:#1f77b4;stroke:#1f77b4;" x="266.68213" xlink:href="#m582a777c95" y="115.154489"/>
     <use style="fill:#1f77b4;stroke:#1f77b4;" x="636.647082" xlink:href="#m582a777c95" y="16.318125"/>
     <use style="fill:#1f77b4;stroke:#1f77b4;" x="632.103306" xlink:href="#m582a777c95" y="115.154489"/>
     <use style="fill:#1f77b4;stroke:#1f77b4;" x="621.844145" xlink:href="#m582a777c95" y="115.154489"/>
     <use style="fill:#1f77b4;stroke:#1f77b4;" x="434.109879" xlink:href="#m582a777c95" y="115.154489"/>
     <use style="fill:#1f77b4;stroke:#1f77b4;" x="564.31992" xlink:href="#m582a777c95" y="115.154489"/>
     <use style="fill:#1f77b4;stroke:#1f77b4;" x="422.825567" xlink:href="#m582a777c95" y="16.318125"/>
     <use style="fill:#1f77b4;stroke:#1f77b4;" x="634.222977" xlink:href="#m582a777c95" y="115.154489"/>
     <use style="fill:#1f77b4;stroke:#1f77b4;" x="1249.519099" xlink:href="#m582a777c95" y="16.318125"/>
     <use style="fill:#1f77b4;stroke:#1f77b4;" x="1075.853899" xlink:href="#m582a777c95" y="16.318125"/>
     <use style="fill:#1f77b4;stroke:#1f77b4;" x="897.833591" xlink:href="#m582a777c95" y="16.318125"/>
     <use style="fill:#1f77b4;stroke:#1f77b4;" x="365.371261" xlink:href="#m582a777c95" y="115.154489"/>
     <use style="fill:#1f77b4;stroke:#1f77b4;" x="882.885763" xlink:href="#m582a777c95" y="115.154489"/>
     <use style="fill:#1f77b4;stroke:#1f77b4;" x="794.41175" xlink:href="#m582a777c95" y="16.318125"/>
     <use style="fill:#1f77b4;stroke:#1f77b4;" x="164.843854" xlink:href="#m582a777c95" y="115.154489"/>
     <use style="fill:#1f77b4;stroke:#1f77b4;" x="285.654286" xlink:href="#m582a777c95" y="115.154489"/>
     <use style="fill:#1f77b4;stroke:#1f77b4;" x="599.582081" xlink:href="#m582a777c95" y="115.154489"/>
     <use style="fill:#1f77b4;stroke:#1f77b4;" x="582.782455" xlink:href="#m582a777c95" y="115.154489"/>
     <use style="fill:#1f77b4;stroke:#1f77b4;" x="821.320653" xlink:href="#m582a777c95" y="115.154489"/>
     <use style="fill:#1f77b4;stroke:#1f77b4;" x="846.558754" xlink:href="#m582a777c95" y="115.154489"/>
     <use style="fill:#1f77b4;stroke:#1f77b4;" x="472.259779" xlink:href="#m582a777c95" y="115.154489"/>
     <use style="fill:#1f77b4;stroke:#1f77b4;" x="467.828536" xlink:href="#m582a777c95" y="16.318125"/>
     <use style="fill:#1f77b4;stroke:#1f77b4;" x="450.926605" xlink:href="#m582a777c95" y="16.318125"/>
     <use style="fill:#1f77b4;stroke:#1f77b4;" x="829.162768" xlink:href="#m582a777c95" y="16.318125"/>
     <use style="fill:#1f77b4;stroke:#1f77b4;" x="108.171647" xlink:href="#m582a777c95" y="115.154489"/>
     <use style="fill:#1f77b4;stroke:#1f77b4;" x="602.417181" xlink:href="#m582a777c95" y="16.318125"/>
     <use style="fill:#1f77b4;stroke:#1f77b4;" x="601.965103" xlink:href="#m582a777c95" y="115.154489"/>
     <use style="fill:#1f77b4;stroke:#1f77b4;" x="754.876869" xlink:href="#m582a777c95" y="16.318125"/>
     <use style="fill:#1f77b4;stroke:#1f77b4;" x="472.742666" xlink:href="#m582a777c95" y="115.154489"/>
     <use style="fill:#1f77b4;stroke:#1f77b4;" x="534.868141" xlink:href="#m582a777c95" y="16.318125"/>
     <use style="fill:#1f77b4;stroke:#1f77b4;" x="312.701416" xlink:href="#m582a777c95" y="115.154489"/>
     <use style="fill:#1f77b4;stroke:#1f77b4;" x="1145.397049" xlink:href="#m582a777c95" y="16.318125"/>
     <use style="fill:#1f77b4;stroke:#1f77b4;" x="274.511698" xlink:href="#m582a777c95" y="115.154489"/>
     <use style="fill:#1f77b4;stroke:#1f77b4;" x="516.91451" xlink:href="#m582a777c95" y="16.318125"/>
     <use style="fill:#1f77b4;stroke:#1f77b4;" x="1154.853375" xlink:href="#m582a777c95" y="16.318125"/>
     <use style="fill:#1f77b4;stroke:#1f77b4;" x="454.91045" xlink:href="#m582a777c95" y="115.154489"/>
     <use style="fill:#1f77b4;stroke:#1f77b4;" x="887.096329" xlink:href="#m582a777c95" y="16.318125"/>
     <use style="fill:#1f77b4;stroke:#1f77b4;" x="1038.572794" xlink:href="#m582a777c95" y="115.154489"/>
     <use style="fill:#1f77b4;stroke:#1f77b4;" x="785.857401" xlink:href="#m582a777c95" y="16.318125"/>
     <use style="fill:#1f77b4;stroke:#1f77b4;" x="222.40098" xlink:href="#m582a777c95" y="115.154489"/>
     <use style="fill:#1f77b4;stroke:#1f77b4;" x="798.94419" xlink:href="#m582a777c95" y="115.154489"/>
     <use style="fill:#1f77b4;stroke:#1f77b4;" x="681.872192" xlink:href="#m582a777c95" y="115.154489"/>
     <use style="fill:#1f77b4;stroke:#1f77b4;" x="438.514965" xlink:href="#m582a777c95" y="16.318125"/>
     <use style="fill:#1f77b4;stroke:#1f77b4;" x="253.67458" xlink:href="#m582a777c95" y="16.318125"/>
     <use style="fill:#1f77b4;stroke:#1f77b4;" x="375.654425" xlink:href="#m582a777c95" y="16.318125"/>
    </g>
   </g>
   <g id="matplotlib.axis_1">
    <g id="xtick_1">
     <g id="line2d_1">
      <defs>
       <path d="M 0 0 
L 0 3.5 
" id="m3d15822c6d" style="stroke:#000000;stroke-width:0.8;"/>
      </defs>
      <g>
       <use style="stroke:#000000;stroke-width:0.8;" x="94.84" xlink:href="#m3d15822c6d" y="120.096307"/>
      </g>
     </g>
     <g id="text_1">
      <!-- 0 -->
      <defs>
       <path d="M 31.78125 66.40625 
Q 24.171875 66.40625 20.328125 58.90625 
Q 16.5 51.421875 16.5 36.375 
Q 16.5 21.390625 20.328125 13.890625 
Q 24.171875 6.390625 31.78125 6.390625 
Q 39.453125 6.390625 43.28125 13.890625 
Q 47.125 21.390625 47.125 36.375 
Q 47.125 51.421875 43.28125 58.90625 
Q 39.453125 66.40625 31.78125 66.40625 
z
M 31.78125 74.21875 
Q 44.046875 74.21875 50.515625 64.515625 
Q 56.984375 54.828125 56.984375 36.375 
Q 56.984375 17.96875 50.515625 8.265625 
Q 44.046875 -1.421875 31.78125 -1.421875 
Q 19.53125 -1.421875 13.0625 8.265625 
Q 6.59375 17.96875 6.59375 36.375 
Q 6.59375 54.828125 13.0625 64.515625 
Q 19.53125 74.21875 31.78125 74.21875 
z
" id="DejaVuSans-48"/>
      </defs>
      <g transform="translate(88.4775 142.293182)scale(0.2 -0.2)">
       <use xlink:href="#DejaVuSans-48"/>
      </g>
     </g>
    </g>
    <g id="xtick_2">
     <g id="line2d_2">
      <g>
       <use style="stroke:#000000;stroke-width:0.8;" x="273.4" xlink:href="#m3d15822c6d" y="120.096307"/>
      </g>
     </g>
     <g id="text_2">
      <!-- 2 -->
      <defs>
       <path d="M 19.1875 8.296875 
L 53.609375 8.296875 
L 53.609375 0 
L 7.328125 0 
L 7.328125 8.296875 
Q 12.9375 14.109375 22.625 23.890625 
Q 32.328125 33.6875 34.8125 36.53125 
Q 39.546875 41.84375 41.421875 45.53125 
Q 43.3125 49.21875 43.3125 52.78125 
Q 43.3125 58.59375 39.234375 62.25 
Q 35.15625 65.921875 28.609375 65.921875 
Q 23.96875 65.921875 18.8125 64.3125 
Q 13.671875 62.703125 7.8125 59.421875 
L 7.8125 69.390625 
Q 13.765625 71.78125 18.9375 73 
Q 24.125 74.21875 28.421875 74.21875 
Q 39.75 74.21875 46.484375 68.546875 
Q 53.21875 62.890625 53.21875 53.421875 
Q 53.21875 48.921875 51.53125 44.890625 
Q 49.859375 40.875 45.40625 35.40625 
Q 44.1875 33.984375 37.640625 27.21875 
Q 31.109375 20.453125 19.1875 8.296875 
z
" id="DejaVuSans-50"/>
      </defs>
      <g transform="translate(267.0375 142.293182)scale(0.2 -0.2)">
       <use xlink:href="#DejaVuSans-50"/>
      </g>
     </g>
    </g>
    <g id="xtick_3">
     <g id="line2d_3">
      <g>
       <use style="stroke:#000000;stroke-width:0.8;" x="451.96" xlink:href="#m3d15822c6d" y="120.096307"/>
      </g>
     </g>
     <g id="text_3">
      <!-- 4 -->
      <defs>
       <path d="M 37.796875 64.3125 
L 12.890625 25.390625 
L 37.796875 25.390625 
z
M 35.203125 72.90625 
L 47.609375 72.90625 
L 47.609375 25.390625 
L 58.015625 25.390625 
L 58.015625 17.1875 
L 47.609375 17.1875 
L 47.609375 0 
L 37.796875 0 
L 37.796875 17.1875 
L 4.890625 17.1875 
L 4.890625 26.703125 
z
" id="DejaVuSans-52"/>
      </defs>
      <g transform="translate(445.5975 142.293182)scale(0.2 -0.2)">
       <use xlink:href="#DejaVuSans-52"/>
      </g>
     </g>
    </g>
    <g id="xtick_4">
     <g id="line2d_4">
      <g>
       <use style="stroke:#000000;stroke-width:0.8;" x="630.52" xlink:href="#m3d15822c6d" y="120.096307"/>
      </g>
     </g>
     <g id="text_4">
      <!-- 6 -->
      <defs>
       <path d="M 33.015625 40.375 
Q 26.375 40.375 22.484375 35.828125 
Q 18.609375 31.296875 18.609375 23.390625 
Q 18.609375 15.53125 22.484375 10.953125 
Q 26.375 6.390625 33.015625 6.390625 
Q 39.65625 6.390625 43.53125 10.953125 
Q 47.40625 15.53125 47.40625 23.390625 
Q 47.40625 31.296875 43.53125 35.828125 
Q 39.65625 40.375 33.015625 40.375 
z
M 52.59375 71.296875 
L 52.59375 62.3125 
Q 48.875 64.0625 45.09375 64.984375 
Q 41.3125 65.921875 37.59375 65.921875 
Q 27.828125 65.921875 22.671875 59.328125 
Q 17.53125 52.734375 16.796875 39.40625 
Q 19.671875 43.65625 24.015625 45.921875 
Q 28.375 48.1875 33.59375 48.1875 
Q 44.578125 48.1875 50.953125 41.515625 
Q 57.328125 34.859375 57.328125 23.390625 
Q 57.328125 12.15625 50.6875 5.359375 
Q 44.046875 -1.421875 33.015625 -1.421875 
Q 20.359375 -1.421875 13.671875 8.265625 
Q 6.984375 17.96875 6.984375 36.375 
Q 6.984375 53.65625 15.1875 63.9375 
Q 23.390625 74.21875 37.203125 74.21875 
Q 40.921875 74.21875 44.703125 73.484375 
Q 48.484375 72.75 52.59375 71.296875 
z
" id="DejaVuSans-54"/>
      </defs>
      <g transform="translate(624.1575 142.293182)scale(0.2 -0.2)">
       <use xlink:href="#DejaVuSans-54"/>
      </g>
     </g>
    </g>
    <g id="xtick_5">
     <g id="line2d_5">
      <g>
       <use style="stroke:#000000;stroke-width:0.8;" x="809.08" xlink:href="#m3d15822c6d" y="120.096307"/>
      </g>
     </g>
     <g id="text_5">
      <!-- 8 -->
      <defs>
       <path d="M 31.78125 34.625 
Q 24.75 34.625 20.71875 30.859375 
Q 16.703125 27.09375 16.703125 20.515625 
Q 16.703125 13.921875 20.71875 10.15625 
Q 24.75 6.390625 31.78125 6.390625 
Q 38.8125 6.390625 42.859375 10.171875 
Q 46.921875 13.96875 46.921875 20.515625 
Q 46.921875 27.09375 42.890625 30.859375 
Q 38.875 34.625 31.78125 34.625 
z
M 21.921875 38.8125 
Q 15.578125 40.375 12.03125 44.71875 
Q 8.5 49.078125 8.5 55.328125 
Q 8.5 64.0625 14.71875 69.140625 
Q 20.953125 74.21875 31.78125 74.21875 
Q 42.671875 74.21875 48.875 69.140625 
Q 55.078125 64.0625 55.078125 55.328125 
Q 55.078125 49.078125 51.53125 44.71875 
Q 48 40.375 41.703125 38.8125 
Q 48.828125 37.15625 52.796875 32.3125 
Q 56.78125 27.484375 56.78125 20.515625 
Q 56.78125 9.90625 50.3125 4.234375 
Q 43.84375 -1.421875 31.78125 -1.421875 
Q 19.734375 -1.421875 13.25 4.234375 
Q 6.78125 9.90625 6.78125 20.515625 
Q 6.78125 27.484375 10.78125 32.3125 
Q 14.796875 37.15625 21.921875 38.8125 
z
M 18.3125 54.390625 
Q 18.3125 48.734375 21.84375 45.5625 
Q 25.390625 42.390625 31.78125 42.390625 
Q 38.140625 42.390625 41.71875 45.5625 
Q 45.3125 48.734375 45.3125 54.390625 
Q 45.3125 60.0625 41.71875 63.234375 
Q 38.140625 66.40625 31.78125 66.40625 
Q 25.390625 66.40625 21.84375 63.234375 
Q 18.3125 60.0625 18.3125 54.390625 
z
" id="DejaVuSans-56"/>
      </defs>
      <g transform="translate(802.7175 142.293182)scale(0.2 -0.2)">
       <use xlink:href="#DejaVuSans-56"/>
      </g>
     </g>
    </g>
    <g id="xtick_6">
     <g id="line2d_6">
      <g>
       <use style="stroke:#000000;stroke-width:0.8;" x="987.64" xlink:href="#m3d15822c6d" y="120.096307"/>
      </g>
     </g>
     <g id="text_6">
      <!-- 10 -->
      <defs>
       <path d="M 12.40625 8.296875 
L 28.515625 8.296875 
L 28.515625 63.921875 
L 10.984375 60.40625 
L 10.984375 69.390625 
L 28.421875 72.90625 
L 38.28125 72.90625 
L 38.28125 8.296875 
L 54.390625 8.296875 
L 54.390625 0 
L 12.40625 0 
z
" id="DejaVuSans-49"/>
      </defs>
      <g transform="translate(974.915 142.293182)scale(0.2 -0.2)">
       <use xlink:href="#DejaVuSans-49"/>
       <use x="63.623047" xlink:href="#DejaVuSans-48"/>
      </g>
     </g>
    </g>
    <g id="text_7">
     <!-- Age (Gyr) -->
     <defs>
      <path d="M 34.1875 63.1875 
L 20.796875 26.90625 
L 47.609375 26.90625 
z
M 28.609375 72.90625 
L 39.796875 72.90625 
L 67.578125 0 
L 57.328125 0 
L 50.6875 18.703125 
L 17.828125 18.703125 
L 11.1875 0 
L 0.78125 0 
z
" id="DejaVuSans-65"/>
      <path d="M 45.40625 27.984375 
Q 45.40625 37.75 41.375 43.109375 
Q 37.359375 48.484375 30.078125 48.484375 
Q 22.859375 48.484375 18.828125 43.109375 
Q 14.796875 37.75 14.796875 27.984375 
Q 14.796875 18.265625 18.828125 12.890625 
Q 22.859375 7.515625 30.078125 7.515625 
Q 37.359375 7.515625 41.375 12.890625 
Q 45.40625 18.265625 45.40625 27.984375 
z
M 54.390625 6.78125 
Q 54.390625 -7.171875 48.1875 -13.984375 
Q 42 -20.796875 29.203125 -20.796875 
Q 24.46875 -20.796875 20.265625 -20.09375 
Q 16.0625 -19.390625 12.109375 -17.921875 
L 12.109375 -9.1875 
Q 16.0625 -11.328125 19.921875 -12.34375 
Q 23.78125 -13.375 27.78125 -13.375 
Q 36.625 -13.375 41.015625 -8.765625 
Q 45.40625 -4.15625 45.40625 5.171875 
L 45.40625 9.625 
Q 42.625 4.78125 38.28125 2.390625 
Q 33.9375 0 27.875 0 
Q 17.828125 0 11.671875 7.65625 
Q 5.515625 15.328125 5.515625 27.984375 
Q 5.515625 40.671875 11.671875 48.328125 
Q 17.828125 56 27.875 56 
Q 33.9375 56 38.28125 53.609375 
Q 42.625 51.21875 45.40625 46.390625 
L 45.40625 54.6875 
L 54.390625 54.6875 
z
" id="DejaVuSans-103"/>
      <path d="M 56.203125 29.59375 
L 56.203125 25.203125 
L 14.890625 25.203125 
Q 15.484375 15.921875 20.484375 11.0625 
Q 25.484375 6.203125 34.421875 6.203125 
Q 39.59375 6.203125 44.453125 7.46875 
Q 49.3125 8.734375 54.109375 11.28125 
L 54.109375 2.78125 
Q 49.265625 0.734375 44.1875 -0.34375 
Q 39.109375 -1.421875 33.890625 -1.421875 
Q 20.796875 -1.421875 13.15625 6.1875 
Q 5.515625 13.8125 5.515625 26.8125 
Q 5.515625 40.234375 12.765625 48.109375 
Q 20.015625 56 32.328125 56 
Q 43.359375 56 49.78125 48.890625 
Q 56.203125 41.796875 56.203125 29.59375 
z
M 47.21875 32.234375 
Q 47.125 39.59375 43.09375 43.984375 
Q 39.0625 48.390625 32.421875 48.390625 
Q 24.90625 48.390625 20.390625 44.140625 
Q 15.875 39.890625 15.1875 32.171875 
z
" id="DejaVuSans-101"/>
      <path id="DejaVuSans-32"/>
      <path d="M 31 75.875 
Q 24.46875 64.65625 21.28125 53.65625 
Q 18.109375 42.671875 18.109375 31.390625 
Q 18.109375 20.125 21.3125 9.0625 
Q 24.515625 -2 31 -13.1875 
L 23.1875 -13.1875 
Q 15.875 -1.703125 12.234375 9.375 
Q 8.59375 20.453125 8.59375 31.390625 
Q 8.59375 42.28125 12.203125 53.3125 
Q 15.828125 64.359375 23.1875 75.875 
z
" id="DejaVuSans-40"/>
      <path d="M 59.515625 10.40625 
L 59.515625 29.984375 
L 43.40625 29.984375 
L 43.40625 38.09375 
L 69.28125 38.09375 
L 69.28125 6.78125 
Q 63.578125 2.734375 56.6875 0.65625 
Q 49.8125 -1.421875 42 -1.421875 
Q 24.90625 -1.421875 15.25 8.5625 
Q 5.609375 18.5625 5.609375 36.375 
Q 5.609375 54.25 15.25 64.234375 
Q 24.90625 74.21875 42 74.21875 
Q 49.125 74.21875 55.546875 72.453125 
Q 61.96875 70.703125 67.390625 67.28125 
L 67.390625 56.78125 
Q 61.921875 61.421875 55.765625 63.765625 
Q 49.609375 66.109375 42.828125 66.109375 
Q 29.4375 66.109375 22.71875 58.640625 
Q 16.015625 51.171875 16.015625 36.375 
Q 16.015625 21.625 22.71875 14.15625 
Q 29.4375 6.6875 42.828125 6.6875 
Q 48.046875 6.6875 52.140625 7.59375 
Q 56.25 8.5 59.515625 10.40625 
z
" id="DejaVuSans-71"/>
      <path d="M 32.171875 -5.078125 
Q 28.375 -14.84375 24.75 -17.8125 
Q 21.140625 -20.796875 15.09375 -20.796875 
L 7.90625 -20.796875 
L 7.90625 -13.28125 
L 13.1875 -13.28125 
Q 16.890625 -13.28125 18.9375 -11.515625 
Q 21 -9.765625 23.484375 -3.21875 
L 25.09375 0.875 
L 2.984375 54.6875 
L 12.5 54.6875 
L 29.59375 11.921875 
L 46.6875 54.6875 
L 56.203125 54.6875 
z
" id="DejaVuSans-121"/>
      <path d="M 41.109375 46.296875 
Q 39.59375 47.171875 37.8125 47.578125 
Q 36.03125 48 33.890625 48 
Q 26.265625 48 22.1875 43.046875 
Q 18.109375 38.09375 18.109375 28.8125 
L 18.109375 0 
L 9.078125 0 
L 9.078125 54.6875 
L 18.109375 54.6875 
L 18.109375 46.1875 
Q 20.953125 51.171875 25.484375 53.578125 
Q 30.03125 56 36.53125 56 
Q 37.453125 56 38.578125 55.875 
Q 39.703125 55.765625 41.0625 55.515625 
z
" id="DejaVuSans-114"/>
      <path d="M 8.015625 75.875 
L 15.828125 75.875 
Q 23.140625 64.359375 26.78125 53.3125 
Q 30.421875 42.28125 30.421875 31.390625 
Q 30.421875 20.453125 26.78125 9.375 
Q 23.140625 -1.703125 15.828125 -13.1875 
L 8.015625 -13.1875 
Q 14.5 -2 17.703125 9.0625 
Q 20.90625 20.125 20.90625 31.390625 
Q 20.90625 42.671875 17.703125 53.65625 
Q 14.5 64.65625 8.015625 75.875 
z
" id="DejaVuSans-41"/>
     </defs>
     <g transform="translate(483.518125 168.688807)scale(0.24 -0.24)">
      <use xlink:href="#DejaVuSans-65"/>
      <use x="68.408203" xlink:href="#DejaVuSans-103"/>
      <use x="131.884766" xlink:href="#DejaVuSans-101"/>
      <use x="193.408203" xlink:href="#DejaVuSans-32"/>
      <use x="225.195312" xlink:href="#DejaVuSans-40"/>
      <use x="264.208984" xlink:href="#DejaVuSans-71"/>
      <use x="341.699219" xlink:href="#DejaVuSans-121"/>
      <use x="400.878906" xlink:href="#DejaVuSans-114"/>
      <use x="441.992188" xlink:href="#DejaVuSans-41"/>
     </g>
    </g>
   </g>
   <g id="matplotlib.axis_2">
    <g id="ytick_1">
     <g id="line2d_7">
      <defs>
       <path d="M 0 0 
L -3.5 0 
" id="m10f27ee897" style="stroke:#000000;stroke-width:0.8;"/>
      </defs>
      <g>
       <use style="stroke:#000000;stroke-width:0.8;" x="94.84" xlink:href="#m10f27ee897" y="115.154489"/>
      </g>
     </g>
     <g id="text_8">
      <!-- no O$_2$ -->
      <defs>
       <path d="M 54.890625 33.015625 
L 54.890625 0 
L 45.90625 0 
L 45.90625 32.71875 
Q 45.90625 40.484375 42.875 44.328125 
Q 39.84375 48.1875 33.796875 48.1875 
Q 26.515625 48.1875 22.3125 43.546875 
Q 18.109375 38.921875 18.109375 30.90625 
L 18.109375 0 
L 9.078125 0 
L 9.078125 54.6875 
L 18.109375 54.6875 
L 18.109375 46.1875 
Q 21.34375 51.125 25.703125 53.5625 
Q 30.078125 56 35.796875 56 
Q 45.21875 56 50.046875 50.171875 
Q 54.890625 44.34375 54.890625 33.015625 
z
" id="DejaVuSans-110"/>
       <path d="M 30.609375 48.390625 
Q 23.390625 48.390625 19.1875 42.75 
Q 14.984375 37.109375 14.984375 27.296875 
Q 14.984375 17.484375 19.15625 11.84375 
Q 23.34375 6.203125 30.609375 6.203125 
Q 37.796875 6.203125 41.984375 11.859375 
Q 46.1875 17.53125 46.1875 27.296875 
Q 46.1875 37.015625 41.984375 42.703125 
Q 37.796875 48.390625 30.609375 48.390625 
z
M 30.609375 56 
Q 42.328125 56 49.015625 48.375 
Q 55.71875 40.765625 55.71875 27.296875 
Q 55.71875 13.875 49.015625 6.21875 
Q 42.328125 -1.421875 30.609375 -1.421875 
Q 18.84375 -1.421875 12.171875 6.21875 
Q 5.515625 13.875 5.515625 27.296875 
Q 5.515625 40.765625 12.171875 48.375 
Q 18.84375 56 30.609375 56 
z
" id="DejaVuSans-111"/>
       <path d="M 39.40625 66.21875 
Q 28.65625 66.21875 22.328125 58.203125 
Q 16.015625 50.203125 16.015625 36.375 
Q 16.015625 22.609375 22.328125 14.59375 
Q 28.65625 6.59375 39.40625 6.59375 
Q 50.140625 6.59375 56.421875 14.59375 
Q 62.703125 22.609375 62.703125 36.375 
Q 62.703125 50.203125 56.421875 58.203125 
Q 50.140625 66.21875 39.40625 66.21875 
z
M 39.40625 74.21875 
Q 54.734375 74.21875 63.90625 63.9375 
Q 73.09375 53.65625 73.09375 36.375 
Q 73.09375 19.140625 63.90625 8.859375 
Q 54.734375 -1.421875 39.40625 -1.421875 
Q 24.03125 -1.421875 14.8125 8.828125 
Q 5.609375 19.09375 5.609375 36.375 
Q 5.609375 53.65625 14.8125 63.9375 
Q 24.03125 74.21875 39.40625 74.21875 
z
" id="DejaVuSans-79"/>
      </defs>
      <g transform="translate(19.68 124.272614)scale(0.24 -0.24)">
       <use transform="translate(0 0.78125)" xlink:href="#DejaVuSans-110"/>
       <use transform="translate(63.378906 0.78125)" xlink:href="#DejaVuSans-111"/>
       <use transform="translate(124.560547 0.78125)" xlink:href="#DejaVuSans-32"/>
       <use transform="translate(156.347656 0.78125)" xlink:href="#DejaVuSans-79"/>
       <use transform="translate(236.015625 -15.625)scale(0.7)" xlink:href="#DejaVuSans-50"/>
      </g>
     </g>
    </g>
    <g id="ytick_2">
     <g id="line2d_8">
      <g>
       <use style="stroke:#000000;stroke-width:0.8;" x="94.84" xlink:href="#m10f27ee897" y="16.318125"/>
      </g>
     </g>
     <g id="text_9">
      <!-- has O$_2$ -->
      <defs>
       <path d="M 54.890625 33.015625 
L 54.890625 0 
L 45.90625 0 
L 45.90625 32.71875 
Q 45.90625 40.484375 42.875 44.328125 
Q 39.84375 48.1875 33.796875 48.1875 
Q 26.515625 48.1875 22.3125 43.546875 
Q 18.109375 38.921875 18.109375 30.90625 
L 18.109375 0 
L 9.078125 0 
L 9.078125 75.984375 
L 18.109375 75.984375 
L 18.109375 46.1875 
Q 21.34375 51.125 25.703125 53.5625 
Q 30.078125 56 35.796875 56 
Q 45.21875 56 50.046875 50.171875 
Q 54.890625 44.34375 54.890625 33.015625 
z
" id="DejaVuSans-104"/>
       <path d="M 34.28125 27.484375 
Q 23.390625 27.484375 19.1875 25 
Q 14.984375 22.515625 14.984375 16.5 
Q 14.984375 11.71875 18.140625 8.90625 
Q 21.296875 6.109375 26.703125 6.109375 
Q 34.1875 6.109375 38.703125 11.40625 
Q 43.21875 16.703125 43.21875 25.484375 
L 43.21875 27.484375 
z
M 52.203125 31.203125 
L 52.203125 0 
L 43.21875 0 
L 43.21875 8.296875 
Q 40.140625 3.328125 35.546875 0.953125 
Q 30.953125 -1.421875 24.3125 -1.421875 
Q 15.921875 -1.421875 10.953125 3.296875 
Q 6 8.015625 6 15.921875 
Q 6 25.140625 12.171875 29.828125 
Q 18.359375 34.515625 30.609375 34.515625 
L 43.21875 34.515625 
L 43.21875 35.40625 
Q 43.21875 41.609375 39.140625 45 
Q 35.0625 48.390625 27.6875 48.390625 
Q 23 48.390625 18.546875 47.265625 
Q 14.109375 46.140625 10.015625 43.890625 
L 10.015625 52.203125 
Q 14.9375 54.109375 19.578125 55.046875 
Q 24.21875 56 28.609375 56 
Q 40.484375 56 46.34375 49.84375 
Q 52.203125 43.703125 52.203125 31.203125 
z
" id="DejaVuSans-97"/>
       <path d="M 44.28125 53.078125 
L 44.28125 44.578125 
Q 40.484375 46.53125 36.375 47.5 
Q 32.28125 48.484375 27.875 48.484375 
Q 21.1875 48.484375 17.84375 46.4375 
Q 14.5 44.390625 14.5 40.28125 
Q 14.5 37.15625 16.890625 35.375 
Q 19.28125 33.59375 26.515625 31.984375 
L 29.59375 31.296875 
Q 39.15625 29.25 43.1875 25.515625 
Q 47.21875 21.78125 47.21875 15.09375 
Q 47.21875 7.46875 41.1875 3.015625 
Q 35.15625 -1.421875 24.609375 -1.421875 
Q 20.21875 -1.421875 15.453125 -0.5625 
Q 10.6875 0.296875 5.421875 2 
L 5.421875 11.28125 
Q 10.40625 8.6875 15.234375 7.390625 
Q 20.0625 6.109375 24.8125 6.109375 
Q 31.15625 6.109375 34.5625 8.28125 
Q 37.984375 10.453125 37.984375 14.40625 
Q 37.984375 18.0625 35.515625 20.015625 
Q 33.0625 21.96875 24.703125 23.78125 
L 21.578125 24.515625 
Q 13.234375 26.265625 9.515625 29.90625 
Q 5.8125 33.546875 5.8125 39.890625 
Q 5.8125 47.609375 11.28125 51.796875 
Q 16.75 56 26.8125 56 
Q 31.78125 56 36.171875 55.265625 
Q 40.578125 54.546875 44.28125 53.078125 
z
" id="DejaVuSans-115"/>
      </defs>
      <g transform="translate(7.2 25.43625)scale(0.24 -0.24)">
       <use transform="translate(0 0.015625)" xlink:href="#DejaVuSans-104"/>
       <use transform="translate(63.378906 0.015625)" xlink:href="#DejaVuSans-97"/>
       <use transform="translate(124.658203 0.015625)" xlink:href="#DejaVuSans-115"/>
       <use transform="translate(176.757812 0.015625)" xlink:href="#DejaVuSans-32"/>
       <use transform="translate(208.544922 0.015625)" xlink:href="#DejaVuSans-79"/>
       <use transform="translate(288.212891 -16.390625)scale(0.7)" xlink:href="#DejaVuSans-50"/>
      </g>
     </g>
    </g>
   </g>
   <g id="patch_3">
    <path d="M 94.84 120.096307 
L 94.84 11.376307 
" style="fill:none;stroke:#000000;stroke-linecap:square;stroke-linejoin:miter;stroke-width:0.8;"/>
   </g>
   <g id="patch_4">
    <path d="M 987.64 120.096307 
L 987.64 11.376307 
" style="fill:none;stroke:#000000;stroke-linecap:square;stroke-linejoin:miter;stroke-width:0.8;"/>
   </g>
   <g id="patch_5">
    <path d="M 94.84 120.096307 
L 987.64 120.096307 
" style="fill:none;stroke:#000000;stroke-linecap:square;stroke-linejoin:miter;stroke-width:0.8;"/>
   </g>
   <g id="patch_6">
    <path d="M 94.84 11.376307 
L 987.64 11.376307 
" style="fill:none;stroke:#000000;stroke-linecap:square;stroke-linejoin:miter;stroke-width:0.8;"/>
   </g>
  </g>
 </g>
 <defs>
  <clipPath id="pd4d7aaa4af">
   <rect height="108.72" width="892.8" x="94.84" y="11.376307"/>
  </clipPath>
 </defs>
</svg>
